/* XPM */
static char *_ec991db61e74101fa0a174260a1c7f8hp7vwPj8NqMkdvqo[] = {
/* columns rows colors chars-per-pixel */
"64 64 241 2 ",
"   c #191819",
".  c #28251E",
"X  c #1E1D23",
"o  c #1F1F29",
"O  c #211D25",
"+  c #231E2A",
"@  c #202022",
"#  c #2B2727",
"$  c #23222C",
"%  c #352D29",
"&  c #3A342A",
"*  c #232531",
"=  c #2B2434",
"-  c #282838",
";  c #2D2B3C",
":  c #332A39",
">  c #2B333D",
",  c #393539",
"<  c #45311C",
"1  c #473C2B",
"2  c #463C38",
"3  c #503335",
"4  c #4C412E",
"5  c #55462F",
"6  c #4A4237",
"7  c #524433",
"8  c #554A34",
"9  c #5C4D36",
"0  c #55453E",
"q  c #564B3B",
"w  c #5C4D3A",
"e  c #5B5037",
"r  c #5D523B",
"t  c #624C3A",
"y  c #635436",
"u  c #63543C",
"i  c #69563D",
"p  c #65593E",
"a  c #6A5A3E",
"s  c #715D3F",
"d  c #6F603F",
"f  c #342C42",
"g  c #392B44",
"h  c #372F4B",
"j  c #3C2E4A",
"k  c #2D3543",
"l  c #383646",
"z  c #3A344D",
"x  c #3B3953",
"c  c #443647",
"v  c #433354",
"b  c #4B3352",
"n  c #47395A",
"m  c #6F3748",
"M  c #463E61",
"N  c #4B3D64",
"B  c #513E66",
"V  c #3D4559",
"C  c #3D4263",
"Z  c #4B4948",
"A  c #554847",
"S  c #5D5342",
"D  c #5A514B",
"F  c #43485B",
"G  c #544B58",
"H  c #495059",
"J  c #5A5657",
"K  c #654844",
"L  c #744549",
"P  c #645541",
"I  c #6A5642",
"U  c #665A43",
"Y  c #6C5C43",
"T  c #665749",
"R  c #6C5D4A",
"E  c #715E44",
"W  c #78574C",
"Q  c #715E4A",
"!  c #754B53",
"~  c #675A55",
"^  c #735B53",
"/  c #5F645C",
"(  c #6D6146",
")  c #6D624B",
"_  c #736246",
"`  c #7B6447",
"'  c #73634B",
"]  c #7B664C",
"[  c #76694D",
"{  c #7C6A4D",
"}  c #6D6253",
"|  c #68645B",
" . c #746552",
".. c #7B6552",
"X. c #756A53",
"o. c #7B6C54",
"O. c #7A6659",
"+. c #756D5B",
"@. c #7C6D5A",
"#. c #7D7155",
"$. c #7D725B",
"%. c #7A745A",
"&. c #484767",
"*. c #4D436A",
"=. c #53466B",
"-. c #4A556A",
";. c #555569",
":. c #494D74",
">. c #544975",
",. c #544B74",
"<. c #5B4C7B",
"1. c #4B5278",
"2. c #58557A",
"3. c #6A586C",
"4. c #556376",
"5. c #686565",
"6. c #786B65",
"7. c #7D7361",
"8. c #7E7963",
"9. c #7E7877",
"0. c #8F3558",
"q. c #8C4B5A",
"w. c #875858",
"e. c #826B4D",
"r. c #856656",
"t. c #826D53",
"y. c #836E5A",
"u. c #92645C",
"i. c #837255",
"p. c #887456",
"a. c #83745B",
"s. c #89765A",
"d. c #85795D",
"f. c #8B7B5D",
"g. c #927B5B",
"h. c #8C5562",
"j. c #975964",
"k. c #AD4D6B",
"l. c #886C68",
"z. c #996768",
"x. c #837561",
"c. c #857A63",
"v. c #8B7C62",
"b. c #887967",
"n. c #8C7D6A",
"m. c #917D62",
"M. c #947869",
"N. c #937576",
"B. c #AA6B72",
"V. c #91835F",
"C. c #8D8164",
"Z. c #86816C",
"A. c #8D826A",
"S. c #928265",
"D. c #92846B",
"F. c #9A8668",
"G. c #93896C",
"H. c #9A8A6C",
"J. c #8C8573",
"K. c #958A75",
"L. c #9B8C72",
"P. c #9C937A",
"I. c #A18C72",
"U. c #A29377",
"Y. c #535582",
"T. c #595887",
"R. c #604E82",
"E. c #645888",
"W. c #645E8A",
"Q. c #685D93",
"!. c #596785",
"~. c #5E738A",
"^. c #596393",
"/. c #5B6496",
"(. c #636589",
"). c #6C6293",
"_. c #686798",
"`. c #72699C",
"'. c #697798",
"]. c #6E749A",
"[. c #636DA4",
"{. c #6D6CA5",
"}. c #766EA5",
"|. c #6972AB",
" X c #7876A9",
".X c #6B77B3",
"XX c #7979B5",
"oX c #727CBC",
"OX c #787FC1",
"+X c #817DB0",
"@X c #6D829D",
"#X c #6D84A5",
"$X c #748AAA",
"%X c #7591AE",
"&X c #7985B8",
"*X c #7B95B4",
"=X c #7A85C7",
"-X c #7E8ECE",
";X c #998B82",
":X c #9B9685",
">X c #A38585",
",X c #A59B88",
"<X c #A7A38E",
"1X c #A9A592",
"2X c #8286BA",
"3X c #8198B8",
"4X c #B9B6A8",
"5X c #8384C5",
"6X c #858ACB",
"7X c #8799C9",
"8X c #848DD5",
"9X c #8593DD",
"0X c #8A94DC",
"qX c #8C99D8",
"wX c #909FD2",
"eX c #87A6C7",
"rX c #8DA7D7",
"tX c #92AAD9",
"yX c #94B4DA",
"uX c #B1B2CF",
"iX c #8A96E1",
"pX c #8B99E5",
"aX c #8D9CEA",
"sX c #93A8EA",
"dX c #9AB8E8",
"fX c #90A1F0",
"gX c #9AB4F2",
"hX c #9EBDF4",
"jX c #A5B0EB",
"kX c #9EC1EB",
"lX c #ABC7F0",
"zX c #A5C8F4",
"xX c #A5CAF7",
"cX c #ACD1F7",
"vX c #AAD1F8",
"bX c #B6D5F8",
"nX c #C4DDF8",
"mX c #D5D9F0",
"MX c #CBE1F8",
"NX c #D7E5F7",
"BX c #E6EDF8",
/* pixels */
"D q a.a.a.7.y.Q T R S +.6.} T I Y  .T R R v.B.l.B.B.z.v.K.M.r.o.t.p.s...o.J.;Xy.v.p.y.......R ..c.@.@.} b.L.y.o.y.y.o.@.H.D.b.D ",
"T 8 ' ( X.X.#._ Y Y w r 7 5 P e I Y ' u u W B.B.N.B.k.w.J.a.] ' Y [ I w R T @.o.{ e.{ t.] a a E X.o._ { p.s.S.H.L...o.o._ s.$.%.",
"x.o.s.X.s.S.t._ _ y 9 8 5 y _ #.d.#.c.Y I r.z.k.l.>XB.q.I Y E Y ' Y U U u Y P [ { t.t.] _ E _ Y R ) d.f.f.{ @.[ a.A.S.f.i.o.$.X.",
"y.o.o.X.[ u _ Y ] y u e p Q Y #.[ a.9 I Y _ w.k.j.9.l.! 3 3 3 t W t 1 7 7 w U p I S.s.e.p.{ E I 9 7 t o.i.s.R ' Y c.v.a.` o.a.o.",
"o.s.o.A.Y Y u Y _ { _ p ( E p I p I _ I _ Y w.k.q.~ 5.Z c c G ;.5.G c l , 0 7 9 t.i.] e.e.e._ u I y Y Y { t.$.) S.s.i.F.o.v.b.[ ",
"' Y i.E u y y Y E { _ ' Y _ E _ Y ` _ p _ _ ..z.q.A J *.,.!.'.%X%X#X(.,.N A w K W e.t.i.e.] _ I Y r w I a.v.U ) a.] ' b.x.$.K.o.",
"a.p p y _ Y p Y E E u Y Y Y E Q _ E _ U ' t ..h.G -.!.]. X2XtXkXkXyX7X X].E.=.b K r.p.i.i._ Y p p y p 9  .) I ( ' n.$.%.n.T +.$.",
"a.n.f._ I _ I a _ Y y E E E ] ] ] o.Y _ P u A 3.].3XeXtXyXdXzXvXzXzXdXyXtX7XoXT.=.K o.f.i.] I y y u u p w y p [ d.a. .7.n.D.o._ ",
"n.v._ p Y { ' Y I p i E a i.E ] [ [ R Y u D x +XuXlXbXcXvXcXvXvXvXvXvXbXbXlXjX5X).n A [ _ ] Q y y p y u y _ ' Y a. .#.$.$.L.$.a.",
"S.L.d p Q E y I Y e p p Y _ _ ' i U u r 7 G W.uXmXNXMXbXcXcXcXcXcXvXcXnXBXNXmXjX=XQ.=.A I _ [ I y u w 8 y I Y S.D.[ Y #.u u [ _ ",
"n.o.Y i Y p Y E _ I 9 I Y _ y _ Y t p 8 , Y.XXuXNXBXNXbXbXnXnXnXnXbXbXnXBXNXmXjX0XoXT.F u _ ' I y Y _ I y Y ] s.S.Y 1 1 9 U U #.",
"x.{ d a a Y U p E u u Y Y Q t E a y i 9 , [.pXsXjXcXcXcXMXBXBXBXBXNXbXcXbXlXjXfXaXpX.X-.U i p Y E Y i i a ' E E ] o.1 7 S q 1 4 ",
" .[ _ I I a R E ' a y I o.a.i Y y i I 9 l |.aXiXqXgXzXvXbXNXNXNXNXMXbXzXhXsX0X8X0XaXoX-.u Y _ y.a.@.I p p Y E s p 9 7 q U U 8 8 ",
"R U i u p E i _ { E I #.c.$._ P P y I w c |.aX8X6XpXgXzXvXcXlXlXlXlXzXhXfX8X+X+X6XpXoX-.S U o.o.d.A.Y i E i 9 y p r 8 P 8 q 7 r ",
"K r p P _ _ ' ' E i ' s.$.o.( I u p u 9 l |.aXpX0XaXgXzXvXzXeX%X%XeXkXhXfXpX0X0XiXaXoX;.r [ S.o.i.G.#.f.H.i.t u w U 5 r S q 5 p ",
"U 9 9 r y _ _ i.i.s v.D.p I a.c.o.[ p w l |.aXiX0XsXgXzXzXkX%XF F @XdXhXfXsXsX0X0XaXoX;.8 _ G.o.#.C.o.m.g.m._ P Y u 9 Y r 4 8 p ",
"P u u 9 p Y _ X.[ { [ Q u a.v.v.f.i._ r , |.aX=X&XdXhXgXhXdX$Xk k '.dXhXfXgXdX&X&XiXoX;.w Y ' R o.c.s.F.s.s._ p u Y _ Y r r r y ",
"P y w Y i Y ' _ ) X.o.o.v.L.a.' _ [ _ U l |.aX|.(.*XrXqXdXdX$Xk k '.yXdX0XrX7X(.{.9XoX;.r Y _ _ o.a.a.S.i.d.' E Y I .. .R 8 w u ",
"R 9 w Y E ` { E $.n.a.d.d.:Xo.] P p U 7 , |.aX[.&.-._.&XrXyX#X> > ~.yXtX&X'.4.V /.9XoX;.8 ( ' s.Y [ a.' #.V.s.t.o.v.G.L.$.u r 9 ",
"@.r y u Y { ` ] x.P.o.[  .o.c.G.U 7 7 1 > |.aX[.k   x T.#X$X!.* * -.$X$XW.F X   /.9XoX-.& 8 8 U I i.' p Y _ E Q C.A.c.c.D.P [ o.",
"O.Y p ( [ { s.i.o.o.Z.;Xa.i.c.X.4 # . . - |.aX.X:.- - l V F l X X > F F z - - x [.iXoX&.. % % 4 s.f.y p y 9 ) b.A.A.D.) c.c.o.o.",
"^ _ Y R [ ' o.S.o.) J.4X[ #.%.8 7       - |.aX-X|.&.$                       x [.-XpXoXC     @ 1 _ _ p Y E 9 $.o.A.c.A.R d.%.U ) ",
"Q I _ ) Y a.x.X.D.Q :X,XJ.b.Y y q   + + - [.iXaX9X/.:.x f O         X ; x &.^.-XpXiX.XC + + O & p y Y ( I w $.D.v.o.d.a.o.[ Y p ",
"R Y Y ' o.c.K.:XJ.,X1XJ.<X+.q 6 , = g g - Y.XX8XiX-X&X{.2.x *     o k ,.`.oX-XpX9XXXT.x f g : , 6 0 I o.u p $.a.' c.o.d.) p I u ",
"T p r a.a.X.K.4Xb.:XX.R ) P G &.&.*.n v f n Y.oX9XaXpX7X&X'.-.o o V ~.$X7XpXaXiXOXQ.N j j v &.*.=.G T _ u Q p f.s.[ Y d.P P P p ",
" .U ) a. ._ %.1X,XK.J.o.} Z 2.`. X`.,.z v v x T.XX9XsXdXdXrX'.> > !.eXdXkXsXpXXXQ.M z v z &.). X}.W.G S n.L.[ d.p.' ' v.Y U u u ",
"Q ..o.$.a.D.i.b.c.J.:XP G 2.}.6XwXwX&X^.M v M *.T.|.7XdXhXsX#X> > ~.tXhXhXqX.XT.=.N n M T..X7XwX6XXXE.5._ i.S.f.m.r.L.D.Y y 9 y ",
"U U d.X.b.4X<Xo.a.a.X.& =. X8XsXhXzXsX=X&.N E.M $   /.9XfX9X[.; ; T.9XfXaX[.-   n T.=.:.oXsXzXzXsX0XXX2.& t.g.F.H.F.H.f.f.$.Y e ",
"R  .{ X.d.:X$.v.i.o.Y 6 =. XwXdXzXzXkXrX].<.N *.T.|..X|.[./.:.$ $ C /.[.[..X.XT.=.N ,.`.7XhXzXzXhXtXXX2.& t.g.H.U.H.s.i.$.G.$.I ",
"@.1Xn.v.a.f.v.' o.i.X.S ;.].wXhXzXzXzXdX2XE.- *._.=XOX/.Y.1.x X X h :.Y.Y.oX=X{.,.f 2.XXtXzXzXzXzXtX X2.1 t.e.m.U.S.s.D.x.c.P.K.",
"x.a.x.D.a.s.F.g.s.s.C.b.| 2.&XsXzXzXgXrX2XE.$ f *.{.oX=X-X=XT.- - 1.oX-X-XoX{.,.z * 2.XXqXgXzXzXgX6X2.~ ] g.e.I c.U.s. .7.7.J.8.",
"v.D.c.n.D.s.H.F.s.g.L.,X+.G ^.=XtXdXrX6X{.,.+ h M ,._.oX=X.XT.h j 1..X=X=X[.<.*.z * &._.=XqXsXtX6X[.F P g.F.m.o.a.L.U.a. .$.} X.",
"x.C.c.G.H.S.m.g.s.S.G.P.o.6 x 2. X2X2X{.&.f + *.,.M &.:.1.:.*.N N *.:.1.1.&.M ,.*.; - &._.XX2X XT.V % 9 s.V._ I y X.A.A.@.A.b.$.",
"a.s.n.f.S.s.[ f.S.i.s.G.D.' 6 l =.W.E.2.;   + =.Q.[.[.[.[.[.|..X.X|.|.[.[.[.[.Q.,.f   - =.E.W.2.z 1 w Y o.Y r w I $.+.J.K.@.X.a.",
"D.C.G.f.C._ Y S.n.c.v.C.S.#.K & ; z z f O   + =._.=X8X9X9X9X9X8X8X8X9XiX9X8X=X{.,.;   X ; z z f % q [ o.' u 9 9 U a.@.c.K.c.X.c.",
"D.a.o.X.A.o.e V.C.o.o.c.[ P L 3             X n E.XX8XaXfXaX8X=X=X8XaXfXaX8XXXQ.*.-             # q u ( _ y p Y y c.%.X.) b.) %.",
"a.G.c.c.d.Y e #.v.D.,XP.c.Y m 3 l x : +       j N R.|.8XiX8XXXQ.Q.|.8XiX0XXXE.=.v +     + - z z % 1 P Y ' { t I ) L.A.7.S U Y ( ",
"n.d.d.@.( u 8 [ x.J.,X6 < 1 m b 2.W.=.j +     = f z Y.{.XX{.T.M M <.{.XXXXT.n g = X   O g *.T.T.n 1 p Y C.m.s.u Q H.D.) Y p a.i.",
"A.i.f.G.%.#.r r 1XP.@.1 4 1 m N ). XW.=.=           z =.<.,.n : : v ,.<.<.x X         = M E.`.`.*.2 u #.i.f.S.i.9 v.L.x.a.o.[ s.",
"c.a.d.d.o.a.) #.#.a.[ ' ) 6 b ,.`.XX}.W.l   O + $ O = f h z v v v v z h h - O + + O   l 2.}. X}.2.n 0 [ i.i.S.S.a.Y L.L.$.A.( d.",
"a.d.[ o.i.Q r [ _ #.a.d.Y Z 1.|.=X6XXX).z = g v n j : O   + j n n v =     = g n v g = z W.XX5X5X.XT.l ) i.E f.H.o.w D.P.v.' _ d.",
"A.A.c.o.1X4Xr ) o.7.n.' X.G |.9XaX0X5X`.x g B <.R.=.v - O = j n n v = X $ v B R.<.=.v v (.2X0XaXpXoXF  .S.i.s.F.s.R D.D.X.c.#.D.",
"$.a.D.K.1X,XU $.t.o.7.a.%.;.$XrX7XoX7X3X&.*.).Q.E.R.<.=.N v g g g g j n =.<.R.E.Q.).,.-.$X7X&X=XrX-XF R P.G.L.,XP 9 c.A.@.c.o.f.",
"c.X.v.a.:XJ.K.:Xf.v.$.a.7.5.%XyX%X4.eXeX-.T.XX}.).Q.Q.Q.R.B j X O : N <.Q.Q.Q.Q.}.XX).2.*XeX@X'.yXeXH w v.H.U.,Xo.o.F.L.D._ o.s.",
"v.a.[ #.o.n.J.7.o.o.x.X.} 5.%XyX7X_.'.4.x _.0X5X X}.}.}.).T.n O O j <.Q.}.}.}.}.XX8X.X:.4.~.].2XyXeXH P i.v.U.P.a.S.L.P.L.o.a.#.",
"x.y.$.D.S.H.y.d.s.c.v.%.' 5.@X3X%XW.&.> > ^.=X5X5X5X+XXX`.<.z X X h ,.{.5X5X5X5X5X=X_.&.c 3.(.#X3X3X| o.i.i.o.H.p o.o.@.c.o.o.' ",
"x.7.a.o.a.C._ s.o.@.o.@.J.} J -.F z : # & x :.=XpXaX8XXXW.n $     + x [.pXaXpXpX=XT.F J ~ q.~ F ;.3.o.d.f.#.D.i.' i.C.$.d.a.o.v.",
"P.J.d.o.' o.$.C.D.S.o.' o. .A % % , % . # % ; /.oXoX.X).=.;         - Y.oXoXoXoX[.;.A | 6.k.j.K m 0.s.S.v.$.J.X.Y _ o.+.X.o.v.f.",
"y.a.d.o.' d.D.o.A.A.d.c.s.t.j.0 6 Z & . . # # F ,.!.2.F ; O         X h &.2.!.1.&.J J | 6.k.k.L m k.D.i.o._ r #.$.Y R u ) o.d.s.",
"n.@.o.a.[ o.8.$.v.m.L.v.a.c.B.w.! q.K & 1 % % c 2.$X@X-.: O           = v '.%X4.c Z Z J 5.q.k.m 0 k.a.[ [ n.Q R w U Y r o.s.v.S.",
"v.[ o.c.%.X.X.n.D.G.A.n.a.@.I.M.z.B.z.L W t % c (.7X*X(.v $         X j =.*XeX(.n : 2 J J m 0.3 2 j.o.c.' d.[ y 9 U p Y w o.i.#.",
"$.a.f.) X.c.b.n.s.$.c.n.@.X.c.A.@.r.w.z.u.W # v ,.].].E.N -         + n R.].].2.v = , Z J m m % 2 j.v.Y 9 u ' o.y ) p [ v.f.i.Y ",
"a.i.o.[ +.) %.%.c.c.a.o.' ) $.X. .R T ^ I u # n =.<.E.Q.,.f         * *.).E.<.,.n - # Z J 2 , % 2 w.D.f.Y Y @.@.7 I y ` s.i.v.m.",
"v.i.a.d.#.{ o.c.$.[ o.x.c._ U [ ) @.9 q 6 & = N R.).`.`.2.h         - ,.}.`.).E.=.: # , Z Z 2 , 2 ! [ R U Y _ s.p.p.{ { f._ #.i.",
"m.{ f.f.#.' X.X.R ] ` _ s.f.X.#.S S R A c f g N ,.E.W.W.,.z =     + g =.W.(.W.<.*.z : g c Z Z Z A q.a.u Y o.s.e.e.f.{ { i.o.#.F.",
"@.v.a.a.o.c.' ( o._ i ( _ o.} } q q 2 : v N B M &.&.&.&.M v :     = v M &.&.&.&.&.N N v g : Z Z D q.c.] r %.( { t.e.` D.X.c.o.v.",
"b.C.v.a.s.R Y o.t.t.a _ f.Z.P.b.) U 6 : n <.).{..X.X.X.X_.*.f     : N T..X.X.X.X|.).<.N g % Z J T h.b.v.Y q R r p o.i.i.t.v.i.f.",
"7.( ' s.o.C.d.d.i.' i e.a.X.R p Y [ 2 : n E. X6XiXpXpX9XoX,.:     = N {.iXpXpXpX8XXXW.*.g , Z J ~ z.U.v.Y X.p r 8 a.e.] a.a.f.i.",
" .[ d.d.d._ [ Y ` s.s.s.@.b.R y u ) U S c v =.Y.^.^.^.T.:.z +     O f &.^.^.^.^.Y.,.n l , J J ~ w.N.D.f.v.( Y U 7 P i.t.s.D.$.o.",
"n.c.C.i.[ X.[ c.X.@.@.$.$.+.$.o.y ( 8 ) q 6 2 , * * * $ o X           X * * * * * % % 6 D 5.~ ! j.l.c.o.o.) y r 7 ) ] ] @.x.$.m.",
"~ c.p i.i.i.o.o.b.7.w ) @.Y U A.' Y X.) v.] [ 7 .                               % 2 A 5.9.n.5.h.z.l.} I.i.9 p 4 w { i.i.s. .c.i.",
"} 8.v.{ .._ o.o.X.R Z U X.) #.r 8 p r X.a.{ ] [ r q S w 7 S 1 w r w w r r T K L L L D 6.9.J.| ^ z.b.x.v.[ w ) ' u X.d.o.c.a.v.a.",
"%.+.+.x.s.a.c.R P 1 q q ) p o.8 Y Y R R C.F.r.o.Y { { ' { t.a.o.o.t.i.o.[ i.p.M.w.w.~ 5.5.5.^ h.z.O.+.@.n.c.Y s.u o.[ X. .C.a.[ ",
"D @.R ^  . .7.7.) w D +. .$.x.t R P R R  .D.D.n.O.v.o.s.t.s.y.p.i.m.m...a.y.o.b.r.u.l.| / | z.z.M.6. . .b.v.v.o._ a.O.x.@.x.J.+."
};
