/* XPM */
static char *_51fdade88f9478df492144e25fb9055R8n2dmMxZ91MyFvI[] = {
/* columns rows colors chars-per-pixel */
"64 64 243 2 ",
"   c #130E09",
".  c #13120D",
"X  c #161614",
"o  c #181817",
"O  c #171718",
"+  c #19191A",
"@  c #231F1E",
"#  c #2A251E",
"$  c #1D1C23",
"%  c #191B27",
"&  c #211C25",
"*  c #241E2A",
"=  c #281F2D",
"-  c #2C1F32",
";  c #1B2228",
":  c #27232A",
">  c #312E2B",
",  c #3C3429",
"<  c #272432",
"1  c #2A2434",
"2  c #2C2839",
"3  c #32263B",
"4  c #342938",
"5  c #3C3435",
"6  c #402E1B",
"7  c #453928",
"8  c #443B2D",
"9  c #453C36",
"0  c #4D422E",
"q  c #55462F",
"w  c #4D4234",
"e  c #4B423B",
"r  c #524534",
"t  c #554A35",
"y  c #5C4D36",
"u  c #52453B",
"i  c #554C3C",
"p  c #5C4E3A",
"a  c #5B5137",
"s  c #5D523B",
"d  c #614E38",
"f  c #635437",
"g  c #63543C",
"h  c #69563D",
"j  c #65593E",
"k  c #6A5A3E",
"l  c #715D3F",
"z  c #6F603F",
"x  c #352C44",
"c  c #3A2B44",
"v  c #3C2D4A",
"b  c #2C3046",
"n  c #37344A",
"m  c #3E3453",
"M  c #383A54",
"N  c #44364A",
"B  c #432F50",
"V  c #433354",
"C  c #473859",
"Z  c #443B5C",
"A  c #463D61",
"S  c #4B3E64",
"D  c #513D66",
"F  c #35414E",
"G  c #3C4859",
"H  c #3D4465",
"J  c #4D4547",
"K  c #574B45",
"L  c #5D5343",
"P  c #5D544A",
"I  c #474455",
"U  c #4A4F5C",
"Y  c #595356",
"T  c #645541",
"R  c #6A5743",
"E  c #655A43",
"W  c #6C5C43",
"Q  c #65564B",
"!  c #655B4B",
"~  c #6C5D4A",
"^  c #715E44",
"/  c #715E4A",
"(  c #685D53",
")  c #6E6146",
"_  c #6D624B",
"`  c #736246",
"'  c #7C6547",
"]  c #73634B",
"[  c #7A664C",
"{  c #766A4E",
"}  c #7C6A4D",
"|  c #6D6353",
" . c #6D6757",
".. c #746552",
"X. c #7B6652",
"o. c #756A53",
"O. c #7B6C53",
"+. c #796558",
"@. c #756D5B",
"#. c #7C6D5A",
"$. c #7D7155",
"%. c #7D725B",
"&. c #79745A",
"*. c #454666",
"=. c #4A4564",
"-. c #4D436A",
";. c #4B4B6A",
":. c #52486A",
">. c #475267",
",. c #5A5868",
"<. c #4A4D74",
"1. c #534672",
"2. c #534B73",
"3. c #594C79",
"4. c #4C5478",
"5. c #58567B",
"6. c #635B6F",
"7. c #4E6275",
"8. c #55657C",
"9. c #6D6A69",
"0. c #7D7362",
"q. c #787465",
"w. c #826B4D",
"e. c #806753",
"r. c #826D53",
"t. c #826E5A",
"y. c #837255",
"u. c #897456",
"i. c #807857",
"p. c #83745B",
"a. c #89755A",
"s. c #85795D",
"d. c #8B7B5D",
"f. c #937C5D",
"g. c #816F63",
"h. c #837562",
"j. c #897762",
"k. c #857A63",
"l. c #8B7C62",
"z. c #857B69",
"x. c #8C7D6A",
"c. c #917D62",
"v. c #907F68",
"b. c #93825F",
"n. c #8D8164",
"m. c #86816B",
"M. c #8D826A",
"N. c #928265",
"B. c #92846B",
"V. c #9A8568",
"C. c #93896C",
"Z. c #9A8A6C",
"A. c #8C8572",
"S. c #948B74",
"D. c #948976",
"F. c #9B8C72",
"G. c #9D937A",
"H. c #A18D71",
"J. c #A29377",
"K. c #575686",
"L. c #5C5482",
"P. c #525B86",
"I. c #575A89",
"U. c #635B8A",
"Y. c #645888",
"T. c #675E93",
"R. c #5C6888",
"E. c #5D7288",
"W. c #5A6294",
"Q. c #5C669A",
"!. c #66658D",
"~. c #637282",
"^. c #6B6494",
"/. c #676898",
"(. c #71649A",
"). c #726B9D",
"_. c #6A7897",
"`. c #5F6AA0",
"'. c #686BA4",
"]. c #746DA6",
"[. c #6973AA",
"{. c #7775A9",
"}. c #6D79B4",
"|. c #6D78B5",
" X c #7979B5",
".X c #737DBC",
"XX c #7A7EC1",
"oX c #827BAA",
"OX c #6B829B",
"+X c #7588A9",
"@X c #748CAD",
"#X c #7685B8",
"$X c #7C97B9",
"%X c #7481C1",
"&X c #7B82C4",
"*X c #7C88CB",
"=X c #7E95C6",
"-X c #7E8CD1",
";X c #998B82",
":X c #9B9685",
">X c #A59B88",
",X c #A9A38D",
"<X c #A9A592",
"1X c #868DA5",
"2X c #8085BA",
"3X c #8296BC",
"4X c #85A2BF",
"5X c #B9B6A8",
"6X c #8589C9",
"7X c #8797C8",
"8X c #868DD4",
"9X c #8592DB",
"0X c #8A96D9",
"qX c #929AD5",
"wX c #87A5C8",
"eX c #8BA4D5",
"rX c #93A9D9",
"tX c #8FB1D5",
"yX c #94B6DB",
"uX c #A2ACCD",
"iX c #8A96E2",
"pX c #8C9AE5",
"aX c #8C9BE8",
"sX c #93A6EA",
"dX c #91A5EC",
"fX c #9AB7E9",
"gX c #99B3F3",
"hX c #9DBBF3",
"jX c #ACB6EB",
"kX c #C0BECE",
"lX c #9EC2EE",
"zX c #B2CAEE",
"xX c #A2C4F4",
"cX c #A5CAF5",
"vX c #A8CDF7",
"bX c #A7D0F8",
"nX c #A9D1F8",
"mX c #B6D5F8",
"MX c #D3D7EC",
"NX c #C3DDF8",
"BX c #CCE1F8",
"VX c #D9E7F8",
"CX c #E3EBF7",
/* pixels */
"P i p.p.p.0.t./ Q ~ K @.q.| Q R R ..Q ~ ~ a.x.#.t.x.t.j.D.x.e.O.e.u.a.X.O.A.;Xt.l.u.t.X.X.X.~ X.j.#.#.| l.F.t.O.t.t.O.%.Z.M.z.P ",
"Q t ] ) o.o.$.` W W p s w q T a R W ] g g ` c.y.O.$.j R A.p.' ] W [ R p ~ Q #.O.} w.} r.} k k ^ o.O.` } u.a.N.Z.F.X.O.O.` a.%.&.",
"h.O.a.o.a.N.r.` ` f y t q f ` $.s.$.k.W R O.O.] [ N.y t r s f f j g p p p R T { } r.r.} ` ^ ` R ~ _ s.d.d.} #.{ p.n.N.d.y.O.%.o.",
"t.O.O.o.{ g ` W [ f g a j / W $.{ p.y R W ` R ` } ` r 5 > 5 5 9 K 9 > , 9 p E j R N.a.w.y.} ^ R y t d O.y.a.~ ] W j.l.p.' O.p.O.",
"O.a.O.M.W W g W ` } ` j ) ^ j R j W ` R ` W W p E L N C -.5._.OXOXR.;.Z N 9 7 0 O.y.} w.w.w.` g R d W W [ r.%._ N.a.y.V.O.l.k.{ ",
"] W y.^ g f f W ^ } ` ] W ` ^ ` W ' ` j ` ` E ( J U 5.^.].3XyXfXyX7X{./.L.=.N e R w.w.y.w.} ` R W s p R p.l.! _ p.[ ] j.h.%.D.O.",
"p.j j f ` W j W ^ ^ g W W W ^ / ` ^ ` E ` r Y 5._.@X7XwXrXfXcXnXvXfXrXwX7X}.W.:.K ^ y.y.y.` W j j f j y o._ R ) ] x.%.%.x.Q @.%.",
"p.v.d.` R ` R k ` W f ^ ^ ^ [ [ [ O.W W s J ,.1XuXzXzXcXcXcXvXnXbXvXcXzXzXjX7X).2.J O.d.y.[ R g f g g j p f j { h.p.o.0.x.C.O.` ",
"x.l.` j W } ] W R j h ^ k y.^ [ { { W s e :.oXkXMXVXNXnXnXnXnXnXnXnXmXBXVXMXjX8X'.2.J W ` [ / f f j f g f ` ] R p...$.%.%.F.%.p.",
"N.F.z j / ^ f R W a j j W ` ` ] h E g r N I.7XMXCXVXNXmXmXNXNXNXNXmXmXVXCXVXNXsX*X/.=.w ` ` { R f g p t f R W N.B.{ W $.g g { ` ",
"x.O.W h W j W ^ ` R y R W ` f ` W y g 8 *.}.pXjXzXmXmXmXVXCXCXCXVXNXmXmXmXjXgXdXiX&X4.u ` [ ] R f W ] R f W [ a.N.W 7 8 y E E $.",
"h.} z k k W E j ^ g g W R / p ^ h f j r ;.#XpXpXsXhXcXmXBXVXVXVXVXNXnXxXgX0X0X0XpX-XP.i } h j R ^ W h h k ] ^ ^ [ O.8 r L i 8 0 ",
"..{ ` R R k ~ ^ ] k f R O.p.h W f h j w ;.%XiX8X0XsXhXnXmXmXzXzXzXvXcXgXpX6X6X6XiX-XP.u ` W ` t.p.O.R j j ^ ^ l j y r t E ! t t ",
"~ ! h g j ^ h ` } ^ R $.k.%.` T T f R r ;.%XpX0XiXdXhXbXbXlXwX$X$XyXxXgXaX0X8X0XpX-XP.u { W O.O.s.M.~ h ^ h y d j s r T t i r s ",
"L s j T ` ` ] ] ^ h ] a.%.O.) R g j g r ;.%XpXiXpXsXhXcXvXyXE.G 7.wXxXgXdXsXaX9XpX-XP.i ) O.N.O.y.C.$.d.Z.y.d g p R q s L i q j ",
"E y y s f ` ` y.y.l l.B.j R p.j.O.{ g r ;.%X9X.X7XfXhXhXxXtX8.% G wXlXgXgXfXeX.X8X-XP.L j { C.O.$.n.O.c.f.c.` T W g a W s 0 t j ",
"T g g y j W ` o.{ } { / g p.l.l.j.y.` t ;.%X-X/._.wXeXsXhXtXR.; U wXlXsXeXeX+XR.&X-XI.Q ) ` { ~ O.j.a.V.a.a.` j g W ` W s s s g ",
"T f p R h W ] ` _ o.O.O.l.F.p.` ` ] ~ p ;.%X*XI.G 8.[.6XfXtX8.; G $XfXqX{.R.U <.%X*XI.L ) ` ` ` O.p.p.N.y.s.] ^ W R X.o.~ t p g ",
"~ y p W ^ ' } ^ %.x.p.s.s.:Xo.[ t r r , *.XX*XP.% < =.!.@X+X>.+ n _.@X_.2.x % H .X*XP.9 q a g O.W { p.] $.b.a.r.O.l.C.F.%.g s y ",
"#.s g g W } ' [ j.G.O.{ o.O.k.n.w > # @ H XX-XQ.M $ < n G G 2 O : F G M 2 $ b 4.&X-XP.: # # , E R y.] j W ` ^ / n.M.k.k.B.T { O.",
"+.W j ) { } a.y.O.O.m.;Xp.y.s.| , + o O H %XiX*XQ.M X . . . o o o X . . . < P..X9X-XP.% o O # p N.d.g j f y _ k.M.x.B._ k.k.O.O.",
"| ` W ~ { ] O.N.O._ A.5X{ $.@.0 , & = & M }.9XpX*XW.*.M <   X o o   & n *.P..XiXpX&X4.* = & # r ` ` j W ^ y %.O.M.h.M.R s.&.E _ ",
"/ R ` _ W p.j.o.A./ :X>XA.h.s 8 5 3 v 3 n W.XXiXpX-X X^.=.< + o O ; M I.{.*X9XpX6X'.*.3 v x : 5 p d W ) R p p.B.l.O.s.p.O.{ W j ",
"~ W W ] O.k.D.:XA.>X<XA.:X( Y :.:.S B c v -.^.&X9XaXpX7X@XE.F O 2 8.+X7XqXaXpX*X'.2.m c v C -.2.,.K j O.g T %.p.] j.O.s._ j R g ",
"Q j s p.p.o.D.5Xz.:X .E L I U.].{.^.;.V V m -.^.XXiXgXhXfXwX4.% G @XfXhXfXaX*X'.2.m V V *.U.{.{.^.:.L ` g / h d.a.{ R s.T T T j ",
"..E _ p.o.` &.<X>XD.z.! ,.U. X8XeX7X}.I.Z Z -.-.I.}.eXhXhXeX8.% G $XhXhXsX#XW.1.-.S V 4.[.7XeXqX&X^.6.L p.F.[ a.u.] ] l.W E g g ",
"/ X.O.%.p.B.y.z.z.A.D.e 2.{.8XsXhXhXsX}.<.-.1.Z *.P.#X0X0X%X<.% M [.0X0X*XQ.;.Z -.1.-./.0XfXxXgX0X XU.J / d.N.l.c.e.F.B.W f t g ",
"E E s.o.h.5X,XO.p.p.o.9 5. XrXxXbXbXhX7X/.2.S 1./.}.[.'.Q.P.M O 2 4.Q.Q.[..X'.3.S -.U.3XfXcXbXxXfX6XU.N ^ V.c.V.Z.V.Z.l.d.%.W a ",
"~ ..} o.s.:Xp.l.O.O.) Q ,.{.eXxXbXbXxXrX{.2.m 1.'.&X.XQ.W.4.b o < <.I.W.[.&X}.L.m *.).7XhXcXbXcXfX#X6.P } b.f.Z.J.Z.a.y.%.C.%.R ",
"#.,Xx.l.p.d.l.] O.y.%.O.( 5.&XfXxXxXgX0X{.2.2 m 5.'.XX*X*X[.*.% M '.*X*X&X}.I.Z 1 Z ).6XsXhXxXhX0X!.Y / ' f.w.x.J.N.a.B.h.z.G.D.",
"j.p.h.B.p.a.V.f.a.a.B.A._ I W.*XrXrX0X X!.Z 2 m S 2.'..X.X'.*.3 m W..X.X[.L.-.Z x n 5.{.8XrXrX7X[.;.p w.u.f.w.R h.J.d...0.0.A.0.",
"l.B.j.x.B.a.Z.V.a.f.F.>Xo.e M 5.{.2X X!.Z < n 1.3.;.<.P.P.K.2.1.2.4.P.P.4.;.2.3.C < n L.{.2X XR.*.9 y ' f.V.c.O.p.F.H.p.o.%.| o.",
"j.n.j.C.Z.N.c.f.a.N.C.S.p.E 8 x ;.5.5.I : o m L.'.}.}.}.}..X.XXX.X.X}.}.}.}.'.U.Z $ + m 2.5.3.m , T y W a.b.` R f o.M.M.#.M.k.%.",
"p.a.x.d.N.a.{ d.N.y.a.C.H.j.s : < 2 2 < O O n 3.].8XiXpXpXiX9X9X9XiXpXpXiX8X.XU.C $ o & 1 2 < : w ` [ [ O.W s p R %.@.A.D.#.o.p.",
"B.n.C.d.n.` W N.x.j.l.n.C.p.i # O o o o o O 3 -.T. X8XaXdXiX&X XXX9XaXdXiXXX(.2.v $ o o o o O + w o.O.r.] g t y E p.+.z.S.k.o.k.",
"M.p.O.o.M.O.a b.n.O.O.h.{ T w 4 Z Z x * + O : v S L. X8X8X&X/.3.U..X8X8XXXT.1.V 3 + O & 3 V Z x 9 ~ j W ` f j W f k.&.o._ k._ &.",
"p.C.k.k.s.W a $.d.B.>XG.s.W 0 Z Y.U.:.c & o $ : 3 m L.'.'.T.-.v Z I.'.].T.A 3 < & O + 3 Z Y.!.;.9 t E W ] [ d R _ F.M.0.L E W ) ",
"x.s.s.#.) g t { h.A.>Xw 6 , 5 =.^.].T.-.< X X X X * m -.1.S m c v A 1.1.Z 1 o X X X $ V Y.).].3.N 9 p W b.f.a.g / Z.B._ W j p.y.",
"M.y.d.C.%.$.s s <XG.#.7 7 4 Z I.{.oX{.5.3 + = 1 1 = < 1 3 c V C C v 2 1 < = < 1 < & : ;.).oX X^.1.n r $.y.d.N.y.y n.F.j.p.O.{ a.",
"j.p.s.s.O.p.) $.$.p.{ ] T M Q.&X8X6X XY.x 3 V S S V 1 O o 3 V D C c + X = v C -.Z c 1 2.{.6X8X*X[.*.L p.y.y.N.N.p.R S.F.%.N.) s.",
"p.s.{ O.y./ s { ` $.p.p.E >.#XpX9X8X6X/.M C 3.Y.L.1.C v 3 3 B V V c 3 x V D 3.Y.3.-.n 5.2X7X9XpX=X5.L s.y.^ d.F.O.p B.G.l.] ` s.",
"M.M.j.O.<X5Xs _ O.0.x.] | ,.=XyX#X#XeX@X>.5.(.T.Y.Y.L.3.S B x 3 3 v C 1.3.Y.Y.T.(.U.=._.wX$X+XeXeXR.L l.N.y.d.C.a.~ B.B.o.k.$.B.",
"%.p.S.S.<X>XT %.r.#.0.%.@.,.wXyX@X_.$XOX>.'. X{.(.(.(.T.Y.S 3 O < C 3.T.(.(.(.]. X{.4.E.$X+X_.tXtXE.K p.G.B.D.>XT y k.M.#.k.O.d.",
"j.o.l.p.:XA.S.:Xd.l.%.%.@.6.4XyX3X/.8.U >.}.8X2X X{.{.].T.1.x X < S Y.]. X X X X6X&X5.G 7.!.+XtXtX~.L ^ l.Z.J.>XO.O.V.F.B.` O.a.",
"l.p.{ $.O.x.A.0.O.O.j.o.o.q.1X@X_.6. .q.9./..X6X8X8X6X{.Y.A 1 o : m I..X8X8X8X6X&X'.,.u K ,.!.+X+Xq.O.O.y.l.J.G.p.N.F.G.F.O.p.$.",
"h.t.%.B.N.Z.t.s.a.s.l.&.O.@.9.,.Y P o.&._ 9.R.&X9X8XXX).;.1 $ O + = <..X9X9X9X*X/.:.K j ` L J Y 9.k.N.c.y.y.O.Z.j O.O.#.k.O.O.] ",
"g.0.p.O.i.n.` a.o.#.O.#.D.o.~ _ T T x.) { @.6.R./.Q.I.:.n + o O o o n P.Q.Q.`.Q.,.~ O.d.O.j W O.[ [ y.d.d.$.B.y.] y.n.%.s.p.O.l.",
"G.A.s.O.] O.%.n.B.N.O.] #.o._ $...T O.s.] s.P I 4.R.4.n * O o O O o * x >.R.8.I Q O.d.f.u.a.Z.B.a.W d.N.l.%.A.o.W ` O.@.@.O.l.d.",
"t.p.s.O.] s.B.O.M.M.s.k.a.r.k.o.f ~ { _ { s 9 C _.7X+X=.- O O O O o * B _.3X+X:.9 Q %.N.d.l.n.N.r.^ B.y.O.` s @.%.R ~ g _ O.s.a.",
"x.#.O.p.{ O.0.%.l.c.F.l.p.k.B.p.W ) $.o.O.t 4 C _.3X+X3.c + o o O o 3 -._.3X+X:.4 9 { d.B.j.N.F.j.` p.{ { x./ ~ p E W s O.a.l.N.",
"l.{ O.k.&.o.o.x.B.C.M.x.p.#.F.k.o.p.j.E  .t 4 C 5.!.^.L.V $ o o o o x 3.T.!.Y.D c 9 k.C.t.[ t.t.p.N.O.k.] s.{ f y j j W p O.y.$.",
"%.a.d._ o.z.k.x.a.%.j.x.#.o.s.m.@._ ! ~ i 8 c 1.Y.T.(.^.=.$ o o O o m Y.(.^.Y.3.m 9 i @.C.r.W O.o.N.l.E y g ] O.f _ j { l.d.y.W ",
"p.y.O.{ @._ &.&.k.k.p.O.] _ %.o...~ L K 5 4 v 1.Y.^.).^.=.< + o O & V Y.).).T.3.C 2 4 L p.O.o._ O.l.B.d.W R #.#.r R f ' a.y.l.c.",
"l.y.p.s.$.{ O.k.%.{ O.h.k.` E { _ ..8 5 B V V C =.:.2.;.Z c * O & 3 V -.2.2.-.Z V V B N Q ( ~ ! o.p.{ ~ E W ` a.u.u.} } d.` $.y.",
"c.} d.d.$.] o.o.~ [ ' ` a.d.o.$.L u 9 v C 3.L.I.W.W.W.I.2.V < o & v -.K.W.W.W.I.I.3.D B 5 ! | E { p.p.g R O.a.w.w.d.} } y.O.$.V.",
"#.l.p.p.O.k.] ) O.` h ) ` O.| | i u 5 c -.U.{.&X-X-X-X%XT.C < o & v 5.}.*X-X-X*X X^.3.B 5 P o.] #.O.j.[ s &.) } r.w.' B.@.j.O.l.",
"z.n.l.p.a.~ W O.r.e.k ` d.m.G.z._ P K J C 3./.}..X.X.X[.K.v * O $ 3 -.'..X.X.X}./.L.Z N K L _ @...@.k.l.W i ~ s j O.y.y.r.l.y.d.",
"0.) ] a.O.n.s.s.y.] h w.p.o.~ j W o.L w 9 N I G H H H M b * + O O & 2 M H H H *.I J 9 u _ ~ E 0. .j.J.l.W o.j s t %.w.} p.p.d.y.",
"o.{ s.s.s.` { W ' a.a.a.#.k.~ f f { _ ] T p r > X X . X o o O O O o o X X X X # t ~ W { { E s | @.x.B.d.l.) W E q E y.r.d.B.%.O.",
"x.j.n.y.{ o.{ j.o.#.#.%.%.@.%.O.f ) y o.O.} W t 7 7 8 , , 7 8 8 7 7 8 8 8 9 8 w R O.W } d.} o.#.( 0.z.O.O._ g s w ] [ [ #.h.%.c.",
"( k.j y.y.y.O.O.k.0.p _ #.W E M.] W o.{ V.y.r.` j ~ g E _ { _ W ` o.W ~ o._ ] W y.r.f.} O.} { %.@.q.| H.y.t j 0 p } y.u.a.o.k.y.",
" .0.l.} X.` O.O.o.~ K ! o.) $.s t j s o.j.r.} d.y.O.p.y.} p.W y.a.u.u.y.u.x.O.N.r.[ [ [ [ a.O.O.0.k.0.l.{ p _ ] g o.s.O.k.p.l.p.",
"%.@.@.h.a.p.k.~ T 8 i i _ j o.t W W ~ ~ n.V.e.r.` y.y.} r.u.c.p.y.u.d.y.w.d.f.B.O.r.u.y.} } O.$.%.o.@.+.x.j.W d.g O.{ o...n.p.{ ",
"P #.~ | ....0.0._ p P @...%.h.d ~ T ~ ~ o.B.B.x.+.l.O.a.r.a.t.u.y.c.c.X.p.t.O.j.X.r.u.X.^ R #.h.z.@.| ..l.l.x.O.` p.+.h.#.g.A.@."
};
