/* XPM */
static char *_a9e2fa036cf4cda9684ff201e58be7dkLFAsiWz6jMtleSb[] = {
/* columns rows colors chars-per-pixel */
"64 64 239 2 ",
"   c #191919",
".  c #221E1C",
"X  c #26231E",
"o  c #1E1B22",
"O  c #221D25",
"+  c #241E2A",
"@  c #262425",
"#  c #2B2421",
"$  c #2C2B2B",
"%  c #342A26",
"&  c #3B3329",
"*  c #38332A",
"=  c #2A2333",
"-  c #2A2837",
";  c #32253A",
":  c #322A3F",
">  c #2D343E",
",  c #3A3736",
"<  c #422C1A",
"1  c #443B2C",
"2  c #48392A",
"3  c #4E2E33",
"4  c #473B37",
"5  c #4D422E",
"6  c #55462F",
"7  c #4E4334",
"8  c #49453D",
"9  c #524433",
"0  c #554A34",
"q  c #5C4D35",
"w  c #56493C",
"e  c #5C4D3A",
"r  c #5C5036",
"t  c #5D523C",
"y  c #635437",
"u  c #63543C",
"i  c #69563D",
"p  c #65593E",
"a  c #6B5A3E",
"s  c #6F613D",
"d  c #2D2D41",
"f  c #342B43",
"g  c #3A2B46",
"h  c #3C2D49",
"j  c #2E3445",
"k  c #383449",
"l  c #3B3855",
"z  c #412F4E",
"x  c #48364C",
"c  c #443253",
"v  c #4C355B",
"b  c #44395A",
"n  c #6B3547",
"m  c #453F63",
"M  c #4B3E64",
"N  c #513C65",
"B  c #394654",
"V  c #3D4362",
"C  c #484543",
"Z  c #4C4B4A",
"A  c #574B46",
"S  c #5A5248",
"D  c #4E4459",
"F  c #585554",
"G  c #5B5A5A",
"H  c #684745",
"J  c #7B484B",
"K  c #645541",
"L  c #695642",
"P  c #665A43",
"I  c #6C5C43",
"U  c #66584A",
"Y  c #6C5D4A",
"T  c #715E44",
"R  c #725E4A",
"E  c #7A584D",
"W  c #774A52",
"Q  c #665B57",
"!  c #745855",
"~  c #5F645C",
"^  c #6E6146",
"/  c #67614B",
"(  c #6D624B",
")  c #736246",
"_  c #7A6446",
"`  c #73644B",
"'  c #7A654C",
"]  c #76694D",
"[  c #7C6A4D",
"{  c #6C6253",
"}  c #6B665B",
"|  c #746552",
" . c #7A6652",
".. c #756A53",
"X. c #7B6C53",
"o. c #7A6659",
"O. c #756D5B",
"+. c #7C6D5A",
"@. c #7D7155",
"#. c #797358",
"$. c #7D725B",
"%. c #484467",
"&. c #4D436B",
"*. c #53436E",
"=. c #514A6F",
"-. c #505469",
";. c #474E74",
":. c #574975",
">. c #4A5377",
",. c #55537A",
"<. c #5B557D",
"1. c #516478",
"2. c #686462",
"3. c #786A65",
"4. c #7D7361",
"5. c #7A7667",
"6. c #7E7775",
"7. c #893554",
"8. c #99395E",
"9. c #874A57",
"0. c #885859",
"q. c #94585D",
"w. c #86674E",
"e. c #826C4D",
"r. c #876555",
"t. c #826D53",
"y. c #836E5A",
"u. c #94655B",
"i. c #837255",
"p. c #897456",
"a. c #807857",
"s. c #83745B",
"d. c #8A765A",
"f. c #85795D",
"g. c #8B7B5D",
"h. c #91765A",
"j. c #947C5D",
"k. c #964C61",
"l. c #995764",
"z. c #A44A64",
"x. c #B4476D",
"c. c #A75667",
"v. c #B6526F",
"b. c #8A6B66",
"n. c #9A6766",
"m. c #837561",
"M. c #857A63",
"N. c #8B7C62",
"B. c #887866",
"V. c #8C7D6A",
"C. c #917D62",
"Z. c #987969",
"A. c #947475",
"S. c #A46368",
"D. c #AA7273",
"F. c #C5617D",
"G. c #93825F",
"H. c #8D8164",
"J. c #86816C",
"K. c #8D826A",
"L. c #938265",
"P. c #9A8567",
"I. c #92846B",
"U. c #93896C",
"Y. c #9A8A6C",
"T. c #8C8574",
"R. c #948B73",
"E. c #958876",
"W. c #9B8C72",
"Q. c #9C937A",
"!. c #A28D73",
"~. c #A29377",
"^. c #5A5181",
"/. c #595887",
"(. c #64558A",
"). c #645888",
"_. c #685C94",
"`. c #5E6883",
"'. c #5B6292",
"]. c #5F699E",
"[. c #67628C",
"{. c #666698",
"}. c #6E6E9B",
"|. c #6969A3",
" X c #6E71A6",
".X c #7876AB",
"XX c #6C77B3",
"oX c #7679B8",
"OX c #7C7EC2",
"+X c #817C9F",
"@X c #817AB4",
"#X c #827EBA",
"$X c #6B849E",
"%X c #778DAE",
"&X c #7C85C8",
"*X c #7D8ECD",
"=X c #998B82",
"-X c #9B9684",
";X c #A38585",
":X c #A59B89",
">X c #A9A592",
",X c #8992BB",
"<X c #A19DB2",
"1X c #B9B6A8",
"2X c #8689C7",
"3X c #8996C5",
"4X c #828CD3",
"5X c #888ED3",
"6X c #8795DA",
"7X c #8A93DC",
"8X c #939ADB",
"9X c #87A5C7",
"0X c #8CA4D2",
"qX c #93ABD8",
"wX c #95B4DB",
"eX c #B2B3D1",
"rX c #8B98E3",
"tX c #8E9DEC",
"yX c #93A6EB",
"uX c #9AB5E7",
"iX c #90A0F0",
"pX c #98ABF2",
"aX c #97B0F1",
"sX c #99B2F3",
"dX c #9EBCF5",
"fX c #A4B7EC",
"gX c #9FC3EC",
"hX c #A1C4ED",
"jX c #B2CCEE",
"kX c #A2C4F4",
"lX c #A5CBF6",
"zX c #A9CEF8",
"xX c #A9D0F8",
"cX c #B4D6F8",
"vX c #BCD9F8",
"bX c #CBE0F8",
"nX c #D7E3F7",
"mX c #E4ECF7",
"MX c #EDEFF4",
/* pixels */
"F w s.s.s.4.y.R U Y A O.3.{ U L I | U Y Y N.D.b.D.D.n.B.E.V.t.X.t.p.f. .X.T.=Xy.N.p.y. . . .Y  .N.+.+.{ N.W.y.X.y.y.X.$.Y.K.B.S ",
"U 0 ` ^  ...@.) I I e t 7 6 K r L I ` u u E D.c.A.D.z.0.T.s._ ` I ] L e Y U +.X.[ e.[ t.[ a a T  .X.) [ p.d.L.Y.W. .X.X.) f.$.+.",
"m.X.d...s.L.t.) ) y q 0 6 y ) @.f.@.M.I I r.S.x.b.;XD.k.H u u u P K t P u I K ] [ t.t.[ ) T ) I Y / f.g.g.[ +.] s.H.L.g.i.X.$...",
"y.X.X. .] u ) I ' y u r p R I @.] s.q L I ) 0.v.l.6.A.W < % % % 1 % * e e u P p L L.d.e.i.[ T L q 9 t X.i.d.Y ` I N.N.s._ X.s.X.",
"X.d.X.K.I I u I ) [ ) p ^ T p L p L ) L ) I E 7.W S 2.D v &.:.:.=.M x 1 7 9 1 9 i.i._ e.e.e.) u L y I I [ y.$.( L.s.i.P.X.N.B.] ",
"` I i.T u y y I T [ ) ` I ) T ) I _ ) p ) ) K # .     b (.}..X.X.X_.*.      . 9 r.r.t.i.[ [ ) L I t e L s.N.P ( s.' ` N.m.$.R.[ ",
"s.p p y ) I p I T T u I I I T R ) T ) P Y 2 G ).%X9X9X9X0XqXwXwXqXqX9X9X9X%X}.<.H r.h.i.i.) I p p y p e | ^ L ^ ` V.$.$.V.U O.$.",
"s.V.g.) L ) L a ) I y T T T ' ' ' X.I I e , [.<XfXcXcXcXxXxXxXxXxXxXcXvXvXjXqX+Xk W d.C.i.' L y y u u p e y p ] f.s.| 4.V.I.X.) ",
"V.N.) p I [ ` I L p i T a i.T ' ] ] Y 9 x :.<XnXmXmXmXnXcXxXxXxXxXxXbXmXmXmXmXeX).*.9 ` _ ' R y y p y u y ) ` I s.| @.$.$.W.$.s.",
"L.W.s p R T y L I r p p I ) ) ` L U u 1 l |.eXnXnXnXmXnXxXvXbXbXvXxXbXmXmXmXnXeX.X=.% u _ ) ] L y u e 0 y L I L.I.] I @.u u ] ) ",
"V.X.I i I p I T ) L q L I ) y ) I q p 1 ;.4XyXpXpXsXzXcXxXnXMXMXmXcXxXcXcXzXfX8X@X<.% I [ ' ` L y I ) L y I ' d.L.I 2 2 q P P @.",
"m.[ s a a I P p T u u I I R e T i y i 2 >.6XrX5X5X7XaXkXzXbXnXnXbXcXkXdXdXaX7X2X@X<.% ^ t.i p I T I i i a ` T T ' X.2 9 S w 1 5 ",
"| ] ) L L a Y T ` a y L X.s.i I y i L 1 ;.*X5X#X#X2XrXaXlXzXxXxXxXlXdXiXiXrX2X@X@X<.* L [ T ) y.s.X.L p p T T s p q 9 w U P 0 0 ",
"Y P i u p T i ) [ T L @.M.$.) K K y L 1 j /.XX7X7XrXtXiXaXkXxXxXlXsXpXiXiXtXrX5X@X<.* p X.I X.X.f.K.Y i T i q y p t 0 K 0 w 9 t ",
"K t p K ) ) ` ` T i ` s.$.X.^ L u p u 1     ].tXiXiXiXiXpXdXxXxXlXsXpXiXiXiXiX7X@X<.* ^ ] X.L.X.i.U.@.g.Y.i.r u e P 6 t S w 6 p ",
"U q q t y ) ) i.i.s N.I.p L s.N.X.] p 1     ].tXiXiXiXpXkXlXxXxXzXlXdXiXiXiXiX7X@X<.% ] I ] U.X.@.H.X.C.h.C.) K I u r I t 5 0 p ",
"K u u q p I )  .] [ ] R u s.N.N.g.i.) 1     ].tXiXiXiXaXlXxXxXxXxXxXdXiXiXiXiX7X@X<.* s.) ^ ] Y X.N.s.P.d.d.) p u I ) I t t t y ",
"K y e I i I ` ) ^  .X.X.N.W.s.` ) ] ) 7     ].tXiXiXiXaXlXxXxXxXxXxXdXiXiXiXiX7X@X<.* ` ) I I ) X.s.s.L.i.f.` T I L  .| Y 0 e u ",
"Y q e I T _ [ T $.V.s.f.f.-X .' K L I 1     /.2XrXiXiXaXlXxXxXxXxXxXdXiXiXiXiX7X@X<.* L p I ) i.I ] s.` @.G.s.y.X.N.U.W.$.u t q ",
"+.t y u I [ _ ' m.Q.X.] | X.N.W.| I L 1     &.}.&X7XrXyXgXlXxXxXxXxXdXiXiXiXiX7X@X<.* ) q y u | I i.` p I ) T R H.K.M.M.I.K ] X.",
"o.I p ^ ] [ d.i.X.X.J.=Xs.i.m.#.P u y 1     : b ,.{.|.oX3XuXxXxXxXxXdXiXiXiXiX7X@X<.% I ) T u I U.g.y p y q ^ B.K.K.I.( M.M.X.X.",
"! ) I Y ] ` X.L.X.^ T.1X] @.$.t _ Y t 1         : c *.<.[.0XxXxXxXxXdXiXiXiXiX7X@X<.* ] t.T I ) t.) p I T q $.X.K.m.K.Y f.#.U ^ ",
"R L ) ( I s.m. .I.R -X:XK.B.) s g.R.3.%           o O @ = %XxXxXxXxXdXiXiXiXiX7X@X<.% ) e._ T T [ u I ^ L e s.I.N.X.f.s.X.] I p ",
"Y I I ` X.M.E.-XT.:X>XT.>X$.u ^ ` { } A     >.XX{./.:.&.&.3XxXxXxXxXdXiXiXiXiX7X@X<.X 0 p I s.N.' u I X.u p $.s.` N.X.f.( p L u ",
"U p t s.s...R.1XB.-X..Y ] I I ] @...O.4     ].tX5XoX X|.|.0XxXxXxXxXdXiXtXtXrX4X.X,.O   1 T i.j.t.R '  .u R p N.s.] I f.K K K p ",
"| P ^ s.| ) #.>X:XE.T.$.m.I I ] a / } 8     ].tXtXrX7X7X7XuXxXxXxXxXdXiX7X%X{.^.%.b z = 1 u ] i X.) d.) L.W.] d.p.` ` N.I P u u ",
"R  .X.$.s.I.i.B.M.T.:X| T i p p I / / 1 - %.{.&X*X*X4XrXtXaXkXuXwXqX0X&X.X[.&.l l v v ; 9 X.p.) e.e.j.h.d.g.L.N.C.t.W.I.I y q y ",
"U P f. .B.1X>XX.s.s.M.` I ] L L u ..S 2 l {.[.V l %._.OXtXiXyX&X{.-.V l l b <.(.(.:.v ; 7 t.e.) [ e.e.h.j.P.G.P.Y.P.Y.g.g.+.I r ",
"Y | [ ..f.-X$.N.i.X.[ g._  .| r r r L 3 j ,./.<.{.|.^./.XXXXXX/.&.&./. X/.*.(.(.*.b g + 4 ' t.y.[ p.g.h.j.G.j.Y.~.Y.d.i.$.U.$.L ",
"+.>XV.N.s.g.N.` X.i.s.N.s.X.q t y _ L 3     =..X5X6X/.j j j j j m (.OXtXoX_.(.:.@ o o   A m.y.t.g.d.e.e.e.j.e.V.~.U.f.I.m.M.Q.R.",
"m.s.m.I.s.d.P.j.s.d.I.E.N.i.f.s.y.s.U x g + k =./.|.oX*X9X9X9X*X&X4X&XoX|.(.&.c c z z = S B.Y.W.N.t.e.e.d.j.e.L m.~.g.| 4.4.T.m.",
"N.I.N.V.I.d.Y.P.d.h.W.:XI.L.U.W.y.e o %.*.h @     V oX6XwXwXwX6X4X4XoX^.^.:.k h v N N f S I.I.N.h.p._ e.j.P.C.X.s.W.~.s.| $.{ ..",
"m.H.N.U.Y.L.C.j.d.L.U.Q.V.s.i.y.1X3 @ ).}.*.g     = V >.1.1.1.>.;.;.V f f h c v N :.^.l 1 ^ i a ] g.p ) d.G.) L y  .K.K.+.K.B.$.",
"s.s.V.g.L.d.] g.L.i.d.U.!.I.N.b.E.n - %X3X}.*.o b ,.'. X$X$X$X X|.|.'.,.k + g z z M &.f 9 T L X.s.y.' [ X.I t e L $.O.T.E.+...s.",
"I.H.U.g.H.) I L.V.N.N.H.U.g.u.l.z.7.j 9XfX3X_.O ).#X7XaXlXlXlXaXiXiX5X.X:.              4 u T T s.s.X.t.` u 0 q U s.+.M.R.M. .M.",
"I.s.X...K.X.r G.H.X.X.m.` K l.c.x.8.j 9XlXuX,Xc [.#XrXaXlXxXzXkXsXiX7X.X,.+ g h h - # J E T _ I ] | K I ) y p I y M.#.../ B./ #.",
"s.U.M.M.f.I r @.N.I.:XQ.N.^ k.8.k.8.> 9XhXhX9XM )..X4XyXhXkXlXkXuXrX&X X=.; v v v h 3 c.u.w.T [ ) u P I ) ' r L ^ W.K.4.S P I ^ ",
"V.f.f.+.^ u 0 ] m.T.:X9 < 2 8.k.H n -  X3X3X X: l %.>.}.3XqXpX8X%X'.;.%.b v v c ; C W v.S.d.d.t.X.p L I G.j.d.u R Y.I.( I p s.i.",
"K.i.g.U.$.@.t t >XQ.+.2 5 2 8.9.4 , , <.{.{.,.o = ; ; %.[.XX&X X).%.f   f c c h * Z o.x.c.w.[ s.) u ) f.i.g.L.i.q N.W.m.s.X.] d.",
"N.s.f.f.X.s.( @.@.s.] ` @.] z.n 4 $ * > - - =   h v v c : j k d b ^.&.  o O O $ Z F Q c.v.u.t.i.] R s.g.i.i.L.L.s.I R.W.$.L.^ f.",
"s.f.] X.i.R t ] ) @.s.f.@.f.c.A C $ $ @         - g g ;   k =.{.oX&X{.        @ , Z Q k.v.r.f.I I [ d.g.i.T g.W.X.e I.Q.N.` ) f.",
"K.K.N.+.>X1Xt ^ X.4.V.` N.s.l.A 8 , , @   O O O       - B ^.|.4XtXtXXX  o O O o   , F ! v.u.y.p [ g.s.I.L.i.g.U.s.Y I.I. .M.@.I.",
"$.s.R.E.>X:XK $.y.X.4.s.T.I.l.w , , , X @ h c c ;     `.9X0X5XOXoXoX/.  f c c g   , S ! c.u.p.R X.X.t.g.~.U.R.:XK q M.K.+.M.X.g.",
"N. .N.s.-XT.R.-Xg.N.$.s.R.-XA.C , * $ f %./.(.*.c = O `.qXuXpX3X.X_.M   b *.*.M l k C S 9.S.d.s.X.L.i.) N.Y.~.:XX.X.P.W.I.) X.s.",
"N.s.] @.X.V.T.4.X.X.m...m.E.3.C , $ @ *.|.4X&X(.:.c = l `.9XlXkXqX[.c   *.(.(.(.(.M $ A 9.S.r.y.L.!.N.X.i.N.~.Q.s.L.W.Q.W.X.s.@.",
"m.y.$.K.L.Y.y.f.s.s.N.#.X.$.W 4 , $ o b /.XXoXOX{.*.f -.%XwXlXuX,X-.c %.|.OXOX.X_.%.@ C W c.u.Z.Z.Z.P.L.i.i.X.Y.p X.X.+.M.X.X.` ",
"m.4.s.O.a.H.) s.X.+.X.+.R...H * $ @         ].tXoX(.k }.gXlXhX%X<.f M _.4XtXtX4X_.M @ Z ! z.S.D.n.c.i.g.g.@.I.i.` i.H.$.f.s.X.N.",
"Q.T.f.X.` X.$.H.I.L.X.| +.o.H 1 , C #     @ %.].,.b - -.$X$X$X,.M *.|.4XXX].]./.m D Z G 3.v.F.l.l.x.g.L.N.$.T...I ) X.O.O.X.N.g.",
"y.s.f.X.` f.I.X.K.K.f.M.f.y.l.A 8 S * . X # X X 3 3 1 *   l ;.j f :.XX6X'.# % # $ Z G 2.3.v.F.J 9.x.I.i.X.) t @.$.I Y u ^ X.f.d.",
"V.+.X.s.] X.4.$.N.C.W.N.s.M.D.0.W 9.H * * * 2 H 0.r.X.t # ].*X/.+ f V >.l 3 3 * C G G G 2.9.x.n A z.s.] ] V.) Y e P I t X.s.N.L.",
"N.] X.M.#.....V.I.U.K.V.s.+.!.Z.n.S.n.H W J J 0.n.h.h.] # '.oX^.h b b b : 3 1 * C G F G F n 7.3 4 l.X.m.` f.] y q p p I e X.i.@.",
"$.s.g./ ..M.B.V.s.$.N.V.+. .m.K.+.r.0.b.q.n.u.u.r.p.g._ % + d c *.(.(.(.b 3 * $ C F Z F F n n * 4 l.B.L q u ` X.y ^ p ] N.g.i.I ",
"s.i.X.] O.( $.#.M.M.s.X.` / $...| Y U ! L L e e 0 e e 7 X l *.N N :.:.:.l % # @ $ , C Z Q 4 , * 4 0.I.g.I I +.+.9 L y _ d.i.N.C.",
"N.i.s.f.@.] X.M.$.] X.m.M.) P ] ( +.e S e *         O = - &.(.*.v v v v ;         $ C Z G Z 8 , 4 W ] Y U I ) d.p.p.[ [ g.) @.i.",
"C.[ g.g.@.` ....Y ' _ ) s.g. .@.S K X.S * X       + h M :.&.l f ; ; ; ; +         o * Z F Z Z C A k.s.u I X.s.e.e.g.[ [ i.X.@.P.",
"+.N.s.s.X.M.] ^ X.) i ^ ) X.{ { w S U 1           = M (..X/.l l k : ; ; +           $ C Z Z G Z S 0.N.' t $.^ [ y.e._ I.O.N.X.N.",
"B.H.N.s.p.Y I X.t.t.a ) g.J.Q.B.( ( ..w           : :..XrXOX(.(.<.N v v :           $ , , Z G G U 0.B.N.I w Y t p X.i.i.t.N.i.g.",
"4.^ ` s.X.H.f.f.i.` i e.s...Y p I X.U 7 7 #       = b /.XX'.&.&.M z h h =         * Z , 4 Q G G Q n.~.N.I ..p t 0 $.e.[ s.s.g.i.",
"o.] f.f.f.) ] I _ s.f.d.+.B.Y y u ] ( X.R 1 X X X X X X X X # # X # # # # # # @ . , S A Z 2.G Q 0.A.I.g.N.^ I L 9 P i.t.g.I.$.X.",
"V.N.H.i.] ..] N. .+.+.$.$.O.$.X.y ^ q X.X.) p I I I Y K U K Y P i K Y ( R 0.9.7 , 4 Z } } 2.Q W k.b.B.X.X.^ y t 7 ( ' ' +.m.$.C.",
"Q M.i i.i.i.X.X.B.4.e ( +.I P K.` ^  .] P.i.i.e.` X.T ' s.s.s.t.i.g.[ s.N.b.n.9.e 4 F 3.T.V.2.k.S.b.{ !.i.0 p 5 e [ i.p.s.| M.i.",
"{ 4.N.[  .) X.X...Y Z U ..^ @.t 0 p t ..N.t.[ g.i.i.N.d.[ M.I i.d.p.p.d.g.V.u.D.q.J S 5.6.T.Q W n.B.4.N.] e ^ ` u ..f.X.M.s.N.s.",
"$.O.O.m.d.s.M.Y K 1 w w / p X.0 I I Y Y H.P. .t.) i.i.e.t.p.C.s.i.p.g.i.e.g.h.Z.u.0.Y } 2.2.! 0.n.o.O.+.V.N.I g.u X.] ..| H.s.] ",
"F +.Y ! | o.4.4.( e S O.| $.m.u Y K Y Y | I.I.V.o.N.X.f.y.f.y.p.i.C.C. .s.y.t.B.r.u.b.} ~ } n.n.V.3.{ | N.N.N.X.) s.o.m.+.m.I.O."
};
