/* XPM */
static char *e4e6ea96c9904ca3c759722befd0b75as93V84k5VQB0vUDt[] = {
/* columns rows colors chars-per-pixel */
"64 64 184 2 ",
"   c #5C514B",
".  c #564C3C",
"X  c #85765C",
"o  c #7B6F61",
"O  c #836E5A",
"+  c #715E4A",
"@  c #6A5649",
"#  c #6C5D4A",
"$  c #5A4D40",
"%  c #756C5B",
"&  c #726F62",
"*  c #6D6252",
"=  c #63564D",
"-  c #695642",
";  c #665A43",
":  c #746552",
">  c #89755E",
",  c #8E7C6B",
"<  c #7C6D5A",
"1  c #8E7A69",
"2  c #867760",
"3  c #9A8C7B",
"4  c #806753",
"5  c #7B6C53",
"6  c #897159",
"7  c #7B6651",
"8  c #756A53",
"9  c #8D8473",
"0  c #9E9080",
"q  c #897960",
"w  c #897760",
"e  c #8A7A64",
"r  c #9B8D73",
"t  c #998B6F",
"y  c #8E8169",
"u  c #857869",
"i  c #554A34",
"p  c #74644B",
"a  c #6E6146",
"s  c #7D7155",
"d  c #736246",
"f  c #6C5C43",
"g  c #5C4D3A",
"h  c #5D523C",
"j  c #4E4133",
"k  c #54442F",
"l  c #5D5136",
"z  c #63543C",
"x  c #917D63",
"c  c #837255",
"v  c #65593E",
"b  c #8A8671",
"n  c #7A6346",
"m  c #76694D",
"M  c #645B4B",
"N  c #7C6A4D",
"B  c #826B4D",
"V  c #826D53",
"C  c #7B654B",
"Z  c #6B5A3E",
"A  c #725E44",
"S  c #8A7455",
"D  c #897659",
"F  c #918165",
"G  c #9C8C72",
"H  c #7D725B",
"J  c #807660",
"K  c #887858",
"L  c #635437",
"P  c #5C4D35",
"I  c #86785D",
"U  c #857A63",
"Y  c #918168",
"T  c #645642",
"R  c #6D624B",
"E  c #8B7A5D",
"W  c #8E7E5E",
"Q  c #8F8466",
"!  c #938667",
"~  c #83745B",
"^  c #4D412E",
"/  c #534533",
"(  c #8C775A",
")  c #614D3B",
"_  c #8A7D67",
"`  c #4A3E2B",
"'  c #A9997E",
"]  c #69563D",
"[  c #9A8A6B",
"{  c #86816B",
"}  c #594736",
"|  c #8B7C63",
" . c #958C7A",
".. c #7D7361",
"X. c #8B7856",
"o. c #847857",
"O. c #76715B",
"+. c #7D795E",
"@. c #907F68",
"#. c #938571",
"$. c #6E603E",
"%. c #806447",
"&. c #886C4E",
"*. c #463823",
"=. c #70613D",
"-. c #937C5D",
";. c #5D5442",
":. c #463E2C",
">. c #715D3F",
",. c #5D4A2F",
"<. c #614F34",
"1. c #614D42",
"2. c #94896C",
"3. c #51482F",
"4. c #777155",
"5. c #8D8164",
"6. c #93846B",
"7. c #9B9984",
"8. c #785E40",
"9. c #988A67",
"0. c #93825F",
"q. c #9C947D",
"w. c #796558",
"e. c #998B82",
"r. c #725F51",
"t. c #BBB5A5",
"y. c #676244",
"u. c #67614C",
"i. c #919386",
"p. c #A49D8C",
"a. c #89776A",
"s. c #948B74",
"d. c #777263",
"f. c #908778",
"g. c #9F9689",
"h. c #A19388",
"j. c #ABA893",
"k. c #8D8972",
"l. c #A5A38F",
"z. c #6F6A54",
"x. c #6E6B59",
"c. c #B7B8AB",
"v. c #9C9482",
"b. c #6B5E51",
"n. c #A9A492",
"m. c #9A8465",
"M. c #5F5846",
"N. c #B6B2A4",
"B. c #A9A38D",
"V. c #8F7A60",
"C. c #907657",
"Z. c #98805E",
"A. c #A08A6D",
"S. c #A29277",
"D. c #7E7963",
"F. c #978A65",
"G. c #998773",
"H. c #A38E74",
"J. c #969172",
"K. c #B9AC9F",
"L. c #9A856B",
"P. c #A49783",
"I. c #987D62",
"U. c #9F988C",
"Y. c #422C1A",
"T. c #463321",
"R. c #7F7A57",
"E. c #4C3B26",
"W. c #8F805F",
"Q. c #AEA899",
"!. c #9D9276",
"~. c #A7A493",
"^. c #BAB6AE",
"/. c #AC9E85",
"(. c #816F63",
"). c #887C5C",
"_. c #574C40",
"`. c #907759",
"'. c #6E6758",
"]. c #A49479",
"[. c #4F4F43",
"{. c #53503E",
"}. c #5F5050",
"|. c white",
/* pixels */
"  . X X X o O + @ # $ % & * = - ; : @ @ @ > , < O 1 O 2 3 1 4 5 4 6 > 7 8 9 0 O q 6 O 7 7 : # 7 w < < * e r O 5 O O 8 < t y u   ",
"= i p a 7 8 s d f f g h j k - l - f p z z d x c 8 s v ; b ~ 8.d Z p - g # M < 8 N B N V C Z Z A 5 5 d N S D F t G 7 5 5 d > H H ",
"J 5 K 8 D F V d d L P i k L d s I s U f ; 7 5 p C Y h h i } } } P } i h z f T m N V V C d A d ; # R I E W N < m X Q ! W c 5 H 8 ",
"O 5 5 7 m z d f C L z l v + f s m ~ P - f d - A p a ) P ` ` j . $ j ` k P ) T z z F ( B c N A - P i ) 5 c D # p f q _ ~ p 5 ~ 5 ",
"5 K 8 y f f z f d N d v a A v - Z - d - d f f i P } E.*.. b.& D.D.& b.. E.k *.E.f V n B B B d z - L f f N V H R F D c [ 5 _ U m ",
"p f c A z L L f A N d p f d A d f n d v d A ; R M.b.'.'.d.f.i.U.U.i.f.d.'.'.b.= T + N c N C d - f h g - X | M R X C p q J H  .5 ",
"~ v v L d f v f A A z f f f A + d A d ; d k ;.d.i.l.Q.Q.Q.Q.N.N.N.N.Q.Q.Q.Q.~.i.d.; A V o.d Z Z Z L v g : a - a p | H O., M % +.",
"X @.E d - d - Z d f L A A A C C C 5 f f ) / & Q.^.^.^.^.^.^.^.^.^.^.^.^.^.^.^.^.Q.& T 5 N C - z L z z v g L v m I I : .._ #.5 d ",
", | d Z f N p f - v ] A Z 6 A C m m # l k ;.i.^.|.|.|.|.^.^.^.^.^.^.^.^.|.|.|.|.^.i.;.P ] C + L L v L z L d p ; X : s H H r H ~ ",
"F r $.v + A L - f l v Z f d d p ] ; v P / d.Q.^.|.|.|.|.^.^.^.|.|.^.^.^.|.|.|.|.^.U.'.^ <.d m - L z g i L - f F Y m f s z z m d ",
"_ 5 f ] f v f A d - P - f d L a f P v k $ e.N.^.^.^.^.^.^.^.|.|.|.|.^.^.^.^.^.^.N.U.d./ ] C p - L f d - L f C K F f *.` P ; ; s ",
"J N =.Z Z f ; v f z z f ; + g A Z L Z P $ i.N.Q.l.~.Q.N.^.^.^.^.^.^.^.^.^.^.N.Q.U.i.d.i - ] v ; A f ] ] Z p A A C 5 ` / ;.. :.^ ",
": m d - - Z # A p Z L - 5 ~ v f L ] - } g f.~.~.U.U.Q.c.^.^.^.^.^.^.^.^.^.^.N.~.U.i.d./ ] A d O ~ 5 ; v v f A >.Z P / . ; M i i ",
"# M ] z v A ] d N A - s U H d - - L f } ` = u p.N.N.N.^.^.^.^.^.^.^.^.^.^.^.^.N.Q.i.d./ T f 5 5 I y # ] A ] ,.<.v h i T i . / h ",
"1.h v - d d p p A ] p D H 5 a - z v ] } T.Y.= p.^.^.^.^.^.^.^.^.^.^.^.^.^.^.^.^.N.U.d./ z 5 F 5 c 2.s E t c <.z g ; 3.h ;.. k v ",
"; P P h L d d c c >.| Y Z - X w 5 m - } T.Y.= p.^.^.^.^.^.^.^.^.^.^.^.^.^.^.^.^.N.U.d.} P m 2.5 s 5.5 x -.x d - f z P f h :.i v ",
"T z z P v f d 7 m N m + z ~ | | E 6 m l T.Y.= ~.^.^.^.^.^.^.^.^.^.^.^.^.^.^.^.^.N.U.d.. <.a m # 5 q D [ D D d v z f d f h h l z ",
"T L g ; ] f p d a 7 5 8 | r ~ p d m m T T.Y.= U.^.^.^.^.^.^.^.^.^.^.^.^.^.^.^.^.N.U.d.i <.f f d 5 I ~ F c I p A f f 7 : # i g z ",
"@ P g f A n N A H , ~ I I 7.5 C - - f k T.Y.  i.Q.^.^.^.^.^.^.^.^.^.^.^.^.^.^.^.N.U.d./ i f d 6 f m ~ p s 0.D V 5 | 2.r H z h P ",
"< h z z f N n C 2 q.8 m : 8 q r : ; f P T.Y.. D.i.Q.N.N.N.N.^.^.^.^.^.^.^.^.^.^.N.U.d./ ` L z : f 6 p Z f d A + y y U U Y - m 5 ",
"w.f v a m N D c 5 5 { e.I c J O.; z L } T.Y.E.;.x.u f.i.U.~.N.^.^.^.^.^.^.^.^.^.N.U.d./ <.A z f ! E z Z L P a U y _ 6.R J U 5 5 ",
"r.d f a m p 5 ! 5 a 9 t.m 4.+.h n # h k Y.Y.Y.Y.T._.= * d.f.Q.^.^.^.^.^.^.^.^.^.N.U.d.} - 8.f d V d Z f A P H 8 y J y # I H ; u.",
"+ - d R f ~ 2 7 #.+ i.p.y a.d =.E s.d.` T.Y.Y.Y.T.*.` j / '.p.^.^.^.^.^.^.^.^.^.N.U.d./ ] n A A N z f a ; g X ! | 5 I X 5 m f v ",
"# f f p 5 U f.g.#.h.j.k.l.O.z a p z.x.b.*.Y.j & d.'.= _.j * U.^.^.^.^.^.^.^.^.^.N.U.d./ ,.z s q C z f 5 z v H I p q s I R v - z ",
"@ v h X ~ 8  .c.a.v.z.# m f f m 4.8 % $ *.Y.= g.Q.i.b d.& u ~.^.^.^.^.^.^.^.^.c.Q.i.d.j T.^ p x V + C 7 z + v q D m ; I - T - v ",
": ; a ~ : d H n.p.f.#.H J f f m Z u.x.M E.Y.= ~.^.Q.~.U.U.p.N.^.^.^.^.^.^.N.~.i.9 d.b._.E.T.; ] 5 d D d F G C K S p p | f ; z z ",
"+ 7 5 H X Y 6 u u k.p.: A ] Z v f * u.k T.*.b.U.N.N.N.N.N.c.^.^.N.N.N.N.Q.U.b * . / _.  j E.n d B B -.-.( E F q x V r Y f L i z ",
"; ; I 7 u N.B.5 +.~ U p f m - - h 8 ;.k ^ b.D.u u u 9 i.Q.^.^.N.U.f.{ u u & b.M M M = }.j E.>.d N B B C.-.m.Z.m.A.m.t W E < f l ",
"# : 5 8 I 7.H | c 5 N W n 8 : l l l ; i ^ x.u '.= * '.& e.~.Q.U.u M .   b.  $ '.& '.M   j E.A V C S E -.-.Z.-.t S.t D o.+.2.H - ",
"< n.1 e I I | p 5 V D q D 5 P h L d v k *.. b.d.f.U.f.= = % & '.$ _.b.f.U.9 '.x.'.$ j ` T.^ + 4 E ( B B B -.B 1 S.F > 6.J u q. .",
"2 I 2 ! I D m.-.D D 6.s.| o.I c c 6.E } ^ Y.j & f.U.i.u d.d.d.d.d.{ f.U.~.f.& '.= j ` ` T.k ..r q &.B &.( -.B - I S.> : ..D.9 J ",
"| 6.q @.Y ( t F.D -.r p.Y F ! r O - k /   j *.j _.= 9 ~.Q.Q.Q.Q.Q.Q.Q.U.{ d.'.$ j _.    j / ..e -.S n B -.m.x 5 I r H.X : H * 8 ",
"2 5.q 6.t F x x K F 2.J.1 D o.H K.} E.= & = j Y.Y.Y.b.f.i.i.i.i.i.i.e.u M M.  _._.}.b.b._.` P Z m E Z d D 0.d - L 7 y y < y U H ",
"X D 1 E F K m W F c K 2.H.6.q O.k.^ ` x.f.u }.j T.` _.= = = = = = = =   / ` ` _.    b.'.$ E.g 5 X V C N 5 f h g - H % 9  .< 8 ~ ",
"6.5.2.E 5.d f F 1 q _ 5.2.E 5 R z g ^ u ~.i.d._.. & b e.i.i.i.i.i.i.e.9 d.;.T.` j j . $ j T.z A ~ ~ 5 V p z } P ; X < u s.U 7 U ",
"y X 8 8 y 8 P 0.5.5 5 J p T # m ; T ^ 9 N.Q.i.b.= b ~.N.^.^.^.^.^.^.c.Q.i.'.T.T.E.E.T.T.T.k Z f m : - f d L v f L U H 8 u.U R H ",
"I 2.U U I f l s | Y P.3 U a T z z p i 9 N.c.~.d.'.f.~.^.^.^.^.^.^.^.^.Q.i.'.E.j _._.j T.,.A >.C d z ; f d C <.- a r { ..;.; f a ",
"1 I I < a v i m J 9 U.j Y.T.. H 1 p i { Q.N.~.u b.u i.~.Q.N.^.^.N.Q.~.i.{ b.j _.}._.} <.p S ( 4 5 v - f 5.x > z # 2.! R f Z ~ c ",
"y o.E 2.R.s h h j.q.< E.^ ` i H J 8 i & i.U.i.'.j _.M.'.b U.N.N.~.f.& = $ $   }._.j z d n N N D d z d I c E F 6 P _ t 2 ~ 5 m K ",
"q ~ I I 5 I R s s I m p s m h a v.(.r.: d.D.& _.T.` j j b.u e.i.{ '.$ E.Y.j _._.i <.d E C V V c m + D E c c ! F X ; #.r H ! a I ",
"X I m 5 6 + h m d s H I s I 2 < p.Q.4.R } j j T.` _.    _./ _.    b.x.= *.Y.T.T.^ C I.C n p X f f N K W c A W G 8 g 6.!.| p a I ",
"y y q 8 ~.^.h a 5 .., p _ ~ F x v. ._ ; T.Y.Y.Y.T.j / j T.Y.^ b.9 i.U.u ^ Y.Y.Y.T.@ ] V B B V v N E ~ 6.F o.E 2.D # ! ! 7 U s ! ",
"H ~ #.s.~.p.T +.c 5 ..~ k.6.Y w y J ~ z *.T.T.T.T.T.Y.T./ = & f.~.N.Q.f.j Y.T.T.T.*.} N D V o.A 5 5 5 E S.6.G./.- P U y < U 5 E ",
"q 7 | X 7.k. .v.E | +.I s.v.t.h.{ % , # *.j _._.j T.Y.` u U.~.p.i.i.i.d.^ j _._.j T.k <.d N K c 5 F ~ d | t S./.5 5 L.r 6.d 5 D ",
"| ~ m s 5 1 k.d.5 5 2 8 2  .N.Q.J.r | % $ '.d.'.  j Y.j 9 Q.N.N.i.{ &   ` _.= =   . } ) f 5 N V F G q 5 c | S.!.~ F G !.r 5 ~ s ",
"J O H y ! t O I D U _ H 5 H 9 , Q : ;.;.x.i.U.9 '.  j ` = 9 Q.c.N.i.& / ` = x.x.x.'.M.k Z d N q 1 6.! F c 6 5 t v 5 5 < U 5 5 p ",
"(...I 8 o.5.d D 8 < 5 < #.8 8 H 7 h k / '.f.U.i.9 & _.j '.f.Q.c.Q.i.b.j   u i.i.f.d.M ^ z A c [ D B c W W s 6.o.p c 5.H I ~ 5 | ",
" .9 ).5 p 8 H 5.! ! 5 p 5 : p c 8 g ^ T.^ $ & U.p.u ;.. 9 Q.N.Q. .x..   d.U.Q.N.p.u M.k A D t 6.( f E ! q H k.8 f d 5 % 8 5 e E ",
"O ~ I 5 p I ! 5 y y I U > V U 8 L T z i z P @ 9 9 './ j & e.i.9 '.;.= u i.g.i.i.9 '.M.p 5 E 5.F V A 6.~ 5 d h 4.H ; # z a 5 I K ",
"1 < 5 ~ m 5 D.+.| @.G | ~ U ! ~ f a 5 : < C C - } k ^ E.^ .     j . '.i.~.{ . i / k - c ! q F r q d X m m 1 d # g ; f h 5 D | F ",
"_ m 5 U H 8 8 1 Y 6.y , X < r U 8 ~ q T % V >.+ # p C + k j u 9   *.$ & u = ` ) @ # y r ~ C O O ~ F 5 U p ).m L P ; Z f g 5 c s ",
"H D E u.8 u U , D H q _ < 7 I { 8 R # % m c V N V S ( S + $ e.g.'.*.j / / E.E.a H s.J y r V - 5 8 F q ; P z p 5 L u.v m | W c f ",
"I c 5 m O.R +.4.U U ~ 8 p u.+.8 : b.T R f c 5 C N N 5 V h ` b.% =   b.b.M / E.f ~ 5 5 q 6.< 8 R 8 | ! E f ; < < / - L n D c q @.",
"q c X I s N 5 U H m 5 J U d ; m R < g T f a m ] f C p p ^ T.^ _.  b.'.x.'._.E.P - N V c Y o * # 8 ~ m # ; f d ( S S N N ( d s c ",
"x N E E s p 8 8 # C n d D W 7 s ;.T 5 < A P ^ E.E.E.E.E.E.` M.b.= }.= = }.j T.E.E.k A c 5 J : ; m ~ ~ z ; 8 D B B ( N N c 5 s [ ",
"< | X X 5 U p a 5 d ] a d 8 * * _.;.# h P E.Y.Y.Y.Y.T.j . $ M.= _._._._.j ` Y.Y.Y.Y.E.- R d.8 p < 8 q C h +.a N V B n Y 8 q 5 | ",
"u 5._ H D # f 8 V 4 Z d W { 3 u * u.8 # E.Y.Y.Y.Y.Y.j   '.& M.^ ` ` *.*.T.T.Y.Y.Y.Y.Y.E.- R z.% : % U | f g # h v 5 o.c V | c E ",
"D.a p D 5 5.I I c p ] B ~ 8 # v f 5 M k T.Y.Y.Y.Y.Y.. '.f.g.u = M.  _.. j ` Y.Y.Y.Y.Y.T.T R ; ..'.2 ].| f 8 Z h i H N C ~ ~ E c ",
": m I I I d m f n D > D < U # L L m R f ^ T.Y.Y.Y.Y.. x.i.~.9 '.'.b.    _.j Y.Y.Y.Y.T.k - ; h z.% , 6.E | a f ; k T c V E 6.H 5 ",
", q 5.c m 8 m w 7 < < H H % +.5 L a P m f } Y.Y.Y.Y.E._.'.d.b._.. . j j j T.Y.Y.Y.Y.^ Z c N : < b...u 5 5 a z h j R C C < J H 1 ",
"b.U ] c c o.5 5 U ..g R < f ; y p f 7 m Y f } k ^ k E.k } } } k k } k } } } } k ,.} n C 5 N m H % d.* H.c } v ^ g N c S D : J c ",
"'.D.| N 7 d 5 5 8 # [.M 8 a 5 l i v h 8 w N d V N m 5 N A < z m N 7 N N V (.7 ~ p A A n C D 5 8 d.U ..| m g a p z 8 I 5 U X | X ",
"O.% % J K X U # - :.{.. R v 5 i f f # # 5.L.4 V d c c N V S x ~ c S ( c N W E Y 5 V S 6 N N 5 s H 8 % < , q f E z 5 m 8 : 5.~ m ",
"}.< # r.: : ....R g   % : H J ) # T # # : Y 6.1 w.q 5 > V > O 6 6 x x 7 ~ O 5 2 7 V 6 7 A ; < J u % * : e | 1 5 d X w.J < (.#.% "
};
