/* XPM */
static char *_a6547902dfd411a9ef9186139a2b5b20UgimhmvI03LRvgp[] = {
/* columns rows colors chars-per-pixel */
"64 64 247 2 ",
"   c #1A191A",
".  c #211E1C",
"X  c #24211D",
"o  c #2B251F",
"O  c #1E1B22",
"+  c #211C25",
"@  c #241E2A",
"#  c #281F2E",
"$  c #282429",
"%  c #332B28",
"&  c #3B342A",
"*  c #2A2632",
"=  c #2B2334",
"-  c #2E2539",
";  c #2D2A3A",
":  c #32263C",
">  c #342A3A",
",  c #373434",
"<  c #432F1B",
"1  c #46392A",
"2  c #443B2C",
"3  c #483C37",
"4  c #543237",
"5  c #4C412D",
"6  c #55462F",
"7  c #4C4233",
"8  c #4A433B",
"9  c #524533",
"0  c #554A34",
"q  c #5B4D35",
"w  c #59453C",
"e  c #554B3B",
"r  c #5B4D3A",
"t  c #5B5037",
"y  c #5D523C",
"u  c #614E3A",
"i  c #635337",
"p  c #63543C",
"a  c #69563D",
"s  c #65593E",
"d  c #6A5A3E",
"f  c #715D3F",
"g  c #6F603F",
"h  c #2C2D41",
"j  c #342A42",
"k  c #392B45",
"l  c #3C2E4B",
"z  c #2C3045",
"x  c #393547",
"c  c #3C314E",
"v  c #3E3554",
"b  c #3B3A56",
"n  c #3F3F60",
"m  c #412F4E",
"M  c #453848",
"N  c #573349",
"B  c #443354",
"V  c #473858",
"C  c #433B5C",
"Z  c #4B395D",
"A  c #6C3646",
"S  c #463C60",
"D  c #4C3C63",
"F  c #523D67",
"G  c #3F4348",
"H  c #3C4161",
"J  c #4B4646",
"K  c #55494B",
"L  c #5B5247",
"P  c #4A435A",
"I  c #595757",
"U  c #70484A",
"Y  c #645541",
"T  c #695742",
"R  c #665A43",
"E  c #6C5C43",
"W  c #65574B",
"Q  c #6C5D4A",
"!  c #715E44",
"~  c #725E4B",
"^  c #7A594D",
"/  c #665955",
"(  c #755C55",
")  c #5F645C",
"_  c #6D6146",
"`  c #65604B",
"'  c #6D624B",
"]  c #736246",
"[  c #7B6447",
"{  c #73634B",
"}  c #7A664C",
"|  c #75694D",
" . c #7C6A4D",
".. c #6C6357",
"X. c #736552",
"o. c #7B6654",
"O. c #756A53",
"+. c #7B6C54",
"@. c #756D5B",
"#. c #7C6D5A",
"$. c #7D7155",
"%. c #7D725B",
"&. c #7A745A",
"*. c #4A4464",
"=. c #484665",
"-. c #4D436B",
";. c #54476A",
":. c #50546E",
">. c #4A4C73",
",. c #574875",
"<. c #554A74",
"1. c #5C4C7B",
"2. c #57547A",
"3. c #6B5B6B",
"4. c #566375",
"5. c #6E6B68",
"6. c #786963",
"7. c #7D7361",
"8. c #797467",
"9. c #8E3357",
"0. c #8E4D5A",
"q. c #875859",
"w. c #816C4D",
"e. c #876757",
"r. c #826D52",
"t. c #836E5A",
"y. c #837255",
"u. c #887556",
"i. c #83745B",
"p. c #89765B",
"a. c #85795D",
"s. c #8B7B5D",
"d. c #91755D",
"f. c #955963",
"g. c #AE4F6C",
"h. c #896C68",
"j. c #996768",
"k. c #837561",
"l. c #857A63",
"z. c #8B7C62",
"x. c #887866",
"c. c #8C7D6A",
"v. c #917D62",
"b. c #967968",
"n. c #957775",
"m. c #AA6B72",
"M. c #C8567D",
"N. c #91835F",
"B. c #8D8164",
"V. c #86816C",
"C. c #8D826B",
"Z. c #928264",
"A. c #92846B",
"S. c #9A8568",
"D. c #93896C",
"F. c #9A8A6C",
"G. c #8C8474",
"H. c #958A76",
"J. c #9B8C72",
"K. c #9D937B",
"L. c #A18C72",
"P. c #A29377",
"I. c #5D5483",
"U. c #595585",
"Y. c #585885",
"T. c #5C5B8B",
"R. c #614F82",
"E. c #625384",
"W. c #65598A",
"Q. c #675B92",
"!. c #5B6A88",
"~. c #5E748D",
"^. c #5C6698",
"/. c #66618D",
"(. c #68628F",
"). c #696598",
"_. c #736B93",
"`. c #72669D",
"'. c #736C9E",
"]. c #657698",
"[. c #757791",
"{. c #6A6CA4",
"}. c #736CA4",
"|. c #6B75AB",
" X c #7873AC",
".X c #6D77B1",
"XX c #7374B3",
"oX c #7D7AB5",
"OX c #787CBA",
"+X c #7A7FC2",
"@X c #817C9A",
"#X c #827EB9",
"$X c #76869C",
"%X c #7485AA",
"&X c #7289AA",
"*X c #7692AE",
"=X c #7A86B9",
"-X c #7B86C8",
";X c #7E8FCC",
":X c #988D81",
">X c #9B9684",
",X c #A28484",
"<X c #A59B89",
"1X c #A7A38E",
"2X c #A9A592",
"3X c #8586B8",
"4X c #889ABA",
"5X c #B4B2AB",
"6X c #8487CA",
"7X c #8488C8",
"8X c #8897C8",
"9X c #838ED5",
"0X c #898FD4",
"qX c #848FD8",
"wX c #8794D9",
"eX c #8A94DD",
"rX c #959CD3",
"tX c #89A8CC",
"yX c #8CA5D4",
"uX c #93ACDA",
"iX c #95B5DA",
"pX c #8996E2",
"aX c #8C9AE4",
"sX c #8E9DEB",
"dX c #909FEE",
"fX c #8DA3E2",
"gX c #94AAE6",
"hX c #9AB8E8",
"jX c #91A1F0",
"kX c #95AAF2",
"lX c #9AB5F3",
"zX c #9DBAF4",
"xX c #ADB5E0",
"cX c #9DC0E8",
"vX c #A6C6EF",
"bX c #A1C3F5",
"nX c #A6CBF7",
"mX c #ABCCF6",
"MX c #A7CEF8",
"NX c #A9D0F8",
"BX c #B6D6F8",
"VX c #C2C3D8",
"CX c #CAD2EB",
"ZX c #C7DCF7",
"AX c #CDE1F8",
"SX c #D3E4F8",
"DX c #E3EAF6",
/* pixels */
"L e i.k.i.7.t.~ W Q L @.6...W T T X.W Q ~ v.m.h.m.m.j.x.H.c.r.o.r.u.p.o.O.G.:Xt.z.u.t.o.o.X.Q o.l.#.#.' x.J.t.o.t.t.O.%.F.A.x.L ",
"W 9 { _ O.O.$.] E E r y 7 6 T t T E { p p w.m.g.j.m.g.q.G.i.[ { d | T r Q W #.+. .w. .r. .d d ! +.+.]  .u.p.Z.F.J.o.+.+.] p.%.&.",
"k.+.p.O.u.Z.r.] ] i q 0 6 i ] $.a.$.l.E T e.j.g.j.,Xm.0.Y p s T E T y y r T p |  .r.r. .] ! ] T Q ' a.s.s. .#.| i.B.Z.s.y.+.%.O.",
"t.+.+.O.| p ] E } i p t s ~ E $.| i.q T E ] q.g.f.8.6.U 4 1 1 3 w 1 % & 2 9 T s T Z.p.w.y. .! T q 9 u r.y.p.Q { E l.z.i.[ +.i.+.",
"+.p.O.C.E E p E ]  .] s _ ! s T d E ] T ] E ^ 0.0./ ) V V *.2.!.!.4.:.C M J 3 0 o.r. .w.w.w.] p T i E Q  .r.%.' Z.u.y.S.+.z.x.| ",
"{ E y.! p i i E !  .] { E ] ! ] E [ ] s ] ] ~ q.A 3 P 2.W.}.8XiXiXtX%X(.1.;.J 3 w ^ r.u.w. .] d E y r T i.z.R ' i.} { x.k.%.H.+.",
"i.s s i ] E s E ! ! p E E E ! ~ ] ! ] R { q Q 3.:.!.].=X4XrXhXMXmXvXuX8X=X%X].4.;.( r.w.y.] E d d i s r X._ T _ { c.%.%.c.W @.%.",
"i.c.s.] T ] T d ] E i ! ! ! } } } +.E ] p w P _.4XiXhXhXcXcXnXMXmXMXvXcXhXhXiX8X'.3.W y.y.| T p i p p s r i s | a.i.X.7.c.A.+.] ",
"c.z.] d E  .{ E T s a ! d y.! } | | Q Y e K 4.5XVXCXZXNXNXNXNXNXNXNXNXNXNXBXZXCXxX@XP W T { ~ i i s i p i ] { T i.X.$.%.%.J.%.i.",
"Z.J.g s ~ ! i T E t s d E ] ] { a T p 0 3 <.@XVXDXDXSXBXNXBXBXBXBXBXNXNXNXZXDXDXCX4X1.V 0 T | T i p r 0 i T E Z.A.| E $.p p | ] ",
"c.+.E a E s E ! ] T q T E ] i _ E i p 5 x I.3XxXZXAXZXBXBXSXSXSXSXAXBXNXNXBXSXAXCXrX(.P 7 E { T i E ] T i E } p.Z.E 1 1 q R R $.",
"k. .g d d E R s ! p p E T ~ r ! d p a 9 x W.#XrXhXvXmXmXZXDXDXDXDXSXBXMXnXmXmXzXgX7X'.*.7 u s T ! E a a d { ! ! } +.2 9 L e 2 5 ",
"X.| ] T T d Q ! { d i T +.i.s E i a s 7 x W.#X7XeXgXlXzXmXZXAXAXAXZXBXbXzXlXlXfX7X#X'.;.7 s ] t.i.+.T s s ! ! f d q 9 e R R 0 0 ",
"Q R a p s ! a ]  .! T $.l.%.] T T i T 7 x W.#X3X0XsXjXkXzXnXmXNXNXNXnXzXkXjXjXeX7X#X'.;.7 p +.+.a.C.Q a ! a q i s y 0 Y 0 e 9 y ",
"Y y s T ~ ] { { ! a { u.%.+._ T p s p 7 x W.#X0XaXsXjXjXkXlXbXNXmXnXzXkXjXdXdXaXeX7X'.;.7 _ Z.t.y.D.$.s.F.y.u p r R 6 y L e 6 s ",
"R q q y i ] ] y.y.f z.A.d T i.l.+.| p 7 x /.#XeXjXjXjXjXkXlXbXNXmXnXlXkXjXjXjXjXsX7X'.;.1 E D.+.$.B.o.v.d.v.] T E p t E y 2 0 s ",
"Y p p q s E ] O.|  .| ~ p i.z.z.s.y._ 9 x /.#XeXjXjXjXjXlXbXMXNXNXMXbXzXkXjXjXjXsX7X'.;.2 R | Q +.l.u.S.p.p.] s p E ] E y y y p ",
"Y i r T a ! [ ] _ O.+.O.z.J.i.{ ] | _ r x /.#XeXjXjXjXjXzXMXNXNXNXNXMXbXkXjXjXjXsX7X'.;.2 p E ] +.i.i.Z.y.a.{ ! E T o.X.Q 0 r p ",
"Q q r E ! [  .! %.c.i.a.a.>XO.} p p Y 2 x /.3XeXjXjXjXjXzXMXNXNXNXNXMXbXkXjXjXjXsX7X'.*.& y E +.E | i.{ $.N.u.t.+.z.D.J.%.p y q ",
"#.y p p E  .[ } k.K.O.| X.O.a.A.Y 9 7 & j /.3XeXjXjXjXjXzXMXNXNXNXNXMXbXkXjXjXjXsX7X'.*.o 1 2 L u y.{ d E ] ! ~ B.C.l.l.A.T | +.",
"o.E s _ |  .p.y.+.+.V.:Xi.y.a.' 2 % % $ j /.#XeXjXjXjXjXzXMXNXNXNXNXMXbXkXjXjXjXsX7X'.*.$ % % & +.p.p d i q _ x.C.C.D.' l.l.+.+.",
"( ] E Q | { +.Z.o._ G.5X| $.&.9 2 = k - j /.#XeXjXjXjXjXzXMXNXNXNXNXMXbXkXjXjXjXsX7X'.*.= k : % s ] d E ! q %.O.C.k.C.T a.&.R ' ",
"~ T ] _ E i.k.O.A.~ :X<XC.x.E q 3 k Z c j 2. X6XaXsXjXjXzXMXNXNXNXNXMXbXkXjXsXsXqXoX(.C j Z B , q q E _ T r i.A.z.+.a.i.+.| E s ",
"Q E E { +.l.H.>XG.<X2XG.1X@.5 & * B <.S - b 2.{.-XpXjXjXzXnXNXNXNXNXMXbXkXdXsX9XXXT.P j v <.*.> & 2 i +.p T %.i.{ l.+.a.' s T p ",
"W s y i.i.O.H.5Xx.>XO.Q Q L P *.*.-.<.-.C >.Y.Y.).-X9XeXgXbXMXNXNXMXbXhXaXqX;X|.I.U.2.*.S <.<.*.*.P W Q u ~ s l.u.| T a.T Y T s ",
"X.R _ i.X.] &.2X<XH.G.O./ P /.'.'.W.-.-.T.XX-XT.*.Y.).XX9XgXzXMXMXbXlXwXOX).Y.>.>..X-X).<.-.2.`.}.).3.8 i.J.} a.u.{ { z.E R p Y ",
"~ o.+.%.i.A.y.x.l.C.:XW ;.Y.oX7X8X=X].Y.T.XX-X|.^.].].T.{.-X8XtXtXtX;X.XT.!.].].{.+X-X).U.^.%X8X8X7X).:.( +.v.z.v.r.J.A.E i q p ",
"R R a.O.x.5X1X+.i.+.' J W.oXwXgXhXhXwX|.>.T.}.-XwXyX*X!.2.!.~.~.~.~.!.2.2.&XtXyX-XXX).2.^.;XgXhXhXaX=X).I T u.S.F.S.F.s.s.#.Q t ",
"Q |  .O.a.>Xi.z.$.| e x /.3XgXzXnXbXhX8X!.<.2.{.=X8X8X%X%X*X*X*X*X*X*X&X.X=XtX;X|.T.<.Y.%XgXbXnXbXlX8X}.;.r y.F.P.F.p.y.%.D.%.T ",
"#.2Xc.z.i.s.z.{ +.+.R J W.3XgXbXMXnXbXyX X2.j b >.)..X;XyXiXhXhXhXhXiXuX9XOX'.Y.H c S ).8XhXnXMXnXzX8X_.;.T [ c.P.Z.p.D.k.l.K.H.",
"k.i.i.A.i.p.S.v.u.u.i.6.3.].yXzXnXbXhXrX X2.    - C U.{.=X8XgXlXlXgXyX=X|.T.-.k   O C '.8XgXbXnXbXgX=X2./ r.w.T k.P.s.X.7.7.G.7.",
"z.A.l.c.A.p.F.S.p.d.D.K./ >.=XfXhXhXfX7X'.-.  @ - c v C 2.).-XwXwX;X|.I.*.b v j $ @ b /.=XeXgXhXgX9X^.3 o.S.v.+.i.J.P.i.X.%.' O.",
"k.B.l.A.F.Z.Z.v.p.Z.D.D.L z Y.|.8X8X7X}.<.x + k Z -.-.V B S U.^.^.Y.-.B B D <.D m - ; *.(.=X8X8X%X^.H & | N.] T i O.C.C.#.C.x.%.",
"i.u.c.s.Z.p.| s.Z.y.p.Z.#.8 , *./.'.).2.; = j D R.`.{.Q.<.v h ; c b b -.T.{.{.W.F v = - *.(.'.).2.; , 9 ] E y r T %.@.G.H.#.O.i.",
"D.B.D.s.B.] E Z.c.l.z.z.z.| 3 ; b *.C j $ k D 1.{.-XqX9XXXI.C * -.1.T.{.-XqX9XXXR.F m = ; C *.C j % r { ] p q q R i.#.l.H.l.O.l.",
"A.i.o.O.C.+.t N.B.+.+.k.| y 4           $ V 1.W.XXeXjXsX9XXX2.- -.Q.XX-XaXjXaX+XQ.1.F j           % 9 E ] i s E i l.&.O.' x.' &.",
"i.D.l.l.a.E t $.z.A.<XK.l.R 4   O + +   * -.E.Q.XXqXsXsXsXqX^.- Z Q.-XaXsXsXpXOXQ.E.<.l   O + +   o 0 E ] } u T _ J.C.7.L R E _ ",
"c.a.a.#._ p 9 | k.G.<X3 < 1 4 @ : k j = = C <.W.}.+XqXsXjXaX{.k B T.9XjXsXpX6XXXW.1.D j @ : k j = % 0 E N.v.p.p ~ F.A.' E d i.y.",
"C.y.s.D.&.$.y y 2XK.#.1 5 1 N k Z F V j + = c <.W.).OXqXpXqX{.Z v 2.-XaXpX-X{.Q.R.S - @ - B D D c > r $.$.s.Z.y.q z.J.k.i.+.| p.",
"l.i.a.a.+.i._ $.$.i.{ ] E 8 N *.E.E.F k O   $ v D -.U.{..XXX).<.v *.|.OXXX).<.D S j   O : Z 1.W.<.m K _  .y.Z.Z.i.T D.J.%.Z._ a.",
"i.a.| $.y.~ y | ] $.i.$.r x <.). X}.1.c + @ = : : - h b S <.1.<.v c 2.I.<.C : : j - @ @ j ;.(. X{.I.P e { ! s.J.O.r D.K.z.{ ] a.",
"C.C.l.#.2X5Xy _ +.7.c._ L b .X9X9XOXW.S = j m m k $     # j v v - = c v j = @ : m m k - c R.XX9X9X-XY.7 %.y.s.D.u.Q A.A.O.l.$.A.",
"%.i.D.H.2X<XY %.y.+.7.+.I >.;XfXqXOXQ.-.- l D F D B k - = = = O   + = : : j c D F D B : v W.XX;XaXfX].7 B.D.D.<XT q l.C.#.x.+.s.",
"l.O.z.i.>XG.H.>Xs.z.%.+./ :.tXuX|.Y.I.-.- m F 1.E.1.<.Z B B :   O = l B V ;.1.E.R.;.B j v I.T.^.8XhX$X& +.D.P.<X+.+.S.J.D.] +.u.",
"z.i.| $.+.c.G.7.+.+.k.X.L 4.tXiX!.v -.C - V 1.W.`.`.W.1.<.;.S v v C ;.<.<.E.Q.`.).R.F k c ;.S *.4XcX$X2 _ z.P.K.i.Z.J.K.J.+.i.$.",
"k.t.%.D.Z.F.t.a.u.a.z.O.L 4.tXtX4.* j * - -.W.}. X X'.Q.W.W.E.E.E.E.W.W.W.`. X X XQ.<.c > M M I 4XiX$Xe | y.+.F.s +.+.#.l.+.+.{ ",
"k.7.i.+.i.B.] u.O.#.+.O.@.) &X*X:.$ .   * C I.oX7X#X X}.`.`.`.`.`.`.`.`.}.oX7X6X7X).-.P J A U 6.$X4X[.E y.$.A.y.{ y.B.%.a.i.+.z.",
"K.C.a.+.{ O.%.B.A.Z.+.{ O...I :.G J % . $ ; *.OX6XoX XoXoXoXoXoXoXoXoXoXoX7X9XqX;X^.x I ( g.m.q.3.3.6.z.l.%.D.O.E ] +.@.O.+.z.s.",
"t.i.a.+.{ a.A.+.C.C.a.l.p.o.^ 3 8 L & . X . z ^.{.(.}.6X0X0X0X0X0X0X0X0X0X-X.X|.{.>., I 6.g.M.U A 9.l.i.+.{ y $.%.T Q p _ +.a.p.",
"c.#.+.i.| +.7.%.z.v.J.z.i.a.m.q.U 0.U & % X $ c b S ^.-X9X9X9X9X9X9XqX9X;X|.>.n b h % J / 0.g.A w 0.i.| | c.] Q r R E y +.u.z.Z.",
"z.| +.l.&.O.O.c.A.A.C.c.i.#.L.b.j.m.f.4 4 % + j m B >.^.^.^.^.^.^.^.^.^.^.U.V m l - $ , J A 9.4 3 f.o.k.{ a.| i q R d E r +.y.&.",
"%.i.s.' O.l.x.c.u.%.l.c.#.O.k.C.#.( ^ U % . @ k B B c h h h h h h h h h h l B B m =   $ , 4 A % 3 f.z.R q p { +.i _ s | z.s.y.E ",
"i.y.+.| @.' &.O.l.l.i.O.{ ' %.O.X.L 2 %       = - = $ O                   @ = - = +     $ $ % , 3 q.A.s.E T #.#.9 T i [ p.y.z.v.",
"z.y.i.a.$.| +.l.%.| +.k.l.] R | ' W o     $ = + + = - - - = @     O = - - - = @   $ = O   X % , 3 ^ | Q R E ] p.u.u. . .s.] $.y.",
"v. .s.s.$.{ O.O.Q } [ ] u.s.O.$.y 9 & . + k m : : B Z Z V B :     = m V Z Z V k * k l =   $ , 8 J 0.i.p T O.u.w.w.s. . .y.+.$.S.",
"#.z.i.k.+.l.| _ +.] a _ ] O.' ..e e 8 % $ : B V -.1.W.E.1.D j     = V <.E.W.E.<.C B k = $ , K K L 0.l.} y &._  .r.w.[ A.O.l.+.z.",
"x.B.z.i.u.Q E O.r.r.d ] s.V.K.x.' ` Q L & % j -.E.).'.`.E.Z :     = B 1.).'.`.W.<.B $ $ % J I I / q.x.z.E w Q y s +.y.y.r.z.y.s.",
"7._ { u.+.B.a.a.y.{ a w.i.O.Q s E +.W e q 2 * C <.2.I.2.;.c =     @ k S 2.E.I.<.*.k % % , I I I / j.P.z.E O.d y 0 %. . .i.i.s.y.",
"X.| a.a.a.] | E [ u.p.p.#.x.Q i i | ' +.] r & 3 M M M x ; $ +       $ * x M N x > * , 8 J ) I / q.n.A.s.z._ E R 6 Y y.r.p.D.%.+.",
"c.l.B.y.| O.| l.O.#.#.%.%.@.%.+.i _ 0 +.+.{ s d E T r % X X X X X X X X % w U 3 & , 3 / ..5./ U f.h.x.+.+._ p y 7 ' } } #.k.%.v.",
"/ l.d y.y.y.+.+.x.7.r ' #.E R C.{ E O.| S.r.y. .] +.p 7 7 7 7 2 7 7 2 3 e Q f.0.w 3 L 5.G.c.3.f.j.h.' L.y.q s 5 r  .y.u.u.X.l.y.",
"..7.z. .o.] +.+.O.Q J W O._ $.y 0 s y O.l.r. .s.y.y.i.+.E O.i | } } } |  .x.e.m.f.U L 5.8.G./ ( j.x.k.l.| r Q { p O.a.+.l.i.z.i.",
"%.@.@.k.p.i.l.Q T 2 e e ' s +.0 T E Q Q B.S.r.r.] y.y. .r.u.v.i.y.u.s.y.w.s.d.n.f.q.Q ..5.5.( q.j.#.@.#.c.l.E p.p +.| O.X.B.i.| ",
"L #.Q ( X.X.7.7.' r L @.X.%.k.u Q Y Q Q X.A.A.c.o.z.o.p.t.p.t.u.y.v.v.o.i.t.r.x.e.e.h...) ..j.j.c.6.X.X.x.z.z.+.] i.o.k.#.k.G.@."
};
