/* XPM */
static char *_24f35690b6844a5e340d624394f5940e3qCdopFOa7GNBEQ[] = {
/* columns rows colors chars-per-pixel */
"64 64 242 2 ",
"   c #181818",
".  c #231F1D",
"X  c #2C241E",
"o  c #221D26",
"O  c #241E29",
"+  c #2A2827",
"@  c #352B27",
"#  c #38332B",
"$  c #2C2333",
"%  c #2B273A",
"&  c #33263D",
"*  c #312838",
"=  c #393735",
"-  c #63251F",
";  c #473A2A",
":  c #522F30",
">  c #463B36",
",  c #4C422E",
"<  c #55462F",
"1  c #4D4232",
"2  c #49453B",
"3  c #524533",
"4  c #554A35",
"5  c #5B4C35",
"6  c #55433C",
"7  c #564C3B",
"8  c #5B4D3A",
"9  c #5B5037",
"0  c #5D523B",
"q  c #614D39",
"w  c #635437",
"e  c #63543C",
"r  c #69563D",
"t  c #66593E",
"y  c #6A5A3E",
"u  c #715D3F",
"i  c #6F603F",
"p  c #2B2C40",
"a  c #332C43",
"s  c #3A2B45",
"d  c #362F49",
"f  c #3D2D4A",
"g  c #37324A",
"h  c #3A3956",
"j  c #373C59",
"k  c #443648",
"l  c #4B314A",
"z  c #433252",
"x  c #483356",
"c  c #413759",
"v  c #4B355A",
"b  c #443A5C",
"n  c #493B59",
"m  c #6B3747",
"M  c #483C62",
"N  c #4A3E64",
"B  c #513A63",
"V  c #3A4355",
"C  c #3B4161",
"Z  c #494744",
"A  c #564946",
"S  c #5B5246",
"D  c #47455A",
"F  c #4A505D",
"G  c #595655",
"H  c #674745",
"J  c #645541",
"K  c #675747",
"L  c #665A43",
"P  c #6C5C43",
"I  c #6C5D4A",
"U  c #715E44",
"Y  c #715E4B",
"T  c #7A584E",
"R  c #754850",
"E  c #665B55",
"W  c #745955",
"Q  c #5F645C",
"!  c #6D6146",
"~  c #6D624B",
"^  c #6D684F",
"/  c #736246",
"(  c #7B6447",
")  c #73634B",
"_  c #7A664C",
"`  c #756A4E",
"'  c #7C6A4D",
"]  c #6D6253",
"[  c #68635B",
"{  c #746552",
"}  c #7A6555",
"|  c #756A53",
" . c #7B6C53",
".. c #756D5B",
"X. c #7C6D5A",
"o. c #7D7155",
"O. c #7D725B",
"+. c #7A745A",
"@. c #494468",
"#. c #53446B",
"$. c #504A6C",
"%. c #4C526B",
"&. c #554673",
"*. c #574A76",
"=. c #4B527C",
"-. c #4D587A",
";. c #59547B",
":. c #655476",
">. c #4E6173",
",. c #566779",
"<. c #6A6664",
"1. c #786A65",
"2. c #7D7361",
"3. c #7A7667",
"4. c #76727B",
"5. c #9A2215",
"6. c #D12D14",
"7. c #94385A",
"8. c #AF3C6B",
"9. c #864557",
"0. c #8E5258",
"q. c #875859",
"w. c #BA4050",
"e. c #826C4E",
"r. c #826D53",
"t. c #876559",
"y. c #836E5A",
"u. c #91635C",
"i. c #837255",
"p. c #887556",
"a. c #83745B",
"s. c #89765A",
"d. c #85795D",
"f. c #8B7B5D",
"g. c #937B5D",
"h. c #964C61",
"j. c #995863",
"k. c #A44A64",
"l. c #AF4E6D",
"z. c #886C67",
"x. c #996768",
"c. c #837561",
"v. c #857A63",
"b. c #8B7C63",
"n. c #887866",
"m. c #8C7D6A",
"M. c #917D62",
"N. c #947867",
"B. c #957575",
"V. c #A86C70",
"C. c #C6577C",
"Z. c #92835F",
"A. c #8D8164",
"S. c #85826C",
"D. c #8D826A",
"F. c #928265",
"G. c #92846B",
"H. c #9A8668",
"J. c #93896C",
"K. c #9A8A6C",
"L. c #8C8474",
"P. c #948B73",
"I. c #948877",
"U. c #9B8C71",
"Y. c #9C937A",
"T. c #A28D73",
"R. c #A29377",
"E. c #5D4F81",
"W. c #4D5580",
"Q. c #5A5887",
"!. c #64558A",
"~. c #655988",
"^. c #705B87",
"/. c #665B92",
"(. c #586B84",
"). c #5C7389",
"_. c #576191",
"`. c #5A6395",
"'. c #6B6C8E",
"]. c #686598",
"[. c #72669D",
"{. c #73689F",
"}. c #667A97",
"|. c #696AA3",
" X c #746EA6",
".X c #6B71AC",
"XX c #7474AC",
"oX c #7B73AB",
"OX c #6D78B5",
"+X c #7778B8",
"@X c #747CBB",
"#X c #7B7EC2",
"$X c #81608E",
"%X c #8078B0",
"&X c #827EBA",
"*X c #69829B",
"=X c #768598",
"-X c #768CAE",
";X c #7A94B6",
":X c #7B83C6",
">X c #7986C9",
",X c #7E8ECF",
"<X c #9B9685",
"1X c #A69B88",
"2X c #A9A592",
"3X c #ADA894",
"4X c #8894BA",
"5X c #83A1BE",
"6X c #B2B1AB",
"7X c #8487C9",
"8X c #8C96CA",
"9X c #818ED5",
"0X c #878ED6",
"qX c #8391DA",
"wX c #8993D9",
"eX c #87A5C8",
"rX c #8DA9D6",
"tX c #90ABD4",
"yX c #95B8DC",
"uX c #B6B6D0",
"iX c #8B96E2",
"pX c #8B99E5",
"aX c #8E9DEB",
"sX c #909FEE",
"dX c #8FA5E6",
"fX c #91A6E8",
"gX c #99B7E9",
"hX c #90A1F0",
"jX c #94A8F1",
"kX c #98B2F3",
"lX c #9EBCF5",
"zX c #9FC4EA",
"xX c #A1C7ED",
"cX c #A2C8EF",
"vX c #A3C7F6",
"bX c #A5CBF6",
"nX c #A9D0F8",
"mX c #B7D2F7",
"MX c #C2C3DE",
"NX c #C6D7F3",
"BX c #D3E4F8",
"VX c #EFF1F6",
/* pixels */
"G 7 a.a.a.2.y.Y K I S ..1.[ K K L { K I Y N.V.z.V.V.x.n.I.N.r. .r.s.s.}  .L.<Xy.b.s.y.} } } I } c.X.X.] n.U.y. .y.y. .O.K.G.n.S ",
"K 3 ) ! | | o./ P P 8 0 1 < L 9 P P ) e e e.V.l.B.V.k.q.L.a._ ) P ) K 8 I K X. .' e.' r.' y y U |  ./ ' p.s.F.K.U.}  . ./ s.O.+.",
"c. .s.| s.F.r./ / w 5 4 < w / o.d.X.v.P L t.x.l.z.B.j.9.q e e e L e 8 8 5 e 8 / ' r.r.' / U / L I ~ d.f.f.' X.) a.A.F.f.i. .O.| ",
"y. . .| ` e / P _ w e 9 t Y P o.` a.5 P P ) q.l.q.Z > : @ @ @ @ > # X + @ @ # 5 L F.s.e.i.' U P 5 3 q  .i.s.I ) P v.b.i.(  .i. .",
" .s. .D.P P e P / ' / t ! U t L t P / P ! e K 9.R b =.`.}.*X*X*X*X*X*X}.`.=.c k I U P ' e.e./ e P w P P ' r.O.^ F.s.i.H. .b.n.` ",
") P i.U e w w P U ' / ) P / U / P ( / t P 1 + ; n E.@XpXgXxXxXxXxXxXxXgXpX+X!.n @ @ 5 r.' ( / P P 0 8 P a.b.L ~ a._ ) n.c.O.P. .",
"i.t t w / P t P U U e P P P U Y / U / 8 A n 4.2X6XuXuXlXvXnXNXNXmXnXnXmXNXMXuX4X].*.G J ) ) P t t w t 8 { ! P ! ) b.O.O.m.K ..O.",
"a.m.f./ L / P y / P w U U U _ _ _  .P 3 % *.4XBXVXVXBXnXnXmXVXVXmXnXnXBXVXVXVXmXwX X*.% 0 _ P w w e e t 8 w t ) c.a.{ 2.m.G.X./ ",
"m.b./ t P ' ) P P t r U y i.U _ ) ) ~ 1 h .X8XuXMXNXmXnXnXnXNXNXmXnXnXmXBXMXuXtX7X7X.Xg 4 _ Y w w t w e w / ) L a.{ o.O.O.U.O.i.",
"F.U.i t Y U w P P 9 t t P P / ) r P t , C >XpX7X0XaXkXbXbXbXcXzXzXcXbXbXvXtX&X&X7XpX>Xj 4 / ` P w e 8 4 w P P F.G.) P o.e e ` / ",
"m. .P r P t P U / P q t 3 3 8 ! P w t ; C >XaXiXpXsXjXkXvXcX5X}.}.eXbXvXkXdXwXwXiXaX>Xj 7 _ ) P w P / P w P _ s.F.P ; ; 5 L L o.",
"c.' i y y P L t P e 8 K ,.,.S e q 5 w ; C >XhXhXhXhXhXhXlXzX}.    *XxXlXhXhXhXhXhXhX>Xj 8 r e L U P r r y ) U U _  .; 3 S 7 ; , ",
"{ ) / P P y I U ) t , F 5XeX>.# @ @ # X C >XhXhXhXhXhXhXlXzX}.    *XxXlXhXhXhXhXhXhX>Xj 7 / / r.y.X.P t t U U u t 5 3 7 K L 4 4 ",
"I L r e t U r / ' U ; %.tXyX,.F }.>.    C >XaX9XqXaXhXhXlXzX}.    *XxXlXhXhXaXqX9XaX>Xj 7 P  .X.d.D.P r U r 5 w t 0 4 J 4 7 3 0 ",
"J 0 t L / / ) ) U r 3 %.tXyX,.}.gX;X    C >XqX].XXaXhXhXlXzX}.    *XxXlXhXhXpX.X].qX>Xj 4  .F.X.i.J.o.f.K.i.q e 8 L < 0 S 7 < t ",
"K 5 5 0 w / / i.i.u J %.eXfX-X,XgX;X    C >X9XQ.W.OXOXOX;X;X>.    >.;X;XOXOXOX=.Q.qX>Xj 1 ` J. .o.A. .M.g.M./ L P e 9 P 0 ; 4 t ",
"J e e 5 t P / | ) ' 3 C >XhXhXhXhXOX    C >X9X=.                                =.qX>Xj 3 / ` ) o.v.s.H.s.s./ t e P / P 0 0 0 w ",
"J w 8 L r U ( / ! | 7 g ].:XpXpX0X].    C >X9X=.                                =.qX>Xj # 1 1 8 ` a.a.F.i.d.) U P P } { I 4 8 e ",
"I 5 8 P U ( ' U O.m.S = z /.qXwXoXQ.    C >XqXQ.j g %                     % g j _.qX>Xj       @ 0 ` i.) o.Z.s.r. .b.J.U.O.e 0 5 ",
"X.0 w e P ' ( _ v.Y.) S > Q.qX9X/.@.    C >XpX,X@X[.$.                    *.[.@X,XpX>Xj       + 5 s.) t P / U Y A.D.v.v.G.L ) X.",
"} P t ! ` ' s.i. . .S.I.2 =.qX9X~.n     j @XiXaXiX7XXX(.(.,.V     V ,.(.(.XX7XiXaXiX@Xh o $ o X / i.w t w 5 ! n.D.m.G.~ v.v. . .",
"W / P I ) ) X.F. .! L.3X> =.qXwXoX;.    a /.@XpXaXpXdXyXyXtX).    ).tXyXgXdXpXaXiX@XQ.p & x &   # 1 w P U 5 O. .D.c.D.L d.+.K ! ",
"Y P / ~ P i.c.| G.Y <X<XA W.qXiX7X].  $ s @./.:XwXaXkXvXvXgX}.    }.gXvXvXkXaXiX:X/.@.s s z @.$.$.$.S e L 8 a.G.b. .d.a. .` P t ",
"I P P )  .v.I.<XL.1X3XS.[ W.qXaXaXOX  f x s b /.#XaXhXjXjXpX`.    `.pXjXjXhXpX@X/.c s x f O ~.oXoX].D 7 0 L O.a.) c. .d.~ t P e ",
"K t 0 a.i.| P.6Xn.<X^ K > =.:XwXaX@Xs s z b @.#.Q.OX:X7X7X#X=.    =.:X7X7X:XOXQ.#.@.b f W..X7XtX8X:X].:.Z L t f.s.) L d.L J L t ",
"{ L ! a.{ / +.2X1XI.P.| 2 D {.7XaX@XB s % *.E.d     N /./.!.h     c !./.!.N     g E.*.% .XhXlXvXkXpX7X].a ~ ) d.p.) ) b.P L e e ",
"Y }  .O.a.G.i.n.v.L.1X) e A *.].XX X].&.z b @.#.Q.OX].N N b %     % M N N ].OXQ.#.N $.~.7XlXvXnXvXgX7X].a L F.f.M.r.U.G.P w 5 w ",
"K L d.| c.6X2X .a.i.v.) L E F D v ~.oX~.x & d *.XXiX@Xj j j %     % j j C @XwXXX*.a $.oXtXbXbXnXbXgX4X/.k / g.H.K.H.K.f.f.O.P 9 ",
"I { ' | c.<Xi.b.i. .' s.5 ,.5X-XD @.~.&.x & $ g Q.XX#X>X>X@X=.    =.:X>X>X@XXXE.g + $.oX8XkXvXbXlXrX].G } p.g.K.R.K.s.i.O.J.O.K ",
"X.2Xm.b.a.f.b.)  .i.s.a.J ,.eXeX).%.x v x & O a M *..X9X9X>XQ.$ $ Q.>X9X9X.X*.M a O @.].:XpXgXgXrX-X@.3 ( g.e.M.R.F.s.G.c.n.Y.I.",
"v.a.v.G.a.s.H.g.s.s.G.P.a...,.-XyX-X$ z x & a &.&.g @.=.=.=.N x x @.=.=.=.@.h &.&.a % h ].7X7X4X].@.p 3 p.g.e.L c.R.f.{ 2.2.L.2.",
"b.G.v.M.G.s.K.H.s.g.U.1XG.a.~ }.eX;X*X-.f $ g E./.`.`.`.`.`.].|.|.].`.`.`.`.`./.E.d     @.].].~.b + ; e g.H.M.X.a.U.R.a.{ O.] | ",
"v.A.v.J.K.F.F.g.s.F.J.Y.b.a.r.[ %.-XzX*Xo   g E.+XqXpXpXpXpXpXpXpXpXpXpXpXpXqX+XE.d     $ a a a + > 5 P s.Z./ P w | D.D.X.D.n.O.",
"a.s.b.f.F.s.` f.F.i.s.J.R.G.b.} W '.5X(.    a &.[.:XwXhXhXaX0X7X7XqXaXhXhXqX:X].&.a               > P '  .P 0 8 P O...L.I.X.| a.",
"G.A.J.f.A./ P F.b.v.b.A.J.f.u.j.k.7.        $ x *.!.#XhXhXpX+X/./.+XaXhXhX#X!.&.x $               > ~  .) w 5 5 K a.X.n.P.v.| v.",
"G.a. .| D. .9 Z.A. . .c.) J j.l.l.8.m o     o & f M ].#X#X+XQ.N N Q.@X#X#X].M f & o     $ f *.Q.h # 8 ! / w t P w v.+.| ~ n.~ +.",
"a.J.v.v.d.P 9 o.b.G.1XY.v.! h.7.h.C.9.+             M !.!.E.c O O c E.!.!.b             f #.[.oX$.# 8 L / _ q L ! U.D.2.S L P ! ",
"b.d.d.X.! e 3 ` c.L.1X3 @ ; 7.h.H 9.R @             % c c c z z z z c c c %             $.[.oXoX;.k > 4 f.M.s.e Y K.G.~ P t a.i.",
"D.i.f.J.+.o.0 0 3XY.X.; < ; 7.9.> > A #   O % a a $ O     O z B B z o     O $ a a % O   ;.%X&X&X|.Q.g 7 o.f.F.i.5 b.U.v.i. .` s.",
"v.a.d.d. .a.~ o.o.a.) ) o.` k.m > + = @ o f N *.&.v s     O z B B z o     s v &.*.N f o ;.%X7XiXwX:X$.7  .i.F.F.a.L P.U.O.F.! d.",
"a.d.` o.i.Y 0 ` / o.a.d.o.d.j.A Z @ + + % $.~.!.!.*.N c d & f z z f & d c N *.!.!.~.#.$ '.8X7X,XdXrX-.7  .U f.U. .8 G.Y.b.) / d.",
"D.D.v. .2X6X0 ! X.2.m.) b.a.j.A 2 = # + a /. X/.!.!.!.!.&.x & O O & x &.!.!.!.!./. X/.& -XvX;X-.tXyX(.S b.i.f.J.s.I G.G.| v.o.G.",
"O.a.P.I.2X1XJ O.r.X.2.i.L.G.j.6 = = = + h XX7XXX{.{.{.[.!.&.d     d &.!.{.{.{.{.oX7XXXg ).eX).F tXyX(.7 U.G.P.1XL 5 v.D.X.n. .f.",
"v.| b.a.<XL.P.<Xf.b.O.a.I.<XB.Z = = #   C >XpX7X%X%X%X%X[.!.c     c !.{.%X%X%X%X7XpX>Xj       F tXyX,.; a.K.R.1X .X.H.U.G./  .s.",
"b.a.` o.X.b.L.2.X. .c.| v.I.1.Z = = @ + k $XOX7X0X0X7XoX~.b %     a M |.0X0X0X0X7XOX_.D m 9.J E =X=X<.P X.b.R.Y.i.F.U.Y.U. .i.o.",
"c.y.O.G.F.K.y.d.s.a.b.+.X.O.R > = = @ + : 5.:.7XpXpX7XoX*.            |.pXpXpXpX>X=.# A T j.u.N.K J f.F.i.i. .K.t X.X.X.v. . .) ",
"z.2.a. .a.A./ s. .X. .X.P.| H # @ # + + - 6.w.^.`.`.Q.$.g             @.`.`.`.`.Q.F Z G W k.x.V.q.0.e.f.f.o.G.i.) i.A.O.d.i. .b.",
"Y.L.d.X.)  .O.A.G.F. .)  .} H > = Z @ . - 6.6.: V ,.%.$ o             o $ %.,.V * Z G [ 1.l.C.j.j.l.f.F.b.O.J.| P /  ...|  .b.f.",
"y.i.d. .) d.G. .D.D.d.v.s.r.j.A Z S # . X 5.- l }.tX-Xx &             & x -XtX}.z = Z G 1.l.C.R 9.l.G.i. .) 0 o.O.L I e !  .d.s.",
"b.X. .a.`  .2.O.b.M.U.b.i.v.V.q.R 9.H # ; - $ x }.tX-X&.f             f *.-XtX'.x $ = G <.9.l.m 6 k.a.` ` b./ I 8 L P 0  .s.b.F.",
"b.`  .v.+.| | b.G.J.D.m.a.X.T.N.x.V.x.H R - $ x #.;.~.!.M             M !.~.;.#.x $ = G G m 7.: > j. .v.) d.` w 5 t t P 8 X.i.o.",
"O.s.f.~ | n.n.m.s.O.v.m.X.| c.D.X.t.q.W H : a #.;.~.].[.$.            $.{.].~.;.#.& + = A m m # > j.n.K 5 e ) X.w ! t ` b.f.i.P ",
"a.i. .` ..^ +.+.v.v.a. .) ~ O.| { ] K 6     f E.[.oX%XoX;.            ;.%X%XoX[.E.d     Z > = # > q.G.f.P L X.X.3 P w ( s.i.b.M.",
"b.i.a.d.o.`  .v.O.)  .c.v./ L ` ^ ] ; k z z z M $.;.;.;.@.s $     $ s @.;.;.;.$.M z f f k = = = > R ` I K P / s.p.p.' ' f./ o.a.",
"M.' f.f.o.) | | I _ ( / s.f.| o.S 1   f B B #.h j j j j b v &     & v b j j j j h #.B B f   = Z A h.i.e L  .i.e.e.f.' ' i. .o.H.",
"X.b.a.a. .v.` !  ./ r ! /  .] ] 7 1   f B ~. X@X>X>X>X:X].v &     & v ].>X>X>X>X#X X~.B f   Z A S 0.v._ 0 +.! ' r.e.( G.| v.X.b.",
"n.A.b.i.s.I P  .r.r.y / f.S.Y.n.^ S # k B /.oX,XqXqXqX9X|.z $     $ z |.qXqXqXqX,XXX~.N s + Z G E q.n.b.P 7 I 0 t  .i.i.r.b.i.f.",
"2.! ) s. .A.d.d.i.) r e.a.| I t P ` S > & h @.=.=.=.=.=.h $ o     o $ h =.=.=.=.=.@.h * * G G G E x.R.b.P | t 0 4 i.e.' i.a.f.i.",
"} ` d.d.d./ ` P ( s.s.s.X.n.I w w ` ` K 1 , ; X                                 . + = # = <.G E q.B.J.f.b.! P L 3 J i.r.s.G.O. .",
"m.v.A.i.) | ) v.| X.X.O.O...O. .w ! 5 `  .' P #                                 + = Z E [ <.E R h.z.n. . .! w 0 1 ~ _ _ X.c.O.M.",
"E v.r i.i.i. . .n.2.8 ^ X.P L D.) P | ` H.i. .e 3 7 1 4 8 S 8 8 8 J 7 8 J J H : ; > G 1.L.m.<.h.x.z.] T.i.5 t , 8 ' i.p.s.{ v.i.",
"] 2.b.' } /  . .| I A L | ~  .0 4 t 0 | c.r.' f.i.r.v.i.' v.P i.s.s.p.s.s.m.u.V.j.R S 3.4.L.E W x.N.2.b.) 8 ! ) e | d.X.v.a.b.a.",
"O.....c.s.a.v.I L ; 7 7 ~ L | 4 P L I I A.H.r.r./ i.i.' r.p.M.i.i.p.f.i.e.f.g.B.u.q.I [ <.<.W q.x.X...X.b.v.P f.e  .` | { A.a.` ",
"G X.I W { } 2.2.~ 8 S ..{ O.c.q I J I I { G.G.m.} b. .s.r.s.y.s.i.M.M.} a.y. .n.t.u.z.[ Q [ x.x.m.1.{ { n.b.b. ./ a.} c.X.c.G..."
};
