/* XPM */
static char *_1df3df7c8b94e56dc9673c9f2d81677uU60ojjrjYlHDO7Z[] = {
/* columns rows colors chars-per-pixel */
"64 64 255 2 ",
"   c #290703",
".  c #350A05",
"X  c #3A0A05",
"o  c #3D110A",
"O  c #251F1C",
"+  c #28221E",
"@  c #271E20",
"#  c #272624",
"$  c #2C2C2B",
"%  c #332C2C",
"&  c #382B28",
"*  c #2F312E",
"=  c #37322D",
"-  c #373532",
";  c #3C3A36",
":  c #3D3C3B",
">  c #440C05",
",  c #4A0D06",
"<  c #560C06",
"1  c #44120B",
"2  c #4A140C",
"3  c #56140C",
"4  c #4F1810",
"5  c #561912",
"6  c #5D1C14",
"7  c #72140C",
"8  c #661D13",
"9  c #4C251C",
"0  c #6A2117",
"q  c #762319",
"w  c #43232C",
"e  c #592A26",
"r  c #483A29",
"t  c #542E35",
"y  c #473937",
"u  c #423E3B",
"i  c #573A39",
"p  c #73302C",
"a  c #4D422E",
"s  c #54452F",
"d  c #49433B",
"f  c #554A34",
"g  c #5C4D35",
"h  c #554738",
"j  c #5C4D3A",
"k  c #5D5136",
"l  c #53503E",
"z  c #5D523C",
"x  c #624B3A",
"c  c #635437",
"v  c #63543C",
"b  c #69563D",
"n  c #65593E",
"m  c #6A5A3E",
"M  c #715D3F",
"N  c #6F613D",
"B  c #503F44",
"V  c #6A3847",
"C  c #763646",
"Z  c #444342",
"A  c #494645",
"S  c #4C4945",
"D  c #4D4C4B",
"F  c #574945",
"G  c #534D4B",
"H  c #5A5248",
"J  c #5F4F50",
"K  c #545353",
"L  c #5B5554",
"P  c #5B5957",
"I  c #5B5B5A",
"U  c #684645",
"Y  c #78474B",
"T  c #645541",
"R  c #6B5543",
"E  c #665A43",
"W  c #6C5C43",
"Q  c #66584A",
"!  c #6C5D4B",
"~  c #715E44",
"^  c #79574A",
"/  c #725E4A",
"(  c #6C4E53",
")  c #774A53",
"_  c #675954",
"`  c #625D5B",
"'  c #765858",
"]  c #5F645C",
"[  c #6E6146",
"{  c #67614C",
"}  c #6D624B",
"|  c #736245",
" . c #7A6447",
".. c #73644B",
"X. c #7A654C",
"o. c #76694D",
"O. c #7C6A4D",
"+. c #6C6253",
"@. c #69645C",
"#. c #746552",
"$. c #7B6652",
"%. c #756A53",
"&. c #7B6C53",
"*. c #7A655A",
"=. c #756E5B",
"-. c #7C6D5A",
";. c #7D7155",
":. c #797358",
">. c #7D725B",
",. c #725E61",
"<. c #656463",
"1. c #6A6463",
"2. c #6D6C6B",
"3. c #756A65",
"4. c #7D7361",
"5. c #75736C",
"6. c #747372",
"7. c #7C7977",
"8. c #920E06",
"9. c #B71506",
"0. c #88281B",
"q. c #97281A",
"w. c #AF2817",
"e. c #852C22",
"r. c #8A3329",
"t. c #97362B",
"y. c #8E3732",
"u. c #A73528",
"i. c #B4382D",
"p. c #CD1901",
"a. c #D82307",
"s. c #C52D1B",
"d. c #D52D16",
"f. c #E82908",
"g. c #F62C07",
"h. c #FB2C02",
"j. c #ED3018",
"k. c #F5331A",
"l. c #C8382A",
"z. c #D3362B",
"x. c #DA3937",
"c. c #E83629",
"v. c #F33828",
"b. c #EA3832",
"n. c #8F443F",
"m. c #AF453A",
"M. c #F54116",
"N. c #DA4634",
"B. c #EE442F",
"V. c #EA463A",
"C. c #8F3557",
"Z. c #B73E42",
"A. c #A53D65",
"S. c #CD3847",
"D. c #8B504A",
"F. c #874856",
"G. c #964B5C",
"H. c #885758",
"J. c #96565B",
"K. c #B74946",
"L. c #B35351",
"P. c #86644D",
"I. c #826C4D",
"U. c #896756",
"Y. c #826D53",
"T. c #846E5A",
"R. c #93645A",
"E. c #95685B",
"W. c #837255",
"Q. c #897455",
"!. c #897856",
"~. c #83745B",
"^. c #8A755A",
"/. c #85795D",
"(. c #8B7B5D",
"). c #937459",
"_. c #937C5D",
"`. c #B16558",
"'. c #984A61",
"]. c #895861",
"[. c #985664",
"{. c #9B5C63",
"}. c #A54965",
"|. c #B4476D",
" X c #A75767",
".X c #B35A67",
"XX c #B74770",
"oX c #B75772",
"OX c #886A67",
"+X c #9C6463",
"@X c #97686A",
"#X c #837562",
"$X c #897661",
"%X c #857A63",
"&X c #8B7C62",
"*X c #8C766B",
"=X c #857C69",
"-X c #8C7D6A",
";X c #917D62",
":X c #977A69",
">X c #857877",
",X c #987374",
"<X c #A56668",
"1X c #A6756A",
"2X c #B36C76",
"3X c #A77473",
"4X c #C74646",
"5X c #DD4A44",
"6X c #CE524C",
"7X c #C85854",
"8X c #D65D5A",
"9X c #EA4B45",
"0X c #E75954",
"qX c #CC645E",
"wX c #E96259",
"eX c #C54D7A",
"rX c #D76866",
"tX c #D5716F",
"yX c #E56764",
"uX c #EB7468",
"iX c #E37873",
"pX c #93825F",
"aX c #8D8164",
"sX c #86816C",
"dX c #8D826A",
"fX c #938265",
"gX c #9A8667",
"hX c #92846B",
"jX c #93896C",
"kX c #9A8A6C",
"lX c #8D8473",
"zX c #888578",
"xX c #968674",
"cX c #948B74",
"vX c #9B8C72",
"bX c #958B79",
"nX c #9C937A",
"mX c #A58A74",
"MX c #A88A74",
"NX c #A29377",
"BX c #D2897B",
"VX c #E5867C",
"CX c #868482",
"ZX c #968682",
"AX c #9B9684",
"SX c #A38585",
"DX c #A59B89",
"FX c #A9A592",
"GX c #AEA594",
"HX c #B9B6A8",
"JX c #E89186",
"KX c #E59F97",
"LX c #E99896",
"PX c #F1BAB3",
"IX c #F0C4B9",
/* pixels */
"J l ~.~.~.4.T./ Q ! F =.3.+.Q R E #.Q ! ! $X3XOX3X2X@X$XbX*XY.&.Y.^./.$.&.lXAXT.&X^.T.$.$.$.! $.$X-.-.+.&XvXT.&.T.T.&.-.kXdX=XH ",
"Q f ..[ %.%.;.| W W j z a s T k W W ..v v ^ 2X X,X2X}.H.lX~.X...W o.E j ! Q -.&.O.I.O.Y.O.m m ~ %.&.| O.Q.^.fXkXvX$.&.&.| /.>.:.",
"#X&.!.%.~.fXY.| | c g f s c | ;./.;.%XW W Y.<X|.@XSX2XG.R W ~ W ..W E E v W T o.O.Y.Y.O.| ~ | E ! } /.(.(.o.-.o.~.aXfX(.W.&.>.%.",
"T.&.&.%.o.v | W X.c v k n / W ;.o.~.g W W | H.XX[.7.*XH.C x x ^ U.^ s j T v E n R fX^.I.W.O.~ W g s x &.W.^.! ..W &X&X~. .&.~.&.",
"&.^.&.dXW W v W | O.| n [ ~ n R n W | W | W H.}.[.1.7.1.C Y ^ @XMXY x g v T s j W.W. .I.I.I.| v W c W W O.Y.>.} fX~.W.gX&.&X=Xo.",
"..W W.~ v c c W ~ O.| ..W | ~ | W  .| n | | $.2XoX' 6.6.) F.J.H.@X+XY R g R X.P.U.U.Y.W.I.O.| W W z j W ~.&XE } ~.X...&X#X>.bXo.",
"~.n n c | W n W ~ ~ v W W W ~ / | ~ | E ..v T.2X{.V I 6.3.[.+X*.G. XJ.D.U.R.J.G.R.).).W.W.| W n n c n j #.[ W [ ..&X>.>.-XQ =.>.",
"~.-X(.| R | W m | W c ~ ~ ~ X.X.X.&.W | T W *.2XF.F L 3.>XOX' ` ' H.J. X.X XG.Y D.R.;XfXW.X.W v c v v n j c n o./.~.#.4.-XhX-.| ",
"-X&X| n W O...W W n b ~ m W.~ X.o.o.! W W &.W.J.[.G.' 3.3.` L <.1.L ) '.'.F.U Y  XE.O.W. .X./ c c n c v c | ..E ~.#.;.>.>.vX>.~.",
"fXvXN n / ~ c W W k n n W | | ..b E n W | W o.^ H.<XG.' P K <.6.2.` F U ( F U [.+X^.W.|  .| o.W c v j f c W W fXhXo.W ;.v v o.| ",
"-X&.W b W n W ~ | W g W W | c | W g n v &.E W ~ X.+X|.F.D D D <.<.K : : S G ( J.).Q.O.X.O.X...W c W | W c W X.!.fXW r r g E E ;.",
"#XO.N m m W E n W v v W E / j ~ m c n W o.....;.-.:X X) A D A D D : $ $ y F H.J.Y._.I.W.Y.b n E ~ W b b m ..~ ~ X.&.r s H l r a ",
"#.o.| W W m ! ~ ..n c R Y.~.n W c b W W &.} Q | -.U.{.) Z K P D Z % # & i H.J.U.^._.^.o.o.~ | T.T.-.W n n W ~ M n g s h Q E f f ",
"! E b v n ~ b | O.~ R ;.%X>.| T T c W W -.| | E } T.2XG.F D P P d # # x H.E.U.Y.W.W.!...&.W &.-./.dXW b ~ b g c n z f T f l h z ",
"T z n T | | ....~ b ..~.>.&.[ W v n b W &.! f Q >.^..X'.1.K D D - O i J.<XP.~ Y.X.X.!.W.o.&.fX-.W.jX;.(.kXW.c v j E s z H l s n ",
"Q g g z c | | W.W.M &XhXn W ~.$X-.o.T W ..o.[ ;.~.T.{.].<.K d ; ; S H. X1XY.Q.Q.Q.Q.~./.W o.jX&.;.aX&.;X_.;X| T W v k W z r f n ",
"T v v g n W | %.o.O.o./ v ~.&X&X(.W.o.W W ..o.o.W.P.<XJ.J D : A ` 3.OX X<XY.Q.!. .O.pXhX| [ o.! &.&X~.gX^.^.| n v W | W z z z v ",
"T c j E b ~  .| [ %.-.&.&XvX~...| o.o.&.| ~ !.W.-XMX<X) d ; $ D 2.6.7.@X<X).X.I. .W.!.!.| W W | -.~.~.fXW./...~ W W $.#.! f j v ",
"! g j W ~  .O.~ >.-X~././.AX%.X.T W W v W [ (.^.:X<X' d = e e ; 1.>X>X,X XE.~  .~ O.gXo.n W | W.W o.~...;.pX~.Y.&.&XjXvX>.v z g ",
"-.z v v W O. .X.$XnX&.o.#.&.&XvX#.E W W W n | kX XF.i - q f.d.C 1.7.CXZX{.<XP.~ ~ O._.W.f c v #.W W...n W | ~ / aXdX%X%XhXT o.-.",
"*.W n [ o.o.^.W.&.&.sXZX~.W.#X:.E v c W n W $.+XoXV * % w.g.v.S.J.5.CXCX@X<XR.Y.X.W.O.I.| ~ v W fX(.v n c g [ =XdX-XhX} %X%X&.&.",
"/ | W ! ....-.fX&.[ lXHXo.;.>.z  .! z v g ..H.}.F.y # q f.f.B.V.L.2.CXCX>X{.R.^.!.I._.^.Y.~ W | Y.| n W ~ g >.&.dX#XdX! /.:.Q [ ",
"/ W | [ W ~.$X%.lX/ AXDXdX=X| N (.cX4.h H :X<XG.t # e x.9Xl.4XrX.X,.7.zX7.OX<XT.Q.Y.O.W.I. .~ ~ O.v W [ W j ~.hX&X&./.~.&.o.W n ",
"! W W ..&.%XcXAXlXDXFXzXFX>.v N ..+.=.#X#XT.2XY - & s.0X8Xu.l.9X4X[.2.7.7.>X{.H.I.~ O.!.O.~ ~.&XX.v W &.v n >.~...$X&./.} n W v ",
"Q n z ~.~.%.bXHX*XAX%.! o.W W o.;.%.=._ OX@X[.i * e.V.v.w.7 8.f.b.}.1.7.6.7.@X3XU.O...~.| | ;._.Y./ X.$.v / n &X~.o.E /.T T T n ",
"#.E [ ~.#.| :.FXDXbXlX>.#XW W o.m { @.=.*X XY - y d.g.9.7 < 7 p.h.5X' 5.7.7.,X3XR.X.o.$.~ b ..b &.| ^.| fXvXo./.Q.....&XW E v T ",
"/ $.&.>.~.hXW.=X=XlXDX#.~ b n n W +.{ v H.'.i = u.V.a.8.< > < 8.f.v.G.1.>X7.>X[.J.X.%.&X/.Y.Q. .I.I._._.^.(.fX&X;XY.vXhXW c g v ",
"Q E /.%.#XHXFX&.~.~.%X..W o.W W v %.H R {.H.y e 5XyXa.7 > . < 8.p.h.S.` 6.6.6.' G.U.~.%X$XQ.I. .O.I.I.)._.gXpXgXkXgXkX(.(.-.W k ",
"! #.o.%./.AX>.&XW.&.o.(. .%.#.k c k W ^ }.Y & w.g.f.8.< X   X < 9.g.b.) <.2.6.OX{.1X-X&X-.Y.Y.Y.O.Q.(._._.pX_.kXNXkX^.W.>.jX>.R ",
"-.FX*X&X~.(.&X..&.W.~.&X~.&.g z c  .R F.A.t e f.h.a.7 , X   X < 8.g.g.K.@.6.6.7.].<X#XbXxX&XT.Y.(.^.I.I.I._.I.;XNXfX/.hX#X=XnXbX",
"$X~.$XhX~.^.gX_.~.^.hXxX&XW./.W.Y.kXMX}.C.w q.h.g.w.7 ,     . , 8.p.h.x.` 2.6.6.@XoXE.bXbXhXxXxX&XY.I.I.^._.I.R /.NX/.#.4.4.lX#X",
"&XhX&X-XhX^.kXgX^._.vXDXhXfXfXcXT.X.E. Xi + i.9Xl.q.0.3 X   . > 7 9.h.k.Y <.6.6.OX X+X-XxXxXhX&X_.Q. .I._.gX;X-.~.vXNX~.#.>.+.%.",
"$XaX&XjXkXfX;X;X!.fXjXnX-X~.W.T.GXY G.oXi & BXLX7Xt.q > .   > 3 7 w.f.g.Z.I 2.1.1.F. XU./ ..b W o.(.n | ^.pX| W c %.dXdX-.dX=X>.",
"~.~.-X(.fX!.o.(.fXW.!.jXNXhX&XOXxXC.A.C.w t KXLX8Xr.8 , .   X 6 0.u.j.g.c._ 2.<.2.].}.R.T. .W &.~.Y.X.O.&.W z j W >.=.lXbX-.%.~.",
"hXaXjX(.aX| W fX-X&X&XaXjX(.R.{.}.XXA.C.w i rX9Xz.0.3 X .   o 0 r.u.N.k.k.D.<.<.2.OX}.1XU.b ~ ~ ~.~.-.Y...v g g Q ~.-.=XcX%X%.%X",
"dX~.&.%.dX&.k pXaX&.&.#X| T [.}.XXeX) w @ i rXwX6Xt.8 X .   . 6 t.t.l.g.h.i.L <.<.1.[.2XE.~  .W o.#.T W | c n W c %X:.%.{ =X} :.",
"~.jX%X%X/.W k ;.&XhXDXnX&X[ '.C.'.eXC.$ @ D.iXLXtXm.0 5 1 .   5 r.t.m.5X9Xx.J I ` 1.[.eXR.P.~ X.| v E W | X.c R [ cXdX4.H E W [ ",
"-X/./.-.[ v f o.#XlXAXa 9 r A.'.U F.) y & .XVXJXtXK.q 6 5 X . 2 y.r.u.V.yXx.U K K P ' oX<X^.^.Y.&.n W W pX_.^.v / kXhX} W n ~.W.",
"dXW.(.jX:.;.z z FXnX-.r a r A.F.y u G B = L.JXJXtXK.r.6 5 o X 1 e.0.K.5X0X9Xy.D D K ,.|. XP.O.~.| v | /.W.(.fXW.g &XkX$X~.&.o.!.",
"&X~././.&.~.} ;.;.~.o...;.o.}.V u $ - : % i.rXVXVX7Xt.0 5 1 X 1 q e.K.8XB.v.r.u G K _  X.XE.Y.W.o./ ~.(.W.W.fXfX~.E xXvX>.fX[ /.",
"~./.o.;.W./ z o.| ;.~./.;./. XF Z $ $ - % s.V.0XtXrXm.0 6 1 X 2 p y.m.5Xv.b.r.y K K ` H.|.U./.W W O.!.(.W.~ (.vX&.j hXnX&X..| /.",
"dXdX&X-.FXHXz [ -.4.-X..&X~.[.F d ; - $ % s.M.v.8X7Xt.6 4 o o 1 p q u.l.v.iXJ.; D G L ' .XE.Y.n o.(.~.hXfXW.(.jX~.! hXhX%.%X;.hX",
":.~.xXbXFXDXT >.W.-.4.~.lXhX[.h ; ; - $ % s.h.h.N.m.r.6 1 o . . 8 8 0.w.wXKX.X- d Z G '  X+X^.~ -.-.&.(.NXjXxXDXT g %XdX-.=X&.(.",
"&X%.&X~.AXlXbXAX(.&X>.~.cXAX,XA - - * # % l.h.g.w.0.0 5 o .   . 4 6 e.L.iXwXl.- y d G _ F.<X^.Y.&.fX~.| &XkXNXDX&.-.gXvXhX| &.~.",
"&X~...&.-.-XlX4.-.&.#X%.$XbX3.A - - % # t d.h.f.u.t.6 1 o .     2 8 t.K.c.g.x.y ; d S L F.<XU.T.fXmX&X&.W.&XNXnX~.fXvXnXcX&.~.;.",
"#X-.>.hXfXkXT./.~.~.&X:.-.>.) y - - $ # e j.k.s.u.0 , . .     . o 2 8 0.a.h.b.r ; S S G ) }.R.:X:X1XfXfXW.W.&.kXn -.-.-.%X&.&...",
"#X4.~.&.~.aX| ~.%.-.&.-.cX%.U - % = $ # e f.k.s.0.3 >       X 1 X > q q.f.v.v.p u G G P ' }.<X1X+X XW.(.(.;.hXW.| W.aX>./.~.&.&X",
"bXlX/.-...&.>.aXhXfX&...&.*.U y : S % O 9 f.h.s.q 8 3 > X X X X o 2 r.r.4XiXyXy.A I P <.3.oXtX{.[.|.(.fX&X>.jX%.W | &.=.%.&.&X(.",
"T.~./.&.../.hX&.dXdX/.%X/.Y.{.F d G = O 9 a.g.9.w.t.r.0 3 < > X 1 6 r.e.K.VXuXl.G ] I <.3.|.eX) F.XXhXW.&...z :.>.E ! v [ &./.!.",
"-X-.&.~.o.&.4.>.&X;XvX&X~.%X3XH.) F.U = r a.h.v.wXqXL.m.q.8 , , , 8 q 0.u.qXyXi.G I P I 1.F.|.V h }.~.o.o.-X| ! j E W z &.~.&XfX",
"&Xo.&.%X:.%.%.-XhXjXdX-X~.-.mX:X+X<X+XU Y i.j.0XJXKXVX8Xd.q.q q 0 p q e.K.rXyXi.A P K P L V C.t i [.&.%X../.o.c g E n W j -.W.;.",
">.~.(.{ %.=X=X-X~.>.&X-X-.%.#XdX-.U.H.@XJ.+XL.L.iXVXiXwX5X7Xm.q.q 0 8 r.tXJXLXL.Z K D K L V C = y [.&XE g v ..-.c [ n o.&X(.W.W ",
"~.W.&.o.=.} >.:.%X%X~.&...{ >.%.#.! Q / ! ^.Y.P.U.L.6XJXLX9Xk.d.q.7 7 e.L.PXPX<X; A A D ` u ; = y H.hX(.W E -.-.s W c  .^.W.&X;X",
"&XW.~./.;.o.&.%X>.o.&.#X%X| E o.} -.j T W o.~.| O.Q.Q.1X6Xk.h.h.a.9.q.u.i.JXIX1X; : A D I A u ; y ^ o.! Q W | ^.Q.Q.o.O.!.| ;.W.",
";Xo.(.(.;...%.%.! X. .| ^.(.%.;.H T -.-...~ O.| O.X.I.I.).D.m.j.h.h.f.z.K.7XtXD.: : D K K G D d F G.~.v E &.W.I.I.!.O.o.W.&.;.gX",
"-.&X~.~.&.%X..[ &.| b [ | &.+.+.l H ! T W | | O.Q._.W.O.Q.(.&.:X`.N.k.0X6Xc.9Xn.Z Z P D A A P G J H.&XX.z >.[ O.Y.I. .hX%.&X-.&X",
"=XaX&X~.^.! W &.Y.Y.m | (.sXbX=X+.} %.>.&.X.O.O.X.Y. .Q.Y.^.O.!.^.).N.N.b.g.g.D.D D <.u : D P P Q ].=X&XW h ! z n &.W.W.Y.&XW.(.",
"4.[ ..~.&.aX/./.W...b I.~.%.! n W &.Q z  .O.W.~ W.W. .X.W.O.W.&.!.^.E.P.`.4XK._ K K 1.u u ` P P _ @XNX&XW %.n z f >.I.O.~.~.(.W.",
"#.o./././.| o.W  .~./.^.-.=X! c v o.} -.&. . .Y.&.X.o.o.#.&.Y.^.O.Y.;.fXR.<X].L G A J G S <.I _ H.,XhX(.&X[ W E s T W.Y.(.hX>.&.",
"-X&XaXW.o.%.o.$X%.-.-.>.>.=.>.&.c [ g &.Y.W.O.I.Y.W.W.$.&.O.~.;.I.&.W.~.T.1X{.U d d S @.@.2.` ) '.OX=X&.&.[ v z a } X.X.-.#X>.;X",
"_ %Xn W.W.W.&.&.=X4.j } -.W E dX..W %.o.gXW.W.I...-.~ X.~.~.~.Y.W.(.O.~.&X$X+XD.j y K 2.zX>X1.[.<XOX+.mXW.g n a j o.W.Q.~.#.%XW.",
"+.4.&Xo.$.| &.&.%.! S Q %.[ ;.z f n z %.$XY.O.(.W.W.&X^.O.%XW W.^.^.Q.^.!.-XE.1XJ.Y G 5.7.zX` ' @X*X4.&XX.j [ ..v %./.-.%X~.&X~.",
">.=.=.#X!.~.%X! T r l l } n &.f W W ! ! aXgXY.Y.| W.W.I.Y.Q.;X~.W.Q._.W.O.(._.,XR.H.! @.1.1.' ].@X*.=.-.-X&XW (.v &.o.%.#.aX~.o.",
"L -.! / #.*.4.4.} j H =.#.>.#Xx ! T ! ! #.hXhX*X*.&X&./.Y./.T.^.^.;X;X$.~.T.Y.$XU.R.OX@.] @.@X@X*X3.+.#.&X&X-X&.| ~.*.#X-.#XlX=."
};
