/* XPM */
static char *f6c870de567a4b69c0ccc72d2872117dNJD6qI6fXchPTWON[] = {
/* columns rows colors chars-per-pixel */
"64 64 246 2 ",
"   c #1D1D1D",
".  c #221E19",
"X  c #1F221F",
"o  c #24221E",
"O  c #271E20",
"+  c #252523",
"@  c #272825",
"#  c #2D2924",
"$  c #2D2C2B",
"%  c #352B27",
"&  c #322F2D",
"*  c #2F312E",
"=  c #33312E",
"-  c #3B3629",
";  c #3B332C",
":  c #343433",
">  c #3B3633",
",  c #373935",
"<  c #3C3A36",
"1  c #3C3C3B",
"2  c #422C1A",
"3  c #43232C",
"4  c #463B2A",
"5  c #542C37",
"6  c #433A34",
"7  c #493836",
"8  c #423E3C",
"9  c #4A3C3A",
"0  c #573B3B",
"q  c #63383E",
"w  c #4D422E",
"e  c #54452F",
"r  c #4E4133",
"t  c #45423D",
"y  c #4B443C",
"u  c #534433",
"i  c #554A34",
"p  c #5C4D35",
"a  c #5A433C",
"s  c #564C3C",
"d  c #5C4D3A",
"f  c #5D5136",
"g  c #53503E",
"h  c #5D523C",
"j  c #624B3A",
"k  c #635437",
"l  c #63543C",
"z  c #69563D",
"x  c #65593E",
"c  c #6A5A3E",
"v  c #715D3F",
"b  c #6E603E",
"n  c #70613D",
"m  c #543C43",
"M  c #742C49",
"N  c #673745",
"B  c #77384A",
"V  c #444342",
"C  c #494644",
"Z  c #4C4945",
"A  c #4D4C4B",
"S  c #564844",
"D  c #534D4B",
"F  c #594A49",
"G  c #5E5442",
"H  c #54514D",
"J  c #5D514B",
"K  c #5F4F50",
"L  c #545453",
"P  c #5B5453",
"I  c #5B5957",
"U  c #5B5B5A",
"Y  c #684746",
"T  c #78474A",
"R  c #645542",
"E  c #6B5643",
"W  c #665A43",
"Q  c #6C5C43",
"!  c #66574A",
"~  c #6C5D4A",
"^  c #715E44",
"/  c #79574A",
"(  c #725E4A",
")  c #6C4E53",
"_  c #774954",
"`  c #635352",
"'  c #6C5A55",
"]  c #635D5C",
"[  c #765857",
"{  c #5F635E",
"}  c #6E6146",
"|  c #67614C",
" . c #6D624B",
".. c #736245",
"X. c #7A6447",
"o. c #74634B",
"O. c #7A654C",
"+. c #76694D",
"@. c #7C6A4D",
"#. c #6C6253",
"$. c #69665B",
"%. c #6A635E",
"&. c #746552",
"*. c #7B6552",
"=. c #756A53",
"-. c #7B6C53",
";. c #7A655A",
":. c #756E5B",
">. c #7C6D5A",
",. c #7D7155",
"<. c #797358",
"1. c #7D725B",
"2. c #6B5F60",
"3. c #7A5C63",
"4. c #656463",
"5. c #6A6463",
"6. c #6D6C6B",
"7. c #776965",
"8. c #726C65",
"9. c #7D7361",
"0. c #7E7963",
"q. c #72716F",
"w. c #747372",
"e. c #7D7473",
"r. c #7B7877",
"t. c #7D7C7A",
"y. c #892C53",
"u. c #893B56",
"i. c #9A3D5E",
"p. c #A63E66",
"a. c #84434E",
"s. c #845A4E",
"d. c #854354",
"f. c #844B53",
"g. c #894858",
"h. c #8C4B5C",
"j. c #964B5C",
"k. c #934C5D",
"l. c #845354",
"z. c #885758",
"x. c #8C5B5B",
"c. c #93525C",
"v. c #955B5C",
"b. c #99585C",
"n. c #84644C",
"m. c #826C4D",
"M. c #846554",
"N. c #8B6354",
"B. c #826D53",
"V. c #896B53",
"C. c #88645A",
"Z. c #846E5A",
"A. c #8C6C5D",
"S. c #93645B",
"D. c #95655A",
"F. c #926B5D",
"G. c #837255",
"H. c #897456",
"J. c #897856",
"K. c #83745B",
"L. c #8A755A",
"P. c #85795D",
"I. c #8B7A5D",
"U. c #92755B",
"Y. c #937C5D",
"T. c #9B4561",
"R. c #944C62",
"E. c #9C4B62",
"W. c #8B5761",
"Q. c #945362",
"!. c #9B5463",
"~. c #985B67",
"^. c #9C5B64",
"/. c #A74767",
"(. c #A44C64",
"). c #B4456D",
"_. c #B34D6D",
"`. c #A25464",
"'. c #AA5465",
"]. c #A25C64",
"[. c #A45569",
"{. c #AC546B",
"}. c #A55B6A",
"|. c #AC5B6C",
" X c #B2586B",
".X c #B74770",
"XX c #AF5973",
"oX c #B75872",
"OX c #886A66",
"+X c #9C6363",
"@X c #976868",
"#X c #837561",
"$X c #8A7561",
"%X c #857A63",
"&X c #8B7C63",
"*X c #8C766B",
"=X c #857C69",
"-X c #8C7C6A",
";X c #917D63",
":X c #9B7769",
">X c #927D6A",
",X c #9A6B75",
"<X c #857877",
"1X c #977874",
"2X c #A36366",
"3X c #A9646B",
"4X c #A46868",
"5X c #AA696A",
"6X c #B4656E",
"7X c #A6756C",
"8X c #AD6773",
"9X c #B26B73",
"0X c #B66779",
"qX c #A97873",
"wX c #B4777B",
"eX c #C54D7A",
"rX c #C16C7C",
"tX c #93825F",
"yX c #98805E",
"uX c #8D8164",
"iX c #86816C",
"pX c #8D826A",
"aX c #938265",
"sX c #9A8665",
"dX c #92846B",
"fX c #9A856B",
"gX c #94896C",
"hX c #9A8A6C",
"jX c #8D8473",
"kX c #888578",
"lX c #938571",
"zX c #948B74",
"xX c #9B8C72",
"cX c #958B79",
"vX c #998978",
"bX c #9C937A",
"nX c #A58A74",
"mX c #A88A74",
"MX c #A29377",
"NX c #868482",
"BX c #968682",
"VX c #9B9684",
"CX c #A38585",
"ZX c #A59B89",
"AX c #A9A592",
"SX c #B9B6A8",
/* pixels */
"J s K.K.K.9.Z.( ! ~ S :.8.#.` E W &.! ~ ~ $XqXOXqXwX@X$XvX*XB.-.B.L.P.;.=.jXVXZ.&XL.Z.;.*.&.~ *.$X>.>.#.&XxXZ.-.Z.Z.=.>.hXpX=XJ ",
"` i o.} =.=.,...Q Q s h r e R f Q Q o.l l / 9X}.,X0X(.l.jXK.O.o.Q +.E d ~ ! >.-.@.m.@.B.@.c c ^ =.-...@.H.P.aXhXxX*.-.-...P.1.<.",
"#X-.J.=.K.aXB.....k p i e k ..,.P.,.%XQ E M.2X_.@XCX0Xk.E Q ^ Q o.Q W W l Q R +.@.B.M.@...^ ..W ~  .P.I.I.O.>.+.K.uXaXI.G.-.1.=.",
"Z.-.-.=.+.l ..Q O.k l f x ( Q ,.+.K.p Q Q ..z..X~.e.*Xx.B j j / A./ e d h l W x E aXL.m.G.@.^ Q p u j -.G.P.~ o.Q &X&XK.X.-.K.-.",
"-.P.=.pXQ Q l Q ..@...x } ^ x E c Q ..Q ..Q s.(.Q.5.r.5.B T / @XmXT j p l R u d G.G.@.m.m.m...l Q k Q Q O.Z.1. .aXK.G.hX-.&X=X+.",
"o.Q G.^ l k k Q ^ @...o.Q ..^ ..Q X...x ....*.wXXX[ w.q._ g.c.z.@X+XY E a E O.M.M.V.V.G.m.@...Q Q h d Q K.&XW  .K.O.o.&X#X1.cX-.",
"K.x x k ..Q x Q ^ ^ l Q Q Q ^ ( ..^ ..W o.l Z.wX~.m U q.7.!.+X;.k.{.b.s.N.S.b.c.S.F.U.G.G...c c c k x d &. .Q } o.&X1.1.-X! :.1.",
"K.>XI...E ..Q c ..Q k ^ ^ ^ O.O.O.-.Q ..R Q *.8Xl.S P 8.<XOX[ ] [ z.c.'. X'.j.T f.D.;XaXG.O.c l k l l x d k x +.P.K.&.9.-XlX-...",
"-X&X..c Q @.o.Q Q x z ^ c G.^ O.+.+.~ Q Q -.G.x.!.k.[ 8.8.] P 4.5.P _ E.E.f.Y T `.D.@.G.X.O.( k k x k l k ..o.W K.&.,.1.1.xX1.K.",
"aXxXb x ( ^ k Q Q f x c Q ....o.z W x Q ..Q +./ l.3XR.[ I L 4.w.6.] F Y ) F Y ~.+XL.G...X...+.Q k l d i k Q Q aXdX+.Q ,.l l +...",
"-X-.Q z Q x Q ^ ..Q p Q Q ..k } Q p x l -.W Q ^ O.+X/.d.A A L 4.5.L 1 < Z D Y v.F.H.@.O.@.O.o.Q k Q ..Q k Q O.J.aXQ 4 4 p W W ,.",
"#X@.b c c Q W x Q l l Q W ( d ^ c k c Q O...o.,.Z.:X}._ C A C A A 1 $ $ 6 S l.v.V.Y.m.G.B.z x W ^ Q z z c o.^ ^ O.-.4 u G s 4 w ",
"&.+...Q Q c ~ ^ o.c k E -.K.x Q k z Q Q -. .! ..>.C.^._ V L I A V & + % 0 l.v.N.P.Y.L.O.O.^ ..Z.Z.-.W x x Q ^ v c p u s ! W i i ",
"~ W z l x ^ z ..@.^ E ,.%X1...R R k Q Q -.} ..W  .A.9Xk.F A I I t $ # j l.D.N.Z.G.G.J.o.-.Q -.-.P.pX~ z ^ z p k x h i R i s u h ",
"R h x R ....o.o.^ z o.K.1.-.} Q l x z Q -. .i W 1.L.|.R.2.L A A : o 0 x.4Xs.^ B.O.O.J.G.+.-.aX-.G.gX,.I.hXG.k l d W e h G s e x ",
"! p p h k ....G.G.v &XdXc Q K.$X-.+.R Q o.+.} ,.G.Z.^.W.4.L t , < Z l.`.7XB.H.H.H.J.K.P.Q +.gX-.,.uX-.;XY.;X..R Q l f Q h 4 i x ",
"R l l p x Q ..=.+.@.+.( l K.&X&XI.G.+.Q Q o.+.+.G.M.2Xx.K A 1 C ] 8.OX}.4XV.H.J.X.@.Y.dX..} +.~ -.&XK.hXP.P...x l Q ..Q h h h l ",
"R k d W z ^ X...} =.-.=.&XxXK.o...+.+.-...^ J.G.>XmX2X[ y < $ A 6.r.e.@X2XU.O.m.X.B.I.J...Q Q ..-.K.K.aXG.P.o.^ Q Q *.&.~ i d l ",
"~ p d Q ^ X.@.^ 1.-XK.P.P.VX=.O.R Q Q l Q ..I.L.:X4X[ y = + X , 4.<XkX1X].D.^ X.^ @.sXO.x Q ..G.Q +.K.o.,.tXK.Z.-.&XgXxX1.l h p ",
">.h l l Q @.X.O.$XbX=.+.&.=.&XxX&.W Q Q Q c ..fX`.d.0 : @ + 5 N 5.t.NXBX^.4Xn.^ ^ @.Y.G.i k l &.Q G.o.c Q ..^ ( uXpX%X%XdXR +.-.",
";.Q x } +.O.K.G.-.-.iXBXK.G.#X<.W l k Q c Q *.+X|.N = # + # u./.z.q.NXNX,X3XD.M.@.G.@.m...^ l Q gXI.l c k p } =XpX-XdX .%X%X-.-.",
"' ..Q ~ o.o.-.aX-.} jXSX+.,.1.h X.~ h l p o.s.`.g.7 @ + # 0 }.).Q.6.NXNX<X~.D.L.J.m.Y.P.M.^ Q ..B...c Q ^ p 1.=.pX#XpXW P.<.! } ",
"( Q .. .Q K.$X=.lX( VXZXpX=X..n I.zX9.u G >X2Xj.5 @ + + 6 l.2X'.}.3.t.kXr.OX4XA.H.B.@.G.m.X.^ ^ @.l Q } W d K.dX&X-.P.K.-.+.Q x ",
"~ Q Q o.-.%XcXVXlXZXAXkXAX1.l b o.#.:.#X#XA.5X_ > $ + # q ].4X+X{.Q.6.t.r.<X~.x.m.^ @.J.@.^ K.&XO.l Q -.l R 1.K.o.&X-.P. .x Q l ",
"! x h K.K.=.cXSX*XVX=.~ +.Q Q +.,.=.:.' Z.@X!.0 * $ $ ; f.+XA.F.|.E.5.t.t.e.@XqXM.@.o.K.....,.Y.B.( O.*.l ( x &XK.O.Q P.R R R x ",
"&.W } K.&...<.AXZXcXlX1.#XQ Q +.c  .$.:.*X}.T > : & $ 7 f.x.^ / 3X|.[ q.t.t.1X5XN.O.+.*.^ z o.z -...P...aXxXO.P.H.o.o.&XQ W l l ",
"( *.-.1.K.dXG.=X=XjXZX&.^ z c x Q #.| l l.j.0 * : $ & B c.Y ..Z.@XXXh.5.<Xt.<X!.v.O.=.&XK.Z.H.X.m.m.Y.Y.L.I.aX&X;XB.xXdXQ k i l ",
"! W P.=.#XSXAX-.K.K.%Xo.Q +.Q W l ,.G Y ^.h.9 = $ $ ; a.x./ O.$X1X0XT.] r.w.w.[ j.A.K.%XP.H.m.X.@.m.m.U.Y.sXyXsXhXsXhXI.I.1.Q f ",
"~ &.-.=.P.VX1.&XG.-.O.I.X.=.&.f f f Q / (.T ; & $ $ N j.x.L.O.=.#XwXXX) 4.6.w.OX^.7X>X&X>.M.Z.Z.@.H.I.Y.Y.yXY.hXMXhXP.G.1.gX1.E ",
">.AX*X&XK.I.&Xo.-.G.K.&XK.-.p h k X.E a.p.5 $ = & $ a.b.N.X.G.H.Z.qX0XR.{ w.w.e.W.3X#XcXzX&XZ.B.I.L.m.m.m.Y.m.-XMXaXP.dX#X=XbXcX",
"$XK.$XdXK.P.sXY.K.P.dXzX&XG.P.K.Z.hXmX(.y.3 $ $ $ ; k.b.V.z ^ o.K.:X9XR.I 6.w.w.@X|.F.cXcXdXlXxX&XV.m.m.L.Y.m.E P.MXP.&.9.0.jX#X",
"&XdX&X-XdXL.hXsXP.Y.xXZXdXuXgXxXZ.O.D.|.q o $ $ $ 0 ^.v.B.o.O.*.&.A.|./.` 4.w.w.OX{.+X-XzXlXlX&XY.H.X.m.Y.sX;X-.K.xXMXK.&.1.#.=.",
"K.uX&XgXhXaX;X;XJ.aXgXxX-XK.G.Z.SXT E.oXq + : : : d.`.S.M.+.~ -.+.*.b.|.l.U 6.5.5.g.[.C.( o.z c +.I.c ..P.tX..Q k =.pXpX>.pX=X1.",
"K.K.-XI.aXJ.+.I.aXG.J.gXMXdX&XOXvXu.p.y.3 $ 1 , , d.2XF...E h Q ..X.l.|.h.L 6.4.6.W./.S.Z.X.Q -.K.Z.O.@.-.Q h d Q 1.:.jXcX>.=.K.",
"dXuXgXI.uX..Q aX-X&X&XuXgXI.S.^.(.).p.y.3 $ : : > T.b.M.Q Q &XG.X.X.M.9X[.P %.4.6.OX/.5XM.z ^ ^ K.K.-.B.o.l p p ! K.>.=XzX%X=.%X",
"dXK.=.=.pX-.f tXuX-.-.#Xo.R !.{.).eX_ 3 O $ : : 6 |.^./ l } -.K.-.&XfXwX}.F L 4.4.7.~.6XF...X.Q +.&.R Q ..k x Q k %X<.=.| =X .<.",
"K.gX%X%XP.Q f ,.&XdXZXvX%X} E.i.T.eXB #   $ , : S |.qXO.R l $XK.gXgXfXqX8X_ H U ] %.Q.eXS.n.^ O...l W Q o.O.k E } xXpX9.G W Q } ",
"-XP.P.>.} l i +.#XjXVXr 2 4 i.T.Y g._ 6 + $ : , d.9XqX:XhX-XI.&XxX-XK.:X8Xd.A L L I [ oX4XL.L.B.-.x Q Q tXY.L.l ( hXdX .Q c K.G.",
"pXG.I.gX<.,.h h AXbX>.4 w 4 i.g.9 8 F m $ $ 1 8 h.9X7XxX-XuXpXxX-XvXaXOX}.u.8 Z A L 3._.'.N.@.K...l ..P.G.I.aXG.p &XhX$XK.-.+.J.",
"&XK.P.P.-.K. .,.,.K.+.o.,.+./.N 8 $ : 1 $ * 1 V h.5X@XdX&X&XuX-.-.-X-X;.qXT.6 8 D L ' [. XF.B.G.+.( K.I.G.G.aXaXK.W zXxX1.aX} P.",
"K.P.+.,.G.( h +...,.K.P.G.P.[.F V $ $ : $ $ 1 C !.5XnX&XK...G.I.L.I.-XZ.~.T.; < H L ] h._.N.P.Q Q @.J.I.G.^ I.xX=.d dXbX&Xo...P.",
"pXpX&X-.AXSXh  .-.9.-Xo.&XK.!.S t < : $ $ : 1 V /.[.;X-.G.Z.Z.Y.Y.&X>.&X@X(.M , A A P [  XD.Z.x O.I.K.dXaXG.I.gXK.~ dXdX=.%X,.dX",
"1.K.zXcXAXZXR 1.G.>.9.K.jXpX!.a < < : $ $ : : V p.}.M.Q -.P.-...Z.-.#XK.:X`.M : t C H [ {.D.L.^ -.-.-.I.MXgXzXZXR p %XpX>.=X-.I.",
"&X=.&XK.VXjXcXVXI.&X1.K.cXVX,XS > > = + $ : : t /.`.M.^ ^ P.I.K.-.G.&.;.M.Q.B ; 6 t D ` h.2XL.G.-.aXK...&XhXMXZX-.-.fXxXdX..-.K.",
"&XK.+.-.-.-XjX9.-.-.$X=.#XcX7.C > : $ + = > : 6 {.3XV.z O.P.;XyXH.-.>.R ~ g.u.> 6 y Z K g.2XM.Z.aXnX&X-.G.&XMXbXK.aXxXbXxX-.K.,.",
"#XZ.1.pXaXhXZ.P.K.K.&X<.-.1.) 6 : : $ + & = $ > (.3XL.^ &XP.;XaXK.-.-.~ R c.i.; < Z Z D _ `.S.:X:X7XgXaXG.G.-.hXx -.-.>.%X-.-.o.",
"#X9.K.-.K.uX..K.=.>.-.>.lX=.Y > $ = # + # # # ; [.7X:XO.=.;.K.,.W o.R >.j v.j.; 8 D D I ' (.2X7X+X].G.I.I.,.dXG.o.G.uX1.P.K.-.&X",
"cXjXP.-.o.=.1.uXdXgX-.o.-.;.Y 6 1 C & o o # # ; [.4XL.K.K.aX-...-.l >.;.OX8X}.N C U I 4.7.oXrX~.!.).I.aX&X1.jX=.Q ..-.:.=.-.&XI.",
"Z.K.P.-.o.P.dX-.pXpXP.%XP.Z.~.S y H ; . o # # 4 j.+XL.K.G.I.Z.Z.o.O.cX-X@X9Xk.N A 4.U 4.7.{.eXT d.).dXG.-...h <.1.W ~ l } -.P.J.",
"-X>.-.K.+.-.0.1.&X;XxX&XK.%XqXx._ f.Y - - - 7 Y +XF.L.*.1.-.1.%X-.B.vX>.Q.T.0 , A U I U 5.g.).N S (.K.+.+.-X..~ d W Q h -.K.uXaX",
"&X+.-.%X<.=.=.-XdXgXpX-XK.>.nX:X+X3X+XY _ T T x.@XU.Y.I.;.&.-.~ K.-.=.*.g.E.9 = C I L I P N y.5 0 ^.-.%Xo.P.+.k p W c Q d -.G.,.",
"1.K.I.| =.=X=X-XK.1.&X-X>.=.#XpX>.M.z.OXv.+XD.D.V.H.I.U.;Xo.=.xXZ.( G.;X^.T.6 & V L A L P N M = 9 ^.&X! p l o.-.k } x +.&XI.G.Q ",
"K.G.-.+.:. .1.<.%X&XK.=.o.| 1.=.&.' ! ' ( L.Z.O.@.@.-.B.=.G #X-.L.L.G.Z.5X`.6 & 1 C V A ] 9 > = 9 z.dXI.Q W >.>.u Q k X.P.G.&X;X",
"&XG.K.P.,.+.-.%X1.+.-.#X%X..W +. .>.d R Q O.G...@.H.G.H.Q ( W +.aXI.I.$X2Xk.6 : 1 1 C A U C 8 > 9 / +.~ ! Q ..L.H.H.O.@.I...,.G.",
";XO.I.I.,.o.=.=.~ O.X...P.I.=.,.G R -.>...^ @...@.X.m.@.H...*.o.G.fX&XA.3XE.6 , 1 1 A L L H A t S c.K.l W =.G.m.m.I.@.O.G.-.,.hX",
">.&XK.K.-.%Xo.} -...z } ..=.#.#.s G ~ R Q ....@.H.Y.G.@.H.I.-.dXuXK.K.;X6X_.y V V V I A A C I D K h.&XO.h 1.} @.Z.m.X.dX=.&X-.&X",
"=XuX&XK.P.~ Q =.B.B.c ..I.iXcX=X#. .=.1.-.O.@.@.O.Z.X.H.B.P.@.J.L.I.Z.M.3X(.F L A A 4.8 1 A I I ` W.=X&XQ a ~ h x -.G.G.B.&XG.I.",
"0.} o.K.-.uXP.P.G.o.z m.K.=.~ x Q -.! h X.@.G.^ G.G.X.O.G.@.G.-.I.P.L.B.4XE.) U L L 5.8 8 ] I I ` @XMX&XQ =.c h i 1.@.@.K.1.I.G.",
"&.+.P.P.P...+.Q X.K.P.H.>.=X~ k k +. .-.-.O.X.B.-.O.O.+.&.-.Z.P.O.Z.G.aXC.2XW.P D C H D Z 4.U ` z.1XdXI.&X} Q W e R G.B.I.dX1.-.",
"-X&XuXG.+.=.+.$X=.>.>.,.1.:.1.-.k } i -.Z.G.@.m.B.G.G.*.-.@.K.,.m.-.K.K.Z.7X^.Y y t Z %.$.6.] _ Q.OX=X-.-.} l h r  .O.O.>.#X1.;X",
"' %Xz G.G.G.-.-.=X9.s  .>.Q W pXo.Q =.+.fXG.G.m.o.-.^ O.K.K.K.B.G.I.@.Z.&XOX+Xf.d 9 L 6.<X<X5.Q.2XOX#.nXG.p x w d O.G.H.K.&.%XG.",
"#.0.&XO.*...-.-.=.~ Z W =.| ,.h i x h =.$XB.@.I.G.G.&XP.@.%XQ G.P.L.H.H.I.>XF.7Xv.T H q.t.kX] _ @X*X9.&XO.d } o.l =.P.-.%XK.&XK.",
"1.:.:.#XJ.K.%X} R 4 g s  .x -.i Q Q ~ ~ uXfXM.B...G.G.m.B.H.;XK.G.H.I.G.m.I.Y.1XS.z.~ $.5.5.' x.@X;.:.>.-X&XQ I.l -.+.=.&.uXK.+.",
"P >.~ ' &.;.9.9. .d J :.&.1.#Xj ~ R ~ ~ &.dXdX*X;.&X-.P.Z.P.Z.L.G.;X;X*.K.Z.B.$XC.F.OX$.{ %.@X@X*X7.#.&.&X&X-X-...K.;.#X>.#XlX:."
};
