/* XPM */
static char *e6ca6e11e6c24c5fc080238040b72429TIUHf0kPZkHpFYAV[] = {
/* columns rows colors chars-per-pixel */
"64 64 153 2 ",
"   c #0C0E18",
".  c #0E101B",
"X  c #12151E",
"o  c #121522",
"O  c #1A1D24",
"+  c #1A1F2B",
"@  c #1F2126",
"#  c #1E232E",
"$  c #1F2531",
"%  c #222327",
"&  c #23252C",
"*  c #24282F",
"=  c #292A2E",
"-  c #222631",
";  c #252934",
":  c #2A2C34",
">  c #272B3A",
",  c #2A2E3A",
"<  c #2D3035",
"1  c #2D313D",
"2  c #31333E",
"3  c #2E3341",
"4  c #323643",
"5  c #353945",
"6  c #3A3C45",
"7  c #363B4A",
"8  c #3A3E4B",
"9  c #3A3F50",
"0  c #403F46",
"q  c #3D424D",
"w  c #3D4352",
"e  c #3F475A",
"r  c #42444D",
"t  c #48464A",
"y  c #45484F",
"u  c #48484E",
"i  c #424654",
"p  c #454A55",
"a  c #4A4C55",
"s  c #424659",
"d  c #454B5B",
"f  c #4A4E5B",
"g  c #504F56",
"h  c #4A5157",
"j  c #46515B",
"k  c #4D525D",
"l  c #515257",
"z  c #52545D",
"x  c #52595F",
"c  c #464C61",
"v  c #494F61",
"b  c #475160",
"n  c #4D5363",
"m  c #4E5964",
"M  c #4E5568",
"N  c #4F5969",
"B  c #525663",
"V  c #585761",
"C  c #555A65",
"Z  c #5A5C65",
"A  c #52566A",
"S  c #555B6B",
"D  c #5B5E6A",
"F  c #565E71",
"G  c #5B5F71",
"H  c #615E65",
"J  c #615F69",
"K  c #546165",
"L  c #5B6167",
"P  c #56616D",
"I  c #5D616C",
"U  c #5C696E",
"Y  c #576171",
"T  c #5D6372",
"R  c #5E6973",
"E  c #5D6579",
"W  c #5E6878",
"Q  c #606067",
"!  c #62636D",
"~  c #626A6F",
"^  c #69686F",
"/  c #636572",
"(  c #656974",
")  c #6A6B74",
"_  c #686A77",
"`  c #6B6D76",
"'  c #6C6D75",
"]  c #6D6D77",
"[  c #636679",
"{  c #636A79",
"}  c #656B7A",
"|  c #676B7A",
" . c #6A6B79",
".. c #696F79",
"X. c #6C6F79",
"o. c #6B6F7D",
"O. c #6D6E7C",
"+. c #706F75",
"@. c #706F79",
"#. c #6E7177",
"$. c #67707A",
"%. c #6B7079",
"&. c #6D7079",
"*. c #6E717B",
"=. c #6A717F",
"-. c #6F717F",
";. c #707177",
":. c #70717A",
">. c #73737B",
",. c #73737D",
"<. c #70747F",
"1. c #72767F",
"2. c #75747C",
"3. c #79777F",
"4. c #78797E",
"5. c #696D80",
"6. c #6E7482",
"7. c #687883",
"8. c #727681",
"9. c #727482",
"0. c #737683",
"q. c #767780",
"w. c #767784",
"e. c #787781",
"r. c #767881",
"t. c #767884",
"y. c #7A7981",
"u. c #7B7982",
"i. c #797B85",
"p. c #7B7B84",
"a. c #7B7B87",
"s. c #767C8A",
"d. c #7D7D89",
"f. c #817E86",
"g. c #817F89",
"h. c #7B8087",
"j. c #7D808B",
"k. c #7D8492",
"l. c #80808B",
"z. c #80828A",
"x. c #83828C",
"c. c #84838C",
"v. c #89868E",
"b. c #858591",
"n. c #8A8790",
"m. c #878891",
"M. c #898A91",
"N. c #8C8A93",
"B. c #8D8D99",
"V. c #918F97",
"C. c #939297",
"Z. c #93929B",
"A. c #9B969F",
/* pixels */
"z z z z a k V i d v A v v v d 7 7 i w q ( I G B S o.! 7 f n S S d S A i f A n v s 5 w s i 2 ' z k / C C Z p 0 _ B S Z C P C :.8 ",
"D ! ! a ! :.2.n S n v d b N A q / O.r.Z k h d ..O.} -.5 q f B { _  .D 5 D C n n w l / D 8 : ( k B A n C B C q I S P U U Z ( 4.y ",
"( B B t _ / ,.k b T F =.E S S 5 d a ! Z ! ( ( -.w.T 0.i B -.D B B B C 8 ! C D _ a / t.p.q.r ( n B B P k C / 6 ' U U I I I I Z a ",
"p q k 2 C / ( l / { C / } B i 1 i i z &.&.p...&.0.{ 0.D / T C B S S k 7 D / ( ! f a o.S S 8 n C I C I ' &.%.q Z ..! ! ! k B z 6 ",
"q.V ! r % = y 2.Z { -.2.<.p.Z l._ +.y X.q.y...( ( %.<._ p.y.` ( y.! i q a f i w r z C { D 1 i f / <.r.l.y.M.x.' 2.2 z ( ,.X.X.0.",
"C f Z / Y I ` V k A S n S k 7 i h a ! r.-.&.&.%._ k Z I I ~ I B ( 2.a ,.,.0.,.t.! / i k 5 l.C.d.p.T D d B n Y R C.r B k C f i n ",
"d B f S S Y / n i S } T Y n d b a ! ' &.r.p.' ' :.4.:.U D ( D D / 2.a k T T E i 4 D S Y / / F o./ C i e i s Y P p.~ p d d i d d ",
"s B 8 A n T { f 7 P s./ 0.i n N d T n S S ` ( U I ! ! ! C X.I I I &.a S Y S n q 2 T { S C d n T D s i n i v S Y 0.! i 8 i 7 w d ",
"d i i D n E S C q W 6./ ! ; d D S f j d } / ! k d { &.C Z ! Z Z Z Z Z } v S D n 2 ! i i e.p.x.m.p.8 q d f b A S / ! w 7 5 5 w n ",
"n i 6 p.X.` I L D #.k > q ( 2.y.&.C 7 i B ! a i q f d f C I C C i ! l ( 2._ X.! a e.I z / O.S f w.4 i S T / B A _ C > 4 4 7 i w ",
",.,.V h I C ! B p P p.7 B Z C _ p.f 8 2 6 y y D ' k D y.:.' @./ 5 q./ / / p 2...D 1 / ,.S Y S A p.4 8 V z 6 r 5 5 8 7 i 2.y.x.e.",
"d 6.7 k / ( D V p w T 5 a C B C n C d 2 2 ; a C C B q Z ! V.M...5 D C V Z k _ B D D S ..n S T n _ 6 6 a D H p a a A d 6 B Y o.A ",
"P { 7 C B C B a r q S r k Z k k k _ / B B a B ( I k 4 i k ! -.{ 4 T I I _ C _ B S / Y B d n { / <.D B d i I f z f S S 7 n A A A ",
"P ! w n f a q i n b C i k Z k k B ..I B U U Z D Z a 7 f C ,.p._ 2 S ! V ! B ! i C C S D 8 5 7 1 - f ! n d ( q a r r i 8 D f s v ",
"n / 7 d d d f B n d C r f C z C B D D k P I B { / q 1 8 d q.d.D , D V a f k a k S C P a i n d w 5 V B S f p.! q.y.p.f.q.f n n d ",
"b f 1 e s i n n s d C i B B D / T i A n T ( k C D 7 5 7 w _ r.d ( <.c.p.N.A.c.z i r r p f i A s w q z f V r.l f B Z ! V 5 d v i ",
"o + $ > B f i w w 8 z p.2...a / q.' _ ( ( #.z L ! ! i 3 7 o.p.d i I ( ( _ e.:.f f d a D 2.( q.q.! 6 Q _ ' 2.k d D ! ! z = & ; @ ",
"7 8 7 > k C z z f C V l V I a ..O.../ ' ( l.6.#.! / / f 7 e n d.! C k :.( / ! I B D f D ,.2.y.l.v.D z Q D f.i k k C Z z 7 q q - ",
"d d 7 - i ! U C f D V B B I r S Y C Z z z ' E z Z Z V P S n S S I B k I / _ @.S B B i Z Z V C ! v.r a z z :.1 B z D ( ! 4 7 7 7 ",
"c.d.,.q.8 V z D V D S B S f 8 A } C / z D ! / x x Z z I S n N S a q a k ( ..x.B.d.M.D k D z I I p.6 a z Z :., C n C C ( I X.g.e.",
"-.A i -.2 f C / C D C / T S i T n I _ C Z ! / V C C :.D k Y A n D k k f r ..,.C D X.! k D z D Z ' p a k D ' _ n v 8 ; w p.[ G n ",
"C T v D 4 d d b C T n B S n w ( / / Z C Z %./ k C ( :._ B Y S v / B B C V _ ! D D Z Z n C B k z ! 6 ! z D / / / } n i t.S B O./ ",
"X./ A I 7 f d C / D n n f B 8 0.n I ! C C I S z Z D ( I n S A w B / ! a i _ ( B _ D D C B C z B ! a X.g.l.q.&.0.6.T B T D _ B S ",
"z z a D a ` -./ ! l.f.2.:.y.u S D _ D Z C X.f 5 i k ! Z a d s w 8 C z f a k D a C S f f S B D n J r C D D I  .6.T W D B B C C / ",
"c.^ Z Z :.&.p.d.p ! D ! :.N./ I ,.y.y.y.( a c.v.l.N.g.2.:.:.,.d.d.d.' q.,.! ` _ 2.I B Z i 7 q 8 D z D ` S B i B n d / D a y.2.! ",
"k D / D B I D d.a z I I &.y.D S d n ! N.l.r k a z _ p.w 8 f a k D _ p.C D B V z / r.f S k n n n T f A n n B , 2 8 w i q f V q 8 ",
"a l Z D a a n / f f I ! / y.z d w q 8 ! B f n s B } D 8 k _ C C n D <.Z D Z z V C X.i D z B B n B q d n n -.8 f n v n d B w 6 5 ",
"( f a C b d s T 8 n D ! V _ ! 8 6 8 i ! V i A S d T / f I } D C B D &.B D Z V Z D ,.8 D C C B D n 7 S A A T 8 8 d d 7 8 4 8 6 r ",
"0.D q i w 8 e A 8 B n D n D z 6 2 2 q ! D q b d s v ( f / T D B C C w.k B C C C C Z a p.q.D X.,.m.j.&.I I ..O.B O & ; 4 f D Z D ",
"d f z B 8 8 8 a f d D I D ( r 2 6 1 5 ! / 7 { n d d S s B d n S n f D Z ( / B f B B q T o.f B i P 2.D k d D D _ 1 q d d v d w i ",
"d I v S I <.,._ f 8 5 7 k C y.z a q 6 z c.f n n n D S D D ! ! 6 d S B G T ( X.p.x.w.a B S 4 k N C U C x i C b I r n A n n s d s ",
"b d n b A b c n b F A A / f B z S S S T r.2 i n S d r n S k f C n A E A E ..V D / D z 8 7 6 k k m U k k a C b I 6 T S n v d i w ",
"i i b n A v d S F F T T ! T I z f D / / p.8 f k z l r D B D n f T A S } F Y C ` Z ! ! Z B 4 k k C m C q j n P S 6 f k i k P n d ",
"D f s S i z C f S v S G C A D a Z D ! B X.a k B D ( a C n D A n T k.S s.A S a I C C I z r 2 B q p I h n k P m U T j.w._ ..p.+.! ",
"N T z / r.<._ / b.2 7 6 f b S D Z z ! P <.Z k k I ( a D C C d d 6.S S T d A D d.k / I Z a 1 h w P S K p n K b P C p.{ } E q.P n ",
"B n B b N n n c O.f k z f n 0.S f f _ S / V d C D S 8 ( :.` q.D  .! D q.0./ B / S / / G n 1 f q d U ( q S j b { S } { $.{ _ n n ",
"i d B N n N N n  .D I C i C I d s b / D D i e d n f 6 Z I p.-.( O.x.! _ ( q._ f.( ! q.0.B _ z k i 4 q q k j m C k ..=.P / _ d A ",
"i i S i n b n n D D 2.:.2.M.c.N.p._ D a f q k D V _ C a n I C a n U B D ( ! ` y.! r 0.} F } N _ C S _ / ( ~ %.p.I 6.{ T X.T f i ",
"7 7 f z w.r.y.:.z p k ! I ! z k c.-.8 p B B n k S C ,.w k B i p n P C z ! D ! :.' 5 } _ S E n O.} S Z _ &.~ ` <.k S T { ..} e w ",
"8 7 , / G D z l <.n k ! ! ! a i d r.p n _ _ B C B n _ q i B D f b T f B D ( ! X.X.7 Y A n S B n } B L ` ' L L ~ Z w b F A I 8 q ",
"p.p.d./ } B C C Z a C B V z r 6 i j.C / T C C B B B ..7 i S B n j d w n P _ C D _ > e s n / I f T C ( ( K U ~ ( z 1 , : 2 1 ,.w.",
"A v n B S D z a ( a A k p q p n w p.d n i k f f f B n 8 7 d A b b d S A B C n C I a _ r.r.x.h.r.n B ! ! ! ~ x n I i i s n 2 ! G ",
"c f n C S ! I C _ B b i a i n f d I ..r k 4 & * - - C ! ! Z Z 1 3 1 a 8 d C -._ ! 6 D / ! _ n b C I ! B Z &.B Y C s d f N 2 D G ",
"s v n C n I C z D d e w d n b n n ! r.Z Z l z C k k f B B B f - 3 3 3 4 ; r 0.} S k C / Z D a i V y.' :.;.V c.0.I ! / D ! q C [ ",
"C S S a B D ! z V : w s d d b d s Z <./ a z f C Z ,.z B n B d 5 8 8 8 8 1 i T W A r B n f a i w B ( / D q.( / E 0.T } X.t.B.X. .",
"d n b f ! d.p.w.I V r 6 r = 2 6 a y.S / k V z z Z q.C A B D d w e e e w 4 7 S { B 8 f i a a n i P A C C ' C / Y n A } B N T _ s ",
"n s i E { 2.k } S B l Z C q f d d / T D I { B z B -.C B h d i i i q d w q Y ..6.0.0.d.-...D B n Z { l g ' ! &.k T C f S A v C d ",
"n s d A 0.0.D A P ! Z Z l w _ ,./ ,.' D I } S D / _ 8 n k k a V j.y.c.m.' ( k W 0.<.( ( I s.j.k.n { I ! ' ' <.S B n S [ T S A d ",
"f d f d B 0...T I I C C C 6 D Y { W B I g.B.N.c.M.N.D T n n i k D k ! I B P k k K L k B p k m C I I B V :.( { E D f B b n d n n ",
"d A d s n / D k I ! z z C S B / f } n a / / C C f k B D C k S i U C x I B j j C K K k p k m P 7.V _ ( :.v.' I I D C S n n A n F ",
"O.0.0.f _ ' q./ q.M.f.,.X.a / x.B S ( 7 / / k S a C B B V D C 7 S Z f C k d d k B ( k Z C U k P D v.' p.p.c.Z :.v.f.c.3.! O...0.",
"s s d X.s d I n q.,.:.:.:.q ( A O.d S 4 D T f B z C B 7 7 e w 8 _ C C S i B q S C R d Z k m j Y k ! C ` D Z C 2.y./ Z z y / F M ",
"s c v o.s d / S -./ I ,.( f Y } / Y n 7 n C h k k h I 8 w e w n _ _ ( p.Z n i N P ! d q S k P Y k ! z z I P I e.y.e.D S Z 5.E A ",
"s M M T S d C S T p.Z z -.B S T / n n 5 f k i i k a U w 8 e 9 f i Z Z I L T S A S n B B n b n b 7 B B B D D d / g.2.D @.Z [ A c ",
"v G d n T s B n D n _ v I C ! ! / ! / 4 i z k k f n B ! Z I B 5 r C z I z q q q C i B i 8 w w i > f n C Z / p D ../ D X.a N T [ ",
"D T j.D n v b T b S T A C p.c.l.N.c.l.H q f B B n D ` B.O.b.Z.C r p h Z p : & % u n.n.c.c.l.p.p.V.M.! c.Z.n.Z 7 q : : < r c.B.b.",
"7 v T =.f B 8 q 7 / D  .' k ,.C V D z z 5 8 i q i v d F n T [ 8 4 i k C z r l k a Z C ! ! ( ( ! / c.0.A _ B k Z z : y Z I T 0.@.",
"8 i v o.1 f r q 8 2 a ,.,.Z D k z ! V V - 1 # # ; - i c c } T i 8 i w b C 5 a 8 6 C C k D ! _ C / :./ { S k C I ' l D D Z D [ A ",
"r f f -.2 a B k f 8 2 z S p f f z ! i Z r S k f A 4 7 s e n A 7 5 q 8 s k 8 z p ; -.B C C _ _ S D :.n S I Z ! z D a C V ! Z O.Z ",
"V Z ` :.i w i f f i 8 f D f w p f V D V S V Z C S i s S i 8 k i q 7 w 7 r 1 i f > E f B S S C ` 2.! a B I :.Z Z C V / V V / z Z ",
"e.! :.e.c.n.y.I p.e.Z i ' a f q a I / 2 f I D / T B b } k p C l ! ( H X.Z.n.c.3.l S d d b n S S d D z ( ( / B B Z a Z z Z a a D ",
"k Z C D ! D / n I S G n A + - #     . X S ! C I P C C / _ q.p.y.2.&.2./ B N S S Z b w w 9 w s w w w B w.I g.( 2.! +.! z C ! :._ ",
"V V V V V Z V f d v n n d 8 v B 5 > , - S I C B D T 8 b f C D B p f I S f n d c / ; o o . X o $ # O w A f T ,.B B C C S z V Z x ",
"z z V C V C f B f d v d s v A w 7 d s 1 w f k f n D w a V D ( I k S d f f n n c G 5 i w 9 3 d i w s k n C d f S S U I Z U z C z "
};
