/* XPM */
static char *_f6098b46351448ebff11f52fc4b4675xP91CxjvfFMqiT9l[] = {
/* columns rows colors chars-per-pixel */
"64 64 230 2 ",
"   c #092C2A",
".  c #791C17",
"X  c #422C1A",
"o  c #6E2B1F",
"O  c #7A281C",
"+  c #483C29",
"@  c #713429",
"#  c #79382A",
"$  c #4D412E",
"%  c #55462F",
"&  c #4E4133",
"*  c #534533",
"=  c #594736",
"-  c #554A34",
";  c #5C4D35",
":  c #564C3C",
">  c #5C4D3A",
",  c #5D5036",
"<  c #53503E",
"1  c #5D523C",
"2  c #6F432E",
"3  c #6A4332",
"4  c #674B35",
"5  c #624E3C",
"6  c #794938",
"7  c #635437",
"8  c #63543C",
"9  c #69553D",
"0  c #65593E",
"q  c #6B5A3E",
"w  c #70583D",
"e  c #6E603E",
"r  c #70613D",
"t  c #1A4542",
"y  c #1E4946",
"u  c #385A55",
"i  c #39635E",
"p  c #3D6660",
"a  c #594D40",
"s  c #5E5442",
"d  c #5C514B",
"f  c #614D42",
"g  c #764C40",
"h  c #645641",
"j  c #6A5643",
"k  c #665A43",
"l  c #6C5C43",
"z  c #67564B",
"x  c #645B4A",
"c  c #6C5D4A",
"v  c #795643",
"b  c #725D44",
"n  c #725E4A",
"m  c #7A5D4A",
"M  c #6B5E52",
"N  c #775F52",
"B  c #6E6146",
"V  c #67614C",
"C  c #6D624B",
"Z  c #736246",
"A  c #7B6346",
"S  c #74644B",
"D  c #7B654B",
"F  c #76694D",
"G  c #7C6A4D",
"H  c #6D6252",
"J  c #6F6957",
"K  c #746552",
"L  c #7B6652",
"P  c #756A53",
"I  c #7B6C53",
"U  c #7A6558",
"Y  c #756B5B",
"T  c #7C6D5A",
"R  c #7D7155",
"E  c #7D725B",
"W  c #7A755A",
"Q  c #416963",
"!  c #557069",
"~  c #5B746D",
"^  c #786F61",
"/  c #7D7361",
"(  c #7B7663",
")  c #627C73",
"_  c #737F76",
"`  c #89100A",
"'  c #881915",
"]  c #941D19",
"[  c #812219",
"{  c #95251C",
"}  c #872D26",
"|  c #992926",
" . c #893628",
".. c #953328",
"X. c #8B3B31",
"o. c #963A36",
"O. c #A03F3C",
"+. c #83412F",
"@. c #884538",
"#. c #934639",
"$. c #A3413F",
"%. c #8D4C45",
"&. c #9B4C48",
"*. c #895749",
"=. c #96544E",
"-. c #855D53",
";. c #8C5E53",
":. c #9B5853",
">. c #A54947",
",. c #A8524F",
"<. c #A65A57",
"1. c #83644D",
"2. c #88644B",
"3. c #826B4D",
"4. c #8B6354",
"5. c #826D53",
"6. c #876857",
"7. c #836E5A",
"8. c #94655C",
"9. c #96695D",
"0. c #837255",
"q. c #8A7455",
"w. c #847857",
"e. c #8A7857",
"r. c #83745B",
"t. c #8A755A",
"y. c #85795D",
"u. c #8B7A5C",
"i. c #91755A",
"p. c #937C5D",
"a. c #A9615D",
"s. c #816F63",
"d. c #956D62",
"f. c #837561",
"g. c #8B7662",
"h. c #857A62",
"j. c #8B7C62",
"k. c #847669",
"l. c #857B69",
"z. c #8C7D6B",
"x. c #957462",
"c. c #9A7366",
"v. c #917C62",
"b. c #9D746A",
"n. c #927B6A",
"m. c #9B7C6C",
"M. c #937C70",
"N. c #A86C67",
"B. c #B36563",
"V. c #B56D69",
"C. c #A3756C",
"Z. c #AD726D",
"A. c #B3736E",
"S. c #B8706D",
"D. c #A87B73",
"F. c #B77A76",
"G. c #6A837A",
"H. c #77847A",
"J. c #92835F",
"K. c #98805E",
"L. c #8D8164",
"P. c #86816B",
"I. c #8D826B",
"U. c #938265",
"Y. c #9B8565",
"T. c #988A66",
"R. c #93846B",
"E. c #9A856A",
"W. c #93896C",
"Q. c #9A8A6C",
"!. c #8C8473",
"~. c #8E8971",
"^. c #8B897D",
"/. c #948472",
"(. c #988576",
"). c #948B74",
"_. c #9B8C72",
"`. c #958C7A",
"'. c #9B8B7C",
"]. c #9D9276",
"[. c #9B937B",
"{. c #A08A6A",
"}. c #A5847A",
"|. c #A68A7A",
" X c #B7837E",
".X c #A39378",
"XX c #7F8C82",
"oX c #868C82",
"OX c #919085",
"+X c #9C9282",
"@X c #989889",
"#X c #9E9F92",
"$X c #AD8D84",
"%X c #BA8983",
"&X c #BC8A85",
"*X c #A59785",
"=X c #A49C8C",
"-X c #AB9B8C",
";X c #B2948A",
":X c #BC948D",
">X c #AE9E91",
",X c #B79C93",
"<X c #A7A38E",
"1X c #A8A494",
"2X c #B6A69A",
"3X c #B8AEA1",
"4X c #B9B4A7",
"5X c #C38985",
"6X c #C2938D",
"7X c #C9928D",
"8X c #C39C95",
"9X c #C99B96",
"0X c #CB9B96",
"qX c #CAA29C",
"wX c #D2A29D",
"eX c #C3ABA2",
"rX c #CAABA3",
"tX c #D5AAA5",
"yX c #C5B4A9",
"uX c #C4B6AA",
"iX c #CAB5AD",
"pX c #D4B3AD",
"aX c #C7BBB0",
"sX c #CCBBB1",
"dX c #D6BAB4",
"fX c #DCC2BC",
"gX c #DBCCC4",
"hX c #E1CBC5",
"jX c #E3D4CD",
"kX c #E5DAD2",
/* pixels */
"d : r.r.r.^ 7.n z c a Y ^ H z j l K z c c t.z.T 7.z.7.f.'.z.5.I 5.q.t.U I !.+X7.j.q.7.U L L c L g.T T H j._.7.I 7.7.I T Q.R.l.d ",
"z - S B P P R Z l l > 1 & % h , j l S 8 8 Z v.0.I R 0 l !.r.A S l F j > c z T I G 3.G 5.D q q l P I Z G q.t.U.Q._.L I I Z t.E W ",
"f.I e.P r.U.5.Z Z 7 ; - % 7 Z R y.R h.l k P I S D R.1 1 1 l l l S l k k 8 l h F G 5.6.D Z b Z l c C y.u.u.G T F r.L.U.u.0.I E P ",
"7.I I P F 8 Z l D 7 8 , 0 n l R F r.; j l Z j Z G S 8 1 $ * > j 7.l % > 1 8 k 0 j U.t.3.q.G b j ; - 5 I 0.t.c S l j.l.r.A I r.I ",
"I e.I I.l l 8 l Z G Z 0 B b 0 j 0 j Z j Z l B l I K > * + - 0 y..X9 ; - 8 h * > 0.0.D 3.3.3.Z 8 j 7 l l G 5.E C U.r.0.T.I l.l.F ",
"S l 0.b 8 7 7 l b G Z S l Z b Z l A Z 0 Z Z S Q.l.h.P.Y * 8 h F j.r.; h = j Z D L 5.5.0.3.D Z j l 1 > j r.j.x C r.D S j.f.E `.I ",
"r.0 0 7 Z l 0 l l b 8 l l l b n Z b Z k S 7 P P./ > k P B 0 I r.F G w q A A Z q 3.q.t.0.0.Z q 0 0 7 0 > K B j B S j.E E z.x Y E ",
"r.n.u.Z j Z j q Z l 7 b b b D D D I l Z h j C f.c % Z S 0 Z 0.R A 3.3.D 5.D Z 8 Z 3.v.U.0.D 0 8 7 8 8 0 > 7 0 F y.r.K / z./.I B ",
"z.j.Z 0 l G S l j 0 9 b q 0.b D F F c l j I r.C S G G 0.b Z 0.Z 5.u.t.0.G 3.D G G G D 0.A D n 7 7 0 7 8 7 Z S l r.K R E E _.E r.",
"U._.e 0 n b 7 j B , 0 0 l Z Z S 9 k 0 l Z l S j 0 r.S S 5.t.u.5.3.3.1.3.3.A q.t.I 0.R Z A Z F j 7 8 > - 7 j l U.R.F l R 8 8 F Z ",
"z.I l 9 l 0 l b Z j ; j l Z 7 Z l ; 0 8 I l l l Z I c r.I F D 0.0.5.3.5.q.D G G 0.0.G G G D S j 7 l S j 7 l A e.U.l + + ; k k R ",
"f.G e q q l k 0 l 8 8 l l n > b q 7 0 l G S S R I j.I R I L 0.I 5.G D A 5.3.G Z 5.p.3.0.5.9 0 l b l 9 9 q S b b D I + * s : + $ ",
"K F Z j j q c b S 0 7 j 5.r.0 l 7 9 j j I C k Z E I I B I j.r.R b b Z A G 6.5.A 0.p.t.G G b Z 7.r.I j 0 0 l b w 0 ; * : k x - - ",
"c x 9 8 0 b 9 Z G b j R h.E Z h h 7 l j I B Z x C R j.F I r.I I Z b F I D 0.G 0.0.0.e.S I l I I y.I.c 9 n 9 ; 7 0 1 - h - : * 1 ",
"f 1 0 h Z Z S S b 9 S r.E I B j 8 0 9 j P C - k E r.R F c I C I j I 0.y.u.Z b 5.D D e.0.F I U.I 0.W.R u.Q.0.7 8 > k % 1 s : % 0 ",
"k ; ; 1 7 Z Z 0.0.w j.R.0 j r.g.I F h j S F B R R I R I F T K P F t.5.I e.3.0.q.q.e.r.t.l F W.I R L.I v.p.v.Z h l 8 ; l 1 + - 0 ",
"h 8 8 ; 0 l Z P F G F n 8 r.j.j.u.0.F B l S F F R S t.v.r.Y K l R Q.I 0.t.3.0.e.A G p.R.Z B F c I j.r.T.t.t.Z 0 8 l Z l 1 1 1 8 ",
"h 7 > l 9 l S Z B P I I j._.r.S Z F F I Z b e.0.I.W.u.Q.j.P I l Z I F R 0.e.D 3.A 5.u.e.Z l l Z I r.r.U.0.y.S b l j L K c - > 8 ",
"c ; > l b A G b E z.r.y.y.+XI D h j l 8 j Z u.0.j.y.L.U.U.r.r.P S Z Z 0.5.3.b A b G T.G 0 l Z 0.l F r.S R J.r.5.I j.W._.E 8 1 ; ",
"T 1 8 8 l G A D f.[.I F K I j._.K l l l j 0 B W.Z l I p.6.1.w m 6.A L n 3.q.A b b G p.0.- 7 8 K l 0.S 0 l Z b n L.I.h.h.R.h F I ",
"U l 0 B F G t.0.I I P.+Xr.0.f.W k 8 7 j 0 j F R j.9 *.2.*.+.6 6 6 g m A A q.1.3.G 0.G 3.Z b 8 l T.u.8 0 7 ; B l.I.I.R.C h.h.I I ",
"M Z l c F S I U.I B !.4XF R W 1 A c 1 8 ; S l q 3.1.@. . ... .O # # # v m A A 5.q.3.p.t.5.b l Z 5.Z 0 l b ; E I I.f.I.c y.W k B ",
"n j Z B l r.f.P /.n OX=XI.l.Z r u.)./ * 8 g.2.6 # #  ...{ { ] ' ' [ } @.6 6 m n 5.5.G 0.3.A Z b G 8 l B j > r.R.j.I y.r.I F l 0 ",
"c l l S I h.^.@X/.*X1X~.<XE 8 B S H J f.r.1.*.#...| o.O.>.$.o.| | o.o.@.X.# # 3 v q A e.G b r.j.D 8 l I 8 0 E r.S g.I y.C 0 j 8 ",
"z 0 1 r.r.P `.4Xk.+XJ c F l l F R P Y c 1.*.#.{ { ..>.B.S.V.B.>.>.<.<.=.X.O o 6 4 b B 0.A Z R p.5.n D L 8 n 0 j.r.F l y.h h h 0 ",
"K k B r.K Z W 1X=X)./.E f.l l S q V J L -.X.{ ] | >.V.5X7X7XF.B.<.S.F.Z.&.} O @ @ 4 n F b 9 F 9 I Z t.Z U._.F y.q.S K j.l k 8 8 ",
"n L I E r.R.0.l.l.~.=XK b 9 0 0 l C c 4 # } ] | >.V.5X0XtXwX7XS.V. X6X%XN.&.} . o 3 n r.t.5.q.Z 3.3.p.p.t.u.U.j.v.5._.R.l 7 - 7 ",
"k k y.P f.4X<XI r.r.h.S l F j j 8 P 5 2 +...] $.V.5XwXtXpXtX0XF.V.5X0X0X XN.#.} # 6 D r.t.q.3.Z G 3.3.i.p.Y.K.Y.{.Y.Q.u.u.T l , ",
"c K I P y.@Xr.j.0.I G u.Z P K , , ; 7 2 O { | ,.%XtXdXfXfXdXwXF.V.5X0XqX6XA.&.o.%.;.6.r.K 1.5.5.D q.u.p.p.K.p.Q..XQ.t.0.E W.E j ",
"T <Xz.j.r.u.j.S I 0.r.j.r.I ; 1 7 b 3 o [ ` | <.6XdXhXjXjXhXpX&XS.%X0XqX6XA.<.:.8.8.N f.z.g.7.5.u.t.3.3.3.p.3.v..XU.t.R.f.l.[.`.",
"f.r.f.R.r.t.Y.p.r.t.R.).j.0.y.0.5.p.2.O ` ` | ,.&XpXgXkXkXjXdX:XF.&X0X0X&XN.:.a.C.b.-.U z.n.(._.j.5.3.3.t.p.3.j y..Xt.K / ( !.( ",
"j.R.j.j.R.t.Q.T.t.p._.=XR.U.T._.I v 6 } ' ] | >.Z.8XdXgXkXjXdX:X X8XrX8XF.<.:.N.D.C.-.m f.R./.j.p.q.A 3.p.Y.v.I r._..Xr.K E H P ",
"f.L.j.W.Q.U.v.v.e.U.W.].j.r.0.E 2X3 # X.o.&.&.>.<.Z.:XiXfXgXiX,X;XqXiXqX XN.N.D.}.b.-.g 9 Z 9 q F u.0 Z t.J.Z j 7 P I.I.T I.l.E ",
"r.r.j.u.U.e.F u.U.0.e.W..XR.j.E !.@ # @.:.N.A.Z.a.<.Z.:XeXyXeX2X,XyXsXyX,X;X$X$X}.b.*.g m m j I r.5.D G I l 1 > j E Y !.`.T P r.",
"R.L.W.u.L.Z l U.j.j.l.L.W.u.I C 7 4 6 %.C.&X6X6X XZ.N.D.$X>X2X1X2XyXsXsXyXeX2X;X}.d.*.*.m 9 b b r.r.I 5.S 8 = ; k r.T l.).h.P h.",
"R.r.I P I.I , J.L.I I f.S h c F k j 6 *.D.:XrXrXrX,X$X|.|.+X@X@X<X3XyXsXsXeX,X|.c.8.4.4.1.b A l F K h l Z 7 0 l 7 h.W P C l.C W ",
"r.W.h.h.y.l , R j.R.*X'.h.B h 8 8 I *.*.C.:XrXsXsXiX3X>XOXH.G.G.XX#X3XyXyX2XD.9.;.;.9.i.6.3.b D Z 8 k l Z D 7 j B _.P./ s k l B ",
"j.y.y.T B 8 - F f.!.@X& X + : E j.5.1.4.d.}.,XeXiXaX4X1XoX~ p p ~ XX#X2X2X$X9.%.*.4.x.v.t.t.t.5.I 0 j l J.p.t.8 n Q.R.C l 0 r.0.",
"I.0.u./.W R 1 1 1X[.T + $ + - W f.f.q.q.4.8.b.$X,X2X1XOX) u y t u ~ XX#X>X|.8.=.8.9.x.t.D G G r.Z 8 Z y.0.u.U.0.; l._.f.r.I F e.",
"j.r.y.y.I r.C R R r.S S R F 1 B +Xz.j.t.4.;.;.c.|.-X@XH.Q y     t i G.OX-X|.c.9.c.c.t.v.D 5.5.0.F n r.u.0.0.U.U.r.l )._.E U.B w.",
"r.y.F I 0.n 1 F Z R r.y.R y.f.T =X2XE r.x.9.9.b.|.-X@XG.Q y     t i ) OX=X|.C.c.c.m.Y.1.A A t.l l G e.u.0.b u._.I > R.].j.S Z y.",
"I.I.j.T 1X4X1 B I / z.S l.r.U.v.+X`.j.f.t.x.c.m.|.-X#XoX~ u t t u ! H.OX'.}.b.x.d.m.5.5.3.3.5.0 G u.r.R.U.0.u.W.r.c R.R.P h.R R.",
"E r.).`.1X=Xh W 0.I / r.~.R.R.g.I.f.r.I g.7.4.d.}.-X1X@XH.~ i i ! H.^.^.n.9.;.-.N l.S 0.t.5.0.b I I I u.].W.).-Xh ; h.I.T h.I u.",
"j.P l.r.@X~.`.+Xu.j.E r.).+X4X*XP.Y z.f.r.g.m 6.n.*X-X*XOXH.) ) _ ^.'.M.6.v 6 g b l h 8 Z G e.0.I U.0.Z j.Q..X-XI I E._.R.Z I r.",
"j.r.F R I j.~./ I I f.P f.`.3X2X).].~.*Xf.r.q.U n.(.(.(.(.^.^.^.^.'.'.g.m 3 3 7 l > h j b I G 5.U._.j.I 0.j..X].r.U._.]._.I r.R ",
"r.7.E R.U.Q.7.y.r.h.l.W I E ~.z.L.E W W C L.S I r.g.t.6.n.'.+X'.(.(.m.t.j j 5 5 8 h ; j D Z G j.j.R.T.U.0.0.I Q.0 I I T h.I I S ",
"s./ r.I w.L.Z r.I T I T /.P P E P c R.B I r.I S g.u.t.m 7.z.(.R.g.g.7.7.5 c l 9 8 L 0.u.L b 0.T.t.3.0.u.u.R R.0.S 0.L.E y.r.I j.",
"`.!.y.I S I E L.R.T.I S I K S 0.P h I r.S L.P S r.0.I I 0.R.f.T 7.n T U T g.v.F I r.j.p.q.t.Q.R.t.l u.U.j.E ~.P l Z I Y P I l.u.",
"7.r.y.I S y.R.I I.I.y.h.t.5.h.P 7 c F B P B l S Z D I 5.I t.5.I Z D (.k.T j.j.1 E k.l.T.u.u.L.U.5.b R.r.I Z 1 W E l c 8 B I y.e.",
"j.T I r.F I ( E j.v._.j.r.h.R.r.l B R P E D G I 0.I 0.F E I T f.I 5.).Y x x h K P K r.u.R.j.U._.j.Z r.F F j.n c > k l 1 I r.L.U.",
"l.F I h.W P P j.R.W.I.z.r.T _.h.P r.j.h Y 5.b I r.u.p.u.K K I c r.I I K a Y j.I T T ].(.r.D 5.7.r.U.I h.S y.F 7 ; k 0 l > I 0.R ",
"E r.u.C P l.l.z.r.E j.z.T P y.P.P C c Y F 0.5.G 5.q.u.i.v.S P _.7.n 0.j.F c Z I E ).f.I.Q.5.j I P U.j.k ; 8 S I 7 C 0 F j.u.0.l ",
"r.0.I F Y C W W h.h.r.I S C E P K M h C l 0.I D G G I 5.P s f.I t.q.0.E r.t.D F r.I I j.R.T P C P j.R.u.l l T T * j 7 A t.0.j.v.",
"j.0.r.y.R F I h.E F I f.h.Z k F C T > h l F r.Z G q.0.t.j n l F U.u.e.r.5.0.3.Z S u.t.0.R./ H x P r.F c k l Z t.q.q.G G u.Z R 0.",
"v.G u.u.R S P P c D A Z r.u.P R s h I T Z b G Z G A 3.G e.Z L S 0.E.j.0.5.0.3.q.5.3.u.t.I f.K k F r.r.8 l I r.3.3.u.G G 0.I R T.",
"T j.r.r.I h.S B I Z 9 B Z I H H a s c h l Z Z D q.p.0.G q.u.I R.L.r.r.j.t.0.5.r.I b A L P / I S T I j.D 1 W B G 5.3.A R.P j.I j.",
"l.L.l.r.t.c l I 5.5.q Z u.P.'.l.H V P E I D G G D 5.A q.5.t.G e.t.j.5.I 7.F G p.0.0.L L I C H Y K Y l.j.l > c 1 0 I 0.0.5.j.0.u.",
"( B S r.I L.y.y.0.S 9 3.r.P c 0 k I x 1 A G 0.b 0.0.A D 0.G 0.I u.t.q.I t.A L E.U.j.5.D I C k / J f..Xj.l P 0 1 - E G D r.E u.0.",
"K F y.y.y.Z F l A r.t.t.T l.c 7 8 F C I I A A 5.I D G F K I 5.t.G 5.0.U.I t.t.r.t.p.q.t.K k 1 H Y z.R.u.j.B l k * k 0.5.u.R.E I ",
"z.j.L.0.F P F g.P T T E E Y E I 7 B - I 5.0.G 3.5.0.0.L I G r.R G I r.r.r.j.u.5.5.5.b G u.G K T M / l.I I B 8 1 & C D D T f.E v.",
"M h.0 0.0.0.I I l./ > C T l k I.S l P F E.0.0.3.S I b D r.r.r.5.0.u.G 0.j.r.0.G 0.5.p.G I G F E Y ^ H {.0.= 0 $ > G 0.q.r.K h.0.",
"H ( j.G L Z I I P c a x P B I 1 - 0 1 P g.5.G u.0.0.j.t.G h.l 0.t.q.q.t.u.z.7.U.5.D A A D r.I I / h./ j.F > B S 8 P y.I h.r.j.r.",
"E Y Y f.e.r.h.c h + < : C 0 P - l l c c L.E.5.5.Z 0.0.3.5.q.v.r.0.t.u.0.G u.p.R.I 5.q.0.G G I R E P Y T z.j.l u.8 I F P K L.r.F ",
"d T c M K K / / C > d Y K E f.5 c h c c K R.R.z.U j.I t.5.t.7.q.0.v.v.L r.7.I f.L 5.q.L n l T f.k.Y H K j.j.j.I Z r.U f.T s./.Y "
};
