/* XPM */
static char *_2498da374a745bd96cbbdd6000296586FcLU7wz0B3h6Yi3[] = {
/* columns rows colors chars-per-pixel */
"64 64 193 2 ",
"   c #422C1A",
".  c #463321",
"X  c #463823",
"o  c #4C3B26",
"O  c #463E2C",
"+  c #4A3E2B",
"@  c #4D412E",
"#  c #54442F",
"$  c #51482F",
"%  c #5D4A2F",
"&  c #4E4133",
"*  c #534533",
"=  c #594736",
"-  c #554A34",
";  c #5C4D35",
":  c #564C3C",
">  c #5C4D3A",
",  c #5D5136",
"<  c #53503E",
"1  c #5D523C",
"2  c #614F34",
"3  c #614D3B",
"4  c #635437",
"5  c #63543C",
"6  c #69563D",
"7  c #65593E",
"8  c #6B5A3E",
"9  c #715D3F",
"0  c #6E603E",
"q  c #70613D",
"w  c #4F4F43",
"e  c #574C40",
"r  c #5A4D40",
"t  c #5D5442",
"y  c #5F5846",
"u  c #5C514B",
"i  c #5F5050",
"p  c #614D42",
"a  c #645642",
"s  c #695642",
"d  c #665A43",
"f  c #6C5C43",
"g  c #63564D",
"h  c #6A5649",
"j  c #645B4B",
"k  c #6C5D4A",
"l  c #725E44",
"z  c #785E40",
"x  c #715E4A",
"c  c #6B5E51",
"v  c #725F51",
"b  c #676244",
"n  c #6E6146",
"m  c #67614C",
"M  c #6D624B",
"N  c #736246",
"B  c #7A6346",
"V  c #74644B",
"C  c #7B654B",
"Z  c #76694D",
"A  c #7C6A4D",
"S  c #6D6252",
"D  c #6F6A54",
"F  c #6E6758",
"G  c #6E6B59",
"H  c #746552",
"J  c #7B6651",
"K  c #756A53",
"L  c #7B6C53",
"P  c #796558",
"I  c #756C5B",
"U  c #7C6D5A",
"Y  c #777155",
"T  c #7D7155",
"R  c #7F7A57",
"E  c #76715B",
"W  c #7D725B",
"Q  c #7D795E",
"!  c #726F62",
"~  c #7B6F61",
"^  c #777263",
"/  c #7D7361",
"(  c #7E7963",
")  c #806447",
"_  c #826B4D",
"`  c #886C4E",
"'  c #806753",
"]  c #826D53",
"[  c #836E5A",
"{  c #837255",
"}  c #8A7455",
"|  c #847857",
" . c #8B7856",
".. c #83745B",
"X. c #85765C",
"o. c #897159",
"O. c #897659",
"+. c #8A765A",
"@. c #8C775A",
"#. c #89755E",
"$. c #85795D",
"%. c #86785D",
"&. c #84795E",
"*. c #887858",
"=. c #8B7A5D",
"-. c #887C5C",
";. c #8E7E5E",
":. c #907657",
">. c #907759",
",. c #937C5D",
"<. c #816F63",
"1. c #837561",
"2. c #807660",
"3. c #867760",
"4. c #897760",
"5. c #877B61",
"6. c #857A63",
"7. c #897960",
"8. c #8F7A60",
"9. c #8B7C63",
"0. c #8A7A64",
"q. c #8A7D67",
"w. c #89776A",
"e. c #857869",
"r. c #857B69",
"t. c #8E7A69",
"y. c #8C7D6A",
"u. c #8E7C6B",
"i. c #917D63",
"p. c #987D62",
"a. c #907F68",
"s. c #8F805F",
"d. c #93825F",
"f. c #98805E",
"g. c #8D8164",
"h. c #8F8466",
"j. c #86816B",
"k. c #8E8169",
"l. c #8D826B",
"z. c #918165",
"x. c #938265",
"c. c #938667",
"v. c #9A8465",
"b. c #978A65",
"n. c #988A67",
"m. c #918168",
"M. c #93846B",
"N. c #9A856B",
"B. c #94896C",
"V. c #9A8A6B",
"C. c #9B8A6C",
"Z. c #998B6F",
"A. c #8A8671",
"S. c #8D8473",
"D. c #8D8972",
"F. c #938571",
"G. c #998773",
"H. c #948B74",
"J. c #9B8D73",
"K. c #9C8C72",
"L. c #908778",
"P. c #958C7A",
"I. c #9A8C7B",
"U. c #969172",
"Y. c #9D9276",
"T. c #9C947D",
"R. c #A08A6D",
"E. c #A38E74",
"W. c #A29277",
"Q. c #A49479",
"!. c #A9997E",
"~. c #998B82",
"^. c #919386",
"/. c #9E9080",
"(. c #9C9482",
"). c #9B9984",
"_. c #9F9689",
"`. c #9F988C",
"'. c #A49783",
"]. c #AC9E85",
"[. c #A19388",
"{. c #A49D8C",
"}. c #A5A38F",
"|. c #A9A38D",
" X c #A7A493",
".X c #A9A492",
"XX c #ABA893",
"oX c #AEA899",
"OX c #B9AC9F",
"+X c #B6B2A4",
"@X c #BBB5A5",
"#X c #BAB6AE",
"$X c #B7B8AB",
/* pixels */
"u : X.X.X.~ [ x h k r I ! S g s d H h h h #.u.U [ t.[ 3.I.t.' L ' o.#.J K S./.[ 7.o.[ J J H k J 4.U U S 0.J.[ L [ [ K U Z.k.e.u ",
"g - V n J K T N f f > 1 & # s , s f V 5 5 N i.{ K T 7 d A.X.B V f Z s > k j U K A _ A ] C 8 8 l L L N A } O.z.Z.K.J L L N #.W W ",
"2.L *.K O.z.] N N 4 ; - # 4 N T %.T 6.f d J L V C m.1 1 1 f f f N f d d 5 f a Z A ] ] C N l N d k M %.=.;.A U Z X.h.c.;.{ L W K ",
"[ L L J Z 5 N f C 4 5 , 7 x f T Z ..; s f N s N A V 5 1 @ * > s [ f # > 1 5 d 7 s z.@._ { A l s ; - 3 L { O.k V f 7.q...V L ..L ",
"L *.K k.f f 5 f N A N 7 n l 7 s 8 s N s N f n d L H > * + - 7 %.!.6 ; - 5 s * > { } B _ _ _ N 5 s 4 f f A ] W M z.O.{ V.L q.6.Z ",
"V f { l 5 4 4 f l A N V f N l N f B N 7 N N V Z.q.6.j.I * 5 s Z 0...; s = s N C ' ] ] { A C N s f 1 > s X.9.j M X.C V 7.2.W P.L ",
"..7 7 4 N f 7 f l l 5 f f f l x N l N d V 4 K j./ > d K n 8 L O.Z A 8 8 B B N 8 _  .@.{ | N 8 8 8 4 7 > H n s n V 9.W E u.j I Q ",
"X.a.=.N s N s 8 N f 4 l l l C C C L f N s s M 2.k # N V 7 N { T B _ _ C ] C N 5 N _ i.z.{ C s 5 4 5 5 7 > 4 7 Z %.%.H / q.F.L N ",
"u.9.N 8 f A V f s 7 6 l 8 o.l C Z Z k f s L ..M V A A ] l N { N ] @.@.o.A _ C C A _ C { B C x 4 4 7 4 5 4 N V d X.H T W W J.W ..",
"z.J.0 7 x l 4 s f , 7 8 f N N V 6 d 7 f N f V s 7 ..V V ] O.=.] _ _ ) ` _ B } @.L { T N B N Z s 4 5 > - 4 s f z.m.Z f T 5 5 Z N ",
"q.L f 6 f 7 f l N s ; s f N 4 n f ; 7 5 L d f f N L k ..L Z C o.o.] _ ] } C A A | { A A A C V s 4 f N s 4 f C *.z.f X + ; d d T ",
"2.A q 8 8 f d 7 f 5 5 f d x > l 8 4 8 f A V V T L 9.L T L J o.L ] A C B ] _ A N ] ,._ { ] 6 7 d l f 6 6 8 V l l C L + * t : O @ ",
"H Z N s s 8 k l V 8 4 s L ..7 f 4 6 s s L M d N W L L n L 9.O.T l l N B C ] ' B | ,.@.A A l N [ ..L d 7 7 f l 9 8 ; * : d j - - ",
"k j 6 5 7 l 6 N A l s T 6.W N s s 4 f s L n N j M T 6.Z L ..L L N l Z L C { A ] { { *.V L f L L %.k.k 6 l 6 % 2 7 1 - a - : * 1 ",
"p 1 7 s N N V V l 6 V O.W L n s 5 7 6 s J M - d W ..T Z k L M L f L { %.=.N l ] C C *.{ Z L z.L { B.T =.Z.{ 2 5 > d $ 1 t : # 7 ",
"d ; ; 1 4 N N { { 9 9.m.8 s X.4.L Z s s V Z n T T L Y L Z U H K Z O.] L *._ | } } *.O.#.f Z B.L T g.L i.,.i.N s f 5 ; f 1 O - 7 ",
"a 5 5 ; 7 f N J Z A Z x 5 ..9.9.=.o.Z n f V Z Z T V O.i.X.I H f L Z.L { O._ | *.B A ,.M.N n Z k L 7.O.V.O.O.N 7 5 f N f 1 1 , 5 ",
"a 4 > d 6 f V N n J L K 9.J...V N Z Z L N l *.{ k.B.;.Z.t.K L f N L Z T { *.C _ B ] @.*.N f f N L %...z.{ %.V l f f J H k - > 5 ",
"h ; > f l B A l W u...%.%.).L C s s f 5 s N =.{ 7.%.g.c.c.%.2.J Z N Z o.] _ z B l A n.A 7 f N o.f Z ..V T d.O.] L 9.B.J.W 5 1 ; ",
"U 1 5 5 f A B C 3.T.K Z H K 7.J.H d f f s s n B.N f T z.*.{ s K =.L ..C _ } B l l A ,.{ - 4 5 H f o.V 8 f N l x k.k.6.6.m.s Z L ",
"P f 7 n Z A O.{ L L j.~.%.{ 2.E d 5 4 s 8 s Z T q.s L =.*.f Z K L ..X.{ _ } _ ' A { A _ N l 5 f c.=.5 8 4 ; n 6.k.q.M.M 2.6.L L ",
"v N f n Z V L c.L n S.@XZ Y Q 1 B k 1 5 ; M n b T W M f { O.=.f =.3.J O.] ] L {  ._ ,.O.' z f N ] N 8 f l ; W K k.2.k.k %.W d m ",
"x s N M f ..3.J F.x ^.{.k.w.N q =.H.^ * 1 0.] k 1 - n A { =.O.B =...7.#...L X.L | ] A { _ B l l A 5 f n d > X.c.9.L %.X.L Z f 7 ",
"k f f V L 6.L._.F.[.XXD.}.E 5 n V D G e.2.T =.=.T 1 f V Z O.} _ J 3.L g.X.X.] N _ l A *.A l X.7.C 5 f L 5 7 W %.V 7.T %.M 7 s 5 ",
"h 7 1 X...K P.$Xw.(.D k Z f f Z Y K I c X.W ..Y Z 8 L T { { { { L ..L ] ..W X.z.C Z V ..B N { i.] x C J 5 x 7 7.O.Z d %.s a s 7 ",
"H d n ..H N W .X{.L.F.W 2.f f Z 8 m G E 6.K L s s s s N N N 8 8 W k.t.7.L N v.v.C B Z J l 6 Z 6 L N O.N z.K.C *.} V V 9.f d 5 5 ",
"x J L W X.m.o.e.e.D.{.H l 6 8 7 f S m 1 y M M f f f H f Z ; N L W 6.%.{ ] O.] B V V J 7.#.] } N _ _ ,.,.@.=.z.7.i.] J.m.f 4 - 5 ",
"d d %.J e.+X|.L Q ..6.V f Z s s 1 K t ; V 6.L 1 f f f f N l C 3.u.q.2.8.#.L ] 5 s L ..6.#.} _ N A _ _ :.,.v.f.v.R.v.Z.;.=.U f , ",
"k H L K %.).W 9.{ L A ;.B K H , , , d 7 , { 7 s N k N f N O.A J E H.m.a.] Z ] 6 L g.k.q.U ' ] ] C } =.,.,.f.,.Z.W.Z.O.| Q B.W s ",
"U .Xt.0.%.%.9.V L ] O.7.O.L ; 1 4 N 7 ; 5 1 s s a s A _ _ B { O.] m.P.F.z.L C =.C W U P.H.0.[ ' =.@._ _ _ ,._ t.W.z.#.M.2.e.T.P.",
"3.%.3.c.%.O.v.,.O.O.M.H.9.| %.{ { Z.R.f 7 5 5 a 5 L ] C _ 7 l V W 6.k.q.W ' _ C =.] ] H.I.m.F.J.7.` _ ` @.,._ s %.W.#.H / ( S.2.",
"9.M.7.a.m.@.Z.b.O.,.J.{.m.z.c.J.[ V Z | L f ; N A } *.N L N C H Z U L L l N } z z } L q.H.G.F.0.,.} B _ ,.v.i.L %.J.E.X.H W S K ",
"3.g.7.M.Z.z.i.i.*.z.B.U.t.O.| W OX3 f 9.7.C ] C C O.C A C Z k L Z H l O.v.t.S k H > M K x V 6 8 Z =.8 N O.d.N s 4 J k.k.U k.6.W ",
"X.O.t.=.z.*.Z ;.z.{ *.B.E.M.7.E D.* s f f Z A B ] C | { N s 1 f N N f ..g.t.f M ^ a a K ] B s L X.] C A L f 1 > s W I S.P.U K ..",
"M.g.B.=.g.N f z.t.7.q.g.B.=.L M 5 d d 4 7 d s O.L ] N L f f 9.o.B B C z.M.c a M U H N ,.L 6 l l ....L ] V 5 = ; d X.U e.H.6.J 6.",
"k.X.K K k.K ; d.g.L L 2.V a k Z d M 5 4 a U U L 7.N.V k 1 M L ..L 9.M.Z.t.U H 3.L O.,. ._ N B f Z H s f N 4 7 f 4 6.W K m 6.M W ",
"%.B.6.6.%.f , T 9.m.'.I.6.n a 5 5 ..%.N 7 %.6.=.z.i.c.V a 5 3.X.M.B.M.Z.u.W q.i.N.p.,.@.C _ l C N 5 d f N C 2 s n J.j./ t d f n ",
"t.%.%.U n 7 - Z 2.S.`.&   . : W t...=.9.X.V E %.%.V.M.i.Z.t.=.7.K.u.X.4.u.H %.=.N.@.,. .O.} @.' L 7 s f g.i.#.5 k B.c.M f 8 ..{ ",
"k.| =.B.R T 1 1 XXT.U o @ + - W 2.6.;.c.#.o.%.@.@.z.s.K.t.t.k.J.u.J.z...K S K m.v.{ O._ B A A O.N 5 N %.{ =.z.o.; q.Z.3...L Z *.",
"7...%.%.L %.M T T %.Z V T Z 1 n (.u.t.z.=.t.T { *.=.o.m.7.9.k.L L t.t.J k.V a L L _ { =.C ] ] { Z x O.=.{ { c.z.X.d F.J.W c.n %.",
"X.%.Z L o.x 1 Z N T W %.T %.3.U {.oXW %.t...7.J.c.=.Z.7.O.N { =.@.=.t.U H k * - s O.v.C B V X.f f A *.;.{ l ;.K.K > M.Y.9.V n %.",
"k.k.7.K  X#X1 n L / u.V q...z.i.(.P.q.W L O.W M K Z 0.L { ] ] ,.,.7.U 0.L V * * 5 t.N ] _ _ ] 7 A =...M.z.| =.B.O.k c.c.J 6.T c.",
"W ..F.H. X{.a Q { L / ..D.M.m.4.k.2.X.J W H 5 5 a Z A f L %.L V ] L 2.W 6.L > > > e.f ] O.] | l L L L =.W.M.G.].s ; 6.k.U 6.L =.",
"7.J 9.X.).D.P.(.=.9.Q %.H.(.@X[.j.I u.2.W 7.n I d N L l l %.=.X.L { H H D S t d f d 5 4 N A *.{ L z...N 9.Z.W.].L L N.J.M.N L O.",
"9...Z T L t.D.^ L L 3.K 3.P.+XoXU.Y.B.(.2.X.a.U 9.{ ] 6 C #.i.f.} L U a a 1 1 s f ; s s l L A ] z.K.7.L { 9.W.Y...z.K.Y.J.L ..T ",
"2.[ W k.c.Z.[ %.O.6.q.W L W S.u.h.W Q Q M k.Z T T o.} l 7.#.i.z.O.L L k > d t 5 5 s ; 6 C N A 7.t.M.c.z.{ o.L Z.7 L L U 6.L L V ",
"<./ %.K | g.N O.K U L U F.K K W J k m.n L %.L V 7.,.i.V K H X.W d V a I = n f s 5 J { =.J l { V.O._ { ;.;.T M.| V { g.W %...L 9.",
"P.S.-.L V K W g.c.c.L V L H V { K a L %.Z h.K V =.| o.{ ..z.L N L 5 U H U 0.v.A ] X.7.,.o.@.Z.M.@.f =.c.7.W D.K f N L I K L 0.=.",
"[ ..%.L V %.c.L k.k.%.6.#.] 6.K 4 k Z n L V l A C ' o.O.{ =.] [ V C I.e.W M.M.a 6.e.e.c.=.=.g.z.] l M...L N 1 Y W d k 5 n L %.*.",
"t.U L ..Z L ( Q 9.a.K.9...6.c...f n T K W A ] ] o.T O.J W L W 6.L ] I.I k k d H K K ..=.c.7.z.J.7.N X.Z Z t.N k > d f 1 L O.9.z.",
"q.Z L 6.W K K t.m.M.k.u.X.U J.6.K ..7.a I ] l L ..=.,.=.H H L k O.L K H e I t.L U U Y.J...C [ [ ..z.L 6.V -.Z 4 ; d 8 f > L { T ",
"W O.=.m K e.6.u.O.W 7.q.U J %.j.K M k I Z { ] A ] } @.>.i.V J J.] x { 7.Z k N L W H.2.k.J.] s L K z.7.d ; 5 V L 4 m 7 Z 9.;.{ f ",
"%.{ L Z E M Q Y 6.6...K V m Q K H c a M f { L C A A L ] K t 2.L @.o.o.W O.O.C Z ..L L 7.M.U K M K 9.c.=.f d U U * s 4 B O.{ 7.a.",
"7.{ X.%.T A L 6.W Z L 2.6.N d Z M U > a f Z X.N A } { O.s x d Z z.;.*.X.] { _ N V @.@.{ m.~ S k K ..Z k d f N @.} } A A @.N T { ",
"i.A =.=.T V K K k C B N O.;.J T t a L U N l A N A B _ A  .N J V { N.7.o.] { _ } ] _ @.O.L 2.H d Z ....5 d K O._ _ @.A A { L T V.",
"U 9.X.X.L 6.V n L N 6 n N K S S e t k a f N N C } ,.{ A } =.L m.g.....9.O.{ ] O.L l B J K ^ K V U K 7.C 1 Q n A ] _ B m.K 7.L 9.",
"e.g.q.W O.k f K ] ' 8 N ;.j.I.e.S m K W L C A A C ] B } ] O.A  .@.=.] L [ Z A ,.| { J J L M D I H I 6.9.f > k 1 7 L | { ] 9.{ =.",
"( n V O.L g.%.%.{ V 6 _ ..K k 7 f L j 1 B A | l { { B C { A { L =.O.o.L O.C J N.z.9.] C L M d / F 3.Q.9.f K 8 1 - W A C ....=.{ ",
"H Z %.%.%.N Z f B O.#.O.U 6.k 4 4 Z M L L C B ] L C A Z H L ] O.A ] { z.L O.#.X.O.,.} O.J d 1 D I u.M.=.9.n f d # a { ] =.M.W L ",
"u.7.g.{ Z K Z 4.J U U W W I Q L 4 n ; L ] { A _ ] { o.J L A ..T A L ..X...7.=.] ] ] l A =.A H U c / e.L L n 5 1 & M C C U 2.W t.",
"c 6.6 { { | L L 6./ > M U f d k.V f J Z N.{ { _ V L l C ..X...] { =.A o.7...o.A } ] ,.A L A Z W I ^ S E.{ = 7 @ > A { } O.H 2.{ ",
"F ( 9.A J N L L K k w j K n L , - 7 1 K 4.] A =.| { 7.O.A 6.f { O.o.} O.@.u.[ z.] C B B C O.L K ^ 6./ 9.Z > n V 5 K %.L 6.X.9.X.",
"E I I 2.*.X.6.k s O < : M 7 L - f f k k g.N.' ] N { { A ] } i...{ } @.{ A ;.=.m.L ] } o.A A L T W K I U u.7.f =.5 L Z K H g...Z ",
"i U k v H H / / M > u I H W 2.3 k a k k H m.M.t.P 7.L #.] #.[ o.o.i.i.J ..[ L 3.J ] o.J l d U 2.e.I S H 0.9.t.L N X.P 2.U <.F.I "
};
