/* XPM */
static char *_96efda768984528add0a24a54ed70ea9NKpDE5huNuaBJOT[] = {
/* columns rows colors chars-per-pixel */
"64 64 240 2 ",
"   c #191819",
".  c #251E1D",
"X  c #26221D",
"o  c #1F1B22",
"O  c #211C25",
"+  c #251E29",
"@  c #292428",
"#  c #2C2C2B",
"$  c #342D2A",
"%  c #3B3426",
"&  c #34332C",
"*  c #393328",
"=  c #3C352A",
"-  c #2C2234",
";  c #2C293B",
":  c #32263B",
">  c #312A3D",
",  c #393734",
"<  c #463B2B",
"1  c #4B2A33",
"2  c #463B36",
"3  c #553A36",
"4  c #4C422E",
"5  c #55462F",
"6  c #4A4337",
"7  c #554A34",
"8  c #5B4D35",
"9  c #554738",
"0  c #5C4D3A",
"q  c #5A5037",
"w  c #5D523B",
"e  c #614C3A",
"r  c #635437",
"t  c #63543C",
"y  c #69563D",
"u  c #65593E",
"i  c #6A5A3E",
"p  c #715D3F",
"a  c #6E613E",
"s  c #2D2F41",
"d  c #342B42",
"f  c #3B2B45",
"g  c #3D2D4A",
"h  c #38344C",
"j  c #393852",
"k  c #412E4E",
"l  c #4E3A4D",
"z  c #443253",
"x  c #423759",
"c  c #493758",
"v  c #4C355B",
"b  c #443C5C",
"n  c #693A45",
"m  c #7A344D",
"M  c #493E64",
"N  c #4C3C64",
"B  c #523C66",
"V  c #36404E",
"C  c #394653",
"Z  c #3F4668",
"A  c #4A4744",
"S  c #4C4B4B",
"D  c #574846",
"F  c #5B5248",
"G  c #4A445E",
"H  c #575453",
"J  c #5B5A5A",
"K  c #674747",
"L  c #744749",
"P  c #645542",
"I  c #6A5642",
"U  c #665A43",
"Y  c #6C5C43",
"T  c #66574A",
"R  c #6C5D4A",
"E  c #715E44",
"W  c #77564D",
"Q  c #725E4A",
"!  c #6A4959",
"~  c #774952",
"^  c #655B57",
"/  c #725C53",
"(  c #6E6146",
")  c #6D624B",
"_  c #736246",
"`  c #796646",
"'  c #73634B",
"]  c #7A654C",
"[  c #76694D",
"{  c #7C6A4D",
"}  c #6D6253",
"|  c #66625E",
" . c #6A655B",
".. c #746552",
"X. c #7A6652",
"o. c #756A53",
"O. c #7B6C53",
"+. c #786659",
"@. c #756D5B",
"#. c #7B6D5A",
"$. c #7C7155",
"%. c #7D725B",
"&. c #79745A",
"*. c #464568",
"=. c #4D426A",
"-. c #4E4A6C",
";. c #53456E",
":. c #534B75",
">. c #554875",
",. c #5C4C7D",
"<. c #4B5471",
"1. c #59547A",
"2. c #6A6462",
"3. c #786C64",
"4. c #7D7361",
"5. c #7E7776",
"6. c #93385A",
"7. c #874658",
"8. c #875958",
"9. c #94535B",
"0. c #83624D",
"q. c #826C4D",
"w. c #886756",
"e. c #826D53",
"r. c #836E5A",
"t. c #95675D",
"y. c #837255",
"u. c #897456",
"i. c #807857",
"p. c #83745B",
"a. c #8A755A",
"s. c #85795D",
"d. c #8B7B5D",
"f. c #917658",
"g. c #947C5D",
"h. c #9A4861",
"j. c #8C5B60",
"k. c #995863",
"l. c #AC4D68",
"z. c #B3476D",
"x. c #A65667",
"c. c #896B66",
"v. c #9A6667",
"b. c #837562",
"n. c #857A63",
"m. c #8B7C62",
"M. c #887866",
"N. c #8C7D6A",
"B. c #917D62",
"V. c #987969",
"C. c #947475",
"Z. c #A46367",
"A. c #AA7273",
"S. c #C5627D",
"D. c #93825F",
"F. c #8D8164",
"G. c #86816C",
"H. c #8D826A",
"J. c #938265",
"K. c #9A8567",
"L. c #92846B",
"P. c #93896C",
"I. c #9A8A6C",
"U. c #8D8473",
"Y. c #8B8676",
"T. c #948B74",
"R. c #958876",
"E. c #9B8C72",
"W. c #9C937A",
"Q. c #A28D73",
"!. c #A29377",
"~. c #5D4F80",
"^. c #525986",
"/. c #5E5983",
"(. c #585886",
"). c #614F83",
"_. c #635788",
"`. c #65558B",
"'. c #675B92",
"]. c #5C7086",
"[. c #5C6497",
"{. c #696699",
"}. c #716A9C",
"|. c #697295",
" X c #626DA4",
".X c #6C6DA6",
"XX c #736DA8",
"oX c #6974AE",
"OX c #7777AC",
"+X c #7B73A9",
"@X c #7878B5",
"#X c #727DBC",
"$X c #7B7DC0",
"%X c #817BAB",
"&X c #7488A8",
"*X c #7C80BE",
"=X c #7B85C7",
"-X c #7F8DD3",
";X c #998B82",
":X c #9B9684",
">X c #A38585",
",X c #A59B89",
"<X c #A9A592",
"1X c #AEA693",
"2X c #8384B9",
"3X c #8690B0",
"4X c #B9B6A8",
"5X c #8588CB",
"6X c #8897C7",
"7X c #858CD3",
"8X c #888ED3",
"9X c #8794DB",
"0X c #8BA5CC",
"qX c #8DADD0",
"wX c #8DA8D7",
"eX c #95B3DA",
"rX c #AFAECB",
"tX c #8B98E3",
"yX c #8F9DEB",
"uX c #909FEF",
"iX c #94A9E6",
"pX c #9AB8E6",
"aX c #90A0F0",
"sX c #95AAF1",
"dX c #9AB5F3",
"fX c #9EBCF5",
"gX c #B6BAE1",
"hX c #C0BDCB",
"jX c #9BC0E5",
"kX c #A2C4EE",
"lX c #A3C7F6",
"zX c #A5CBF6",
"xX c #A8D0F8",
"cX c #B6D2F3",
"vX c #C2DCF8",
"bX c #D6DBF5",
"nX c #CEE2F8",
"mX c #DAE7F8",
"MX c #EEF0F5",
"NX c #EDF2F8",
/* pixels */
"H 0 p.p.p.4.r.Q T R D @.3.} T I I ..T R R m.A.c.A.A.v.m.R.N.e.X.e.u.a.X.O.U.;Xr.m.u.r.X.X...R X.m.#.#.} m.E.r.O.r.r.O.#.I.H.M.F ",
"T 7 ' ( o.o.$.` Y Y 0 w 6 5 P q I Y ' t t W A.x.C.A.l.8.U.p.` ' Y ] I 0 R T #.O.{ q.{ e.] i i E O.O._ { u.a.J.I.E.X.O.O._ a.%.&.",
"b.O.a.o.p.J.e._ _ r 8 7 5 r _ $.s.$.n.Y I e.Z.z.c.>XA.h.I Y Y Y ' Y U U t R P [ { e.e.] _ E _ I R ) s.d.d.[ #.[ p.F.J.d.y.O.%.o.",
"r.O.O.o.[ t ` Y ] r t q u Q Y $.[ p.8 I Y _ 8.z.k.5.C.8.3 3 3 e W e < w F t U u I J.a.q.y.{ E I 8 5 e O.y.a.R ' Y m.m.p.` O.p.O.",
"O.a.O.H.Y Y t Y _ { _ u ( E u I i I _ I _ Y 8.l.k.2.N.F + . @ $ * @ < 8 t P 9 0 y.y.] q.q.q._ t I r Y R ] r.%.) J.p.y.I.O.m.M.[ ",
"' Y y.E t r r Y E { _ ' Y _ E _ Y ` _ u ' ' R 8.7.n H H =.,././.1.=.l 2 < 3 0 W w.w.e.y.q.] _ I Y w 0 I p.m.U ) p.] ' m.b.%.R.O.",
"p.u u r _ Y u Y E E t Y Y Y E Q _ E _ U ' r T > j C C 1.}.OX2X2XOX}.1.C C j s n 8.t.f.y.y._ Y i i r u 0 ..( I ( ' N.%.&.N.T @.%.",
"p.N.d._ I _ I i _ Y r E E E ] ] ] O.Y [ t 4 1.}.3XqXqXqXeXpXpXpXpXeXqXqXqX6X}.1.3 8.B.J.y.] i r r t t u 0 r u [ b.p...4.n.L.O._ ",
"N.m._ i Y { ' Y I u y E i y.E ] ' ' ( i D z %XrXcXcXvXcXxXxXxXxXxXxXcXvXvXcXrX3Xh K E e.` ] Q r r u r t r ` ' I p...$.%.%.E.%.p.",
"J.E.a u Q E r I Y q u i Y _ _ ' y Y u 4 c ~.rXMXMXNXNXmXxXxXxXxXxXxXnXNXNXNXMXhX).G 6 P ` _ [ I r t 0 7 r I Y J.L.[ Y $.t t [ _ ",
"N.O.Y y Y u Y E _ I 8 I Y _ r ( Y r u % M {.rXbXmXmXmXvXxXvXnXnXvXxXvXmXbXbXbXgX$X^.% Y { ] ' I r Y _ I r Y ] a.J.Y < < 8 U U $.",
"b.{ a i i Y U u E t t Y I Q 0 E i t u % -.+X8XsXlXxXxXxXxXmXNXNXmXcXxXzXdXaXaXaXaX X% _ e.y u I E Y y y i ' E E ] X.< 5 F 0 < 4 ",
"..[ _ I I i R E ' i r I O.p.u Y r I u % -.+X5X8XiXdXdXlXxXvXnXnXvXxXlXdX9X7X7X9XaX X< Y [ E _ r.p.O.I u u Y E p i 8 5 9 T U 7 7 ",
"R U y t u E y _ { E I $.n.%._ P P u I % -.+X%X5XtXaXaXdXzXzXxXxXxXzXdXyX8X2X2X5X9X[.< U O.Y O.O.s.H.R y E y 8 r u w 7 P 7 0 9 w ",
"P w u P _ _ ' ' E y ' p.%.O.( I t i t % -.+X5XtXyXaXaXsXsXlXxXxXlXdXsXuXtXtXtX=X^.j = ' [ O.J.O.y.P.$.d.I.y.e t 0 U 5 w F 0 5 u ",
"T 8 8 w r _ _ y.y.p m.L.i I p.m.O.[ t = -.+X8XaXaXaXaXsXdXlXxXxXlXdXsXaXaXaXaX#X    = O.Y [ P.O.$.F.O.B.g.B._ P Y t q Y w < 7 u ",
"P t t 8 u Y _ o.[ { [ Q t p.m.m.d.p.( = -.+X8XaXaXaXaXdXzXxXxXxXzXzXfXaXaXaXaX#X    < p._ ( [ R O.m.p.K.a.a._ u t Y _ Y w w w r ",
"P r 0 I y E ` _ ( o.O.O.m.E.p.' _ [ ( < -.+X8XaXaXaXaXdXxXxXxXxXxXxXfXaXaXaXaX#X    < [ _ Y Y _ O.p.p.J.y.s.' E Y I X...R 7 0 t ",
"R 8 0 Y E ` { E %.N.p.s.s.:XO.] P Y U % -.+X8XaXaXaXaXdXxXxXxXxXxXxXfXaXaXuXyX#X    2 Y u Y _ y.Y [ p.' $.D.p.e.O.m.P.E.%.t w 8 ",
"#.w r t Y { ` ] b.W.O.[ ..O.m.E...Y u = -.+X8XaXaXaXaXdXxXxXxXxXxXxXfXaXaXtX8X{.    < ' 8 r t ..Y y.' i Y ` E Q F.H.n.n.L.P [ O.",
"+.Y u ( [ [ a.y.O.O.G.;Xp.y.b.&.U t q % -.+X8XaXaXaXaXdXxXxXxXxXzXkXiX9X9X=XXX1.    % E _ E t Y J.d.r i r 8 ( M.H.H.L.) n.n.O.O.",
"/ _ Y R [ ' O.J.O.( U.4X[ $.&.w ' R 8 * -.+X8XaXaXaXaXdXxXxXxXxXpX6X@X.X'.1.b >     < [ e.E Y _ e._ i Y E 8 %.O.H.b.H.R s.&.T ( ",
"Q I _ ( Y p.b.o.L.Q :X,XU.M._ a d.R.+.# -.+X8XaXaXaXaXdXxXxXxXxXeX}.1.;.c f O       % ' q.` E E { t Y ( I 0 p.L.m.O.s.p.O.[ Y u ",
"R Y Y ' O.n.Y.:XU.,X1XY.<X&.t ( ' } } 6 -.+X8XaXaXaXaXdXxXxXxXxXqXC                 % [ { E p.m.] t Y O.t u %.p.' m.O.s.) u I t ",
"T u w p.p.o.R.4XM.:Xo.R [ Y Y [ $.U 6 @ -.+X8XaXaXaXaXdXxXxXxXxXqX/.;.>./.{.#X[.    * [ ` _ O.g.e.Q ] X.t _ u m.p.[ I s.P P P u ",
"..U ( p..._ &.<X,XR.U.%.b.Y Y [ ` 6   + -.}.=X9XtXyXuXdXxXxXxXxXpXOX.XXX@X5XyX#X    * R E y ' y X._ a._ J.E.[ s.u.' ' m.Y U t t ",
"Q X.O.%.p.L.y.M.n.U.,X..E y i i ' 6 + g c G <.^.OX7XyXdXxXxXxXxXfXtX9X9XtXtXyX#X    & O.a.e.u.' q.q.g.g.a.d.J.m.B.e.E.L.Y r 8 r ",
"T U s.o.M.4X<XO.p.p.n.' Y [ I Y a q - z v x x b /..X=X6XqXqXpXfXdXaXtX7X-X=X=XoX-.h = o.a.u.e._ { q.q.f.g.K.D.K.I.K.I.m.d.%.Y q ",
"R ..[ o.s.:X%.m.y.O.[ d.' o...r i 4 - z ;.`.`.).b s h j C /.OX9XaXaX=X'.-.h h 1.+X:.2 #.#.e.r.r.] u.d.f.g.g.g.I.!.I.a.y.%.P.%.I ",
"#.<XN.m.p.d.m.' O.y.p.m.p.O.8 t i 7 O > z M ~.`.>.^. X[.=.=.:. XoXoX[.:.{. X/././.b = M.R.m.r.e.d.a.q.q.q.g.q.B.!.J.a.L.b.n.W.R.",
"b.p.b.L.p.a.K.g.p.a.L.R.m.y.s.p.p.(   o O O =.`.`.XX9X5X{.:.j C C C V *.=X9X@X_.  o 2 M.R.L.I.E.m.e.q.q.a.g.q.I b.!.a...4.4.Y.4.",
"m.L.m.N.L.a.I.K.a.g.E.,XL.J.J.E.p.7 + f z z z b ~.{.@X=X7X-X-X0XqXqX6X=X.X(.:.j   d l D @.L.L.m.g.u.` q.g.K.B.O.p.E.!.p...%.} o.",
"b.F.m.P.I.J.B.g.a.J.P.W.N.p.y.p.1X3 - N B N k d ;.,.,..X-X-X9XwXeXeXwX=X^.o - - - =.>.d 2 _ y i [ d.i _ a.D._ I r o.H.H.#.H.M.%.",
"p.p.N.d.J.a.[ d.J.y.a.P.!.L.m.c.R.n > ,.,.B v z g d d j *.*.*.<.<.<.<.Z s - z v v '.}.b 9 Q i O.p.e.] { O.Y w 0 I %.@.U.R.#.o.p.",
"L.F.P.d.F._ Y J.N.m.m.F.P.d.t.k.x.m - M M k g g - d -.(. X X X X X X X X(.-.c ;._.2X6X<.9 t E E p.p.O.e.' t 8 8 T p.#.n.R.n.o.n.",
"L.p.O.o.H.O.q D.F.O.O.b._ P k.x.z.6.              G XX7XaXaXaXaXaXaXaXyX5X}.j 1.%XeXjX].9 E ` Y [ ..P Y _ r u Y r n.&.o.) M.) &.",
"p.P.n.n.s.Y q $.m.L.,XW.m.( h.6.h.z.n . - g k g - G XX7XaXdXfXfXfXfXdXyX5X}.j |.eXkXjX].3 0.E ] _ t U Y ' ] e I ( E.H.4.F U Y ( ",
"N.s.s.#.( t 7 [ b.U.,X6 % < 6.h.K 7.~ # : z v v : b {.*X9XpXkXzXlXkXiX9X@X{.j &XkXkXeX].K u.a.e.X.u I Y D.g.a.t Q I.L.) Y i p.y.",
"H.y.d.P.&.$.w w 1XW.#.< 4 < 6.7.2 2 D 2 # - k v : - b -.^.OX6XiXiX6XOX1.-.b c {.6X6X2X-.n 0.{ p.' t _ s.y.d.J.y.8 m.E.p.p.O.[ a.",
"m.p.s.s.O.p.( $.$.p.' ' $.[ l.n 2 # & , # @ d k -     ; x 1.}.#X#X{.-.    - g :.{.{._.! 7.w.e.y.[ Q p.d.y.y.J.J.p.I R.E.%.J.( s.",
"p.s.[ O.y.Q w [ _ $.p.s.y.s.x.D A # # , # & & o       b `.=.> h h > -       o - ; > h ~ l.w.a.Y Y { a.d.y.E d.E.O.0 L.W.m.' _ s.",
"H.H.m.#.<X4Xw ( O.4.N.' m.p.k.D 6 , & & & # @         ^.=X{.=.=.x O                 # ! l.t.r.u [ d.p.L.J.y.d.P.p.R L.L.o.n.$.L.",
"%.p.R.R.<X,XP %.e.O.4.p.U.H.k.9 , , , & *   o O O o   [.yX$X{.}./.d O       O O O   # K x.t.u.E O.O.e.d.!.P.R.,XP 8 n.H.#.M.O.d.",
"m.o.m.p.:XU.R.:Xd.m.%.p.R.:XC.A , , , * *   : z z f + 1.@X=X9XwX6X/.x     - g z z : @ D 7.Z.f.y.O.J.y._ m.I.!.,XO.O.K.E.L._ O.p.",
"m.p.[ $.O.N.U.4.O.O.b.o.b.R.3.A , , & & , h N ;.;.N - M '.8XsXpX0X{.=.  + g B ~.{.:.h A ~ Z.w.r.J.Q.m.O.y.m.!.W.p.J.E.W.E.O.p.$.",
"b.r.%.H.J.I.r.s.p.p.m.&.O.%.~ 2 , , # X z ~.).`.`.,.> M '.wXpX&X'.'.=.o g B ).@XtX@X,.h 3 9.t.V.V.V.K.J.y.y.O.I.u O.O.#.n.O.O.' ",
"b.4.p.O.i.F._ p.O.#.O.#.R.o.K , # & @   x `.XX$X$X@X.X{.,.qXkX0X&X_.b + N `.@X#X#X{.=.; 2 h.Z.A.v.x.y.d.d.$.L.y.' y.F.%.s.p.O.m.",
"W.U.s.O.' O.%.F.L.J.O.' O.+.K 2 , S &   x `.=XaXaXaXaX=XN 0XxXxXqX1.f - >.XXtX#X        A x.S.k.k.z.d.J.m.%.U.o.Y _ O.@.o.O.m.d.",
"r.p.s.O.' s.L.O.H.H.s.n.a.e.k.D 6 F = X > b (. X X X X^.d ].&X&X|.j : @ z :.[.(.6 S S S ^ l.S.~ 7.z.L.y.O._ w &.%.I R t ( O.s.a.",
"N.#.O.p.[ O.4.%.m.B.E.m.p.n.A.8.~ 7.K = * X X $ @                   = < 1 1 + # S J J J 2.7.z.n D h.p.[ [ N._ R 0 U Y w O.p.m.J.",
"m.[ O.n.&.o.o.N.L.P.H.N.p.#.Q.V.v.Z.v.L ~ L L W 3                   9 R m 7.< $ A J H J H n 6.1 3 k.O.m.' s.[ r 8 U i Y 0 O.y.$.",
"%.p.d.) o.n.M.N.p.%.m.N.#.o.b.H.#.w.8.c.j.v.t.w.9 - j x x g : O     P B.k.h.< $ A S S S H n m $ 2 k.m.I 8 t ' O.r ( u [ m.d.y.Y ",
"p.y.O.[ @.) &.&.n.n.p.O.' ) %.o...R T / R u.r.] 6 h ~.`.`.>.z -     P p.Z.x.2 $ , A A S | 2 , & 2 8.L.d.Y I #.#.5 I r ` a.y.m.B.",
"m.y.p.s.$.[ O.n.%.[ O.b.n._ U [ ) #.0 P t 0 P 7 % d ;.,.,.;.N B x O 6 T L n $ # # , A S J S 2 , 2 W [ R T Y _ a.u.u.[ { d._ $.y.",
"B.[ d.d.$.' o.o.R ] ` _ p.d.o.$.F P O.#.t X       - z v v v B ~.>.d - o           # S S H S S A D 9.p.t I O.p.q.q.d.{ [ y.O.$.K.",
"#.m.p.p.O.n.[ ( X._ y ( _ O.} } 0 F T 6 % .       O - : : : d j M >.N k -         @ 2 A S A J S F 9.m.] w &.( { r.q.` L.o.m.O.m.",
"M.F.m.p.a.R Y O.e.e.i _ d.G.W.M.) ) } 6           o - - - d h h :.XX'.B f           & , , S J J T j.M.m.Y 9 R w u O.y.y.e.m.y.d.",
"4.( ' p.O.F.s.s.y.' y q.p.o.R u Y $.F %           - z v v >.).).XX9X#X).j           & , 2 ^ J J ^ v.!.m.Y o.i w 7 %.{ ] p.p.d.y.",
"+.[ s.s.s._ [ Y ` p.a.a.#.M.R r r [ ( U 2 .       + f g g M ;.;.[.#X{.=.d         # 6 A S 2.J F 8.C.L.d.m.( Y U 5 P y.e.d.L.%.O.",
"N.m.F.y.[ o.[ m.o.#.#.%.%.@.%.O.r ( 8 O.R #                                       , S  . .2.^ ~ h.c.M.X.X.( r w 6 ) ] ] #.b.%.B.",
"/ n.y y.y.y.O.O.M.4.0 ) #.Y U H.' Y o.[ m.I I u w T 0 w T R I P I ) t I ) W W n 2 2 H 3.Y.N.2.k.Z.c.} Q.y.8 u 4 0 [ y.u.p...n.y.",
"} 4.m.[ X._ O.O.o.R S U o.) $.w 7 u w o.m.e.{ d.y.y.m.a.{ n.Y y.a.u.u.a.d.N.t.A.9.L F 3.5.Y.^ W v.M.4.m.[ 0 ( ' t o.s.O.n.p.m.p.",
"&.@.@.b.a.p.n.R P < q 0 ) U o.7 Y Y R R F.K.e.e._ y.y.{ e.u.B.p.y.u.d.y.q.d.g.V.t.8.R  .2.2./ j.v.+.@.#.N.m.Y d.t O.[ o...F.p.[ ",
"F #.R / ..+.4.4.) 0 F @...%.b.e R P T R ..L.L.N.+.m.O.a.e.a.r.u.y.B.B.X.p.r.O.M.w.t.c. .|  .v.v.N.3.} ..m.m.m.O._ p.+.b.#.b.L.@."
};
